<svg xmlns="http://www.w3.org/2000/svg" viewBox="0 0 784.08 943.94"><defs><style>.cls-1{fill:#fff;}.cls-2{fill:#ccc;}.cls-3{fill:#e6e6e6;}.cls-4{fill:#444;}</style></defs><title>moon</title><g id="Layer_2" data-name="Layer 2"><g id="Layer_1-2" data-name="Layer 1"><path class="cls-1" d="M499.05,928.13q-13.41.79-27,.79c-252.39,0-457-204.61-457-457s204.61-457,457-457q13.62,0,27,.79C259.21,29.66,69,228.58,69,471.92S259.21,914.18,499.05,928.13Z"/><path class="cls-2" d="M738,822.9q15.78-1.18,31.14-3.76-2.82,2.42-5.67,4.77a457.13,457.13,0,0,1-90.2,58.41c-221.75-5.71-399.76-187.27-399.76-410.4s178-404.69,399.76-410.4a457.13,457.13,0,0,1,90.2,58.41q2.85,2.35,5.67,4.77-15.36-2.57-31.14-3.76-13.37-1-27-1c-194.4,0-352,157.6-352,352s157.6,352,352,352Q724.63,823.92,738,822.9Z"/><path class="cls-3" d="M673.27,882.32a454.24,454.24,0,0,1-174.22,45.81c-239.84-14-430-212.87-430-456.21s190.2-442.26,430-456.21A454.24,454.24,0,0,1,673.27,61.52c-221.75,5.71-399.76,187.27-399.76,410.4S451.52,876.61,673.27,882.32Z"/><path class="cls-4" d="M711,838.92a389.39,389.39,0,0,0,62.11-5.31l-14.59-25.07c-7,6-14.51,12-20.49,16.5q-11.13,8.34-22.76,16a457.6,457.6,0,0,1-49.14,28.14,397.79,397.79,0,0,1-50.67,21,454.1,454.1,0,0,1-55.9,15.14q-6.87,1.4-13.79,2.58-3.67.63-7.35,1.2l-3.29.5c-.4.06-4.79.68-2.6.38-9.67,1.32-19.41,2.25-29.15,2.91a463,463,0,0,1-55.25.45q-12.13-.62-24.23-1.89c-3.89-.4-7.77-.87-11.64-1.37,3,.39-1.88-.26-2.82-.4q-3.39-.49-6.77-1a454.46,454.46,0,0,1-92.24-25.06q-5.26-2.06-10.49-4.23c-2.4-1,3.21,1.41-.7-.3L296.81,878l-6.06-2.7q-10.54-4.8-20.84-10.12a455.62,455.62,0,0,1-40.37-23.58q-9.89-6.48-19.43-13.45-4.25-3.11-8.4-6.29c2.34,1.79-2-1.57-2.65-2.09q-2.58-2-5.11-4.11a460.5,460.5,0,0,1-65.23-65.13q-3.73-4.56-7.35-9.22c1.87,2.4-1.23-1.64-1.64-2.18-1.31-1.74-2.61-3.5-3.9-5.26q-7-9.54-13.46-19.44A455.7,455.7,0,0,1,79.09,674.6Q73.6,664,68.67,653.18c-1.46-3.22-2.88-6.47-4.28-9.72,1.24,2.9-1-2.56-1.3-3.17q-1.26-3.07-2.47-6.18a454.6,454.6,0,0,1-25.19-92.18q-.93-5.76-1.72-11.53c.41,3-.23-1.84-.35-2.83-.28-2.29-.54-4.57-.78-6.86q-1.32-12.44-2-24.92a465.4,465.4,0,0,1,.07-49.13q.69-12.46,2-24.9c.2-1.83.41-3.65.63-5.48.14-1.14.29-2.28.43-3.41.3-2.4-.32,2.29,0-.1q.9-6.45,2-12.87a454,454,0,0,1,25.34-91.4c.73-1.86,1.48-3.71,2.23-5.56.37-.9,2.21-5.26,1-2.55,1.57-3.66,3.17-7.31,4.83-10.93q5-10.83,10.48-21.39a457.91,457.91,0,0,1,23.75-40.26q6.35-9.59,13.15-18.85c1.17-1.58,2.34-3.16,3.53-4.73l1.59-2.09c1.55-2-2.15,2.72.46-.59,2.43-3.09,4.88-6.17,7.38-9.21q14.55-17.68,30.83-33.88A460.77,460.77,0,0,1,195.47,127q2-1.65,4.1-3.28c.53-.42,4.55-3.53,2.14-1.68,3.3-2.52,6.62-5,10-7.45q9.3-6.73,18.94-13A454.86,454.86,0,0,1,271.09,78.1Q281.4,72.8,292,68c1.82-.82,3.64-1.62,5.46-2.42l3.05-1.31c-.54.23-2.59,1.07.09,0,3.7-1.52,7.4-3,11.12-4.45A454.86,454.86,0,0,1,404,35c1.81-.28,3.61-.56,5.42-.82l2.72-.39c4.37-.63-1.89.23.78-.11q6.17-.78,12.33-1.42,12.11-1.23,24.26-1.81a465,465,0,0,1,56.37.69,397.42,397.42,0,0,1,55.27,7.73A455,455,0,0,1,617,54.22a395.71,395.71,0,0,1,50.57,21.17,458.21,458.21,0,0,1,49,28.3q11.25,7.47,22.06,15.59c5.57,4.18,13.15,10.3,19.86,16l14.59-25.07c-84.24-13.8-171.34.9-245.44,43.69-65.86,38-119.74,97-150.91,166.41a371.42,371.42,0,0,0-23.24,235A367.28,367.28,0,0,0,681.65,837.72c9.77.8,19.56,1.18,29.36,1.2,7.84,0,15.36-6.91,15-15s-6.59-15-15-15c-9.8,0-19.59-.4-29.36-1.2q-6.89-.57-13.74-1.41l-2.74-.34c3.45.44-1.06-.16-1.45-.22q-3.72-.54-7.44-1.17A349.13,349.13,0,0,1,602,790.92q-6-2-11.94-4.29-3.1-1.18-6.2-2.43L580.74,783a6.83,6.83,0,0,1-1.31-.55c-8.49-3.73-16.87-7.67-25.07-12a352.47,352.47,0,0,1-45.57-28.75l-2.62-2c-.57-.43-2.88-2.22-.6-.44-1.72-1.35-3.43-2.7-5.13-4.08q-5.61-4.53-11-9.28-9.82-8.64-19-18-9.63-9.81-18.48-20.34-4.21-5-8.23-10.19c1.86,2.39-1.52-2-2-2.7q-2.16-2.89-4.26-5.82a351.86,351.86,0,0,1-28.2-46.73q-2.82-5.61-5.44-11.33c-.92-2-1.83-4-2.71-6.06-.15-.35-1.86-4.41-.57-1.3-.51-1.23-1-2.46-1.51-3.69q-5.26-13-9.46-26.4a349.58,349.58,0,0,1-12.34-54.12l-.39-2.72c.48,3.45-.12-1.08-.17-1.46-.28-2.29-.53-4.57-.77-6.86q-.74-7.25-1.18-14.52-.89-14.37-.59-28.77.29-14.62,1.77-29.2.31-3.09.69-6.17c.13-1.14.28-2.28.42-3.42-.38,3,0,0,.12-.77q1-7.11,2.34-14.17a348.22,348.22,0,0,1,14.35-53.32q2.24-6.29,4.71-12.48c.49-1.23,1-2.46,1.5-3.69.21-.51,1.12-2.66,0-.1q1.56-3.66,3.21-7.28,5.59-12.34,12.14-24.23t13.9-23.12q3.6-5.49,7.39-10.85c1.27-1.78,2.55-3.56,3.85-5.32.65-.88,1.3-1.75,2-2.62.37-.5,3.2-4.18,1.24-1.65a353.15,353.15,0,0,1,36.05-39.7q9.75-9.22,20.18-17.69c1.53-1.24,3.07-2.46,4.61-3.68,3.4-2.71-2.37,1.75,1.11-.86l2.09-1.58q5.77-4.33,11.73-8.42a352.72,352.72,0,0,1,46.69-27.06q6-2.88,12.05-5.52c-.11.05,3.89-1.66,1.87-.81s2-.82,1.89-.78c2.47-1,4.94-2,7.43-2.93q12.5-4.78,25.34-8.59,13.59-4,27.49-7,6.66-1.41,13.38-2.54,3.38-.58,6.75-1.08l2.72-.4c1.78-.25,1.81-.25.09,0l2.05-.26a356.51,356.51,0,0,1,62.83-2.19,321,321,0,0,1,35.1,3.74c6.67,1.09,13.33-.73,16.94-6.9,3.17-5.42,2.66-13.9-2.35-18.17C719.23,62.44,646.42,25.82,568.35,9.8a477.61,477.61,0,0,0-220.08,6.51c-63.6,17.22-122.83,48.08-174,89.46A472,472,0,0,0,32.92,645.18,472.56,472.56,0,0,0,303.71,913a469.69,469.69,0,0,0,204.71,29.53c80.22-6.32,158.41-32.9,225.31-77.76a497.5,497.5,0,0,0,46-35c5-4.27,5.51-12.77,2.35-18.18-3.59-6.14-10.3-8-16.94-6.89A346.2,346.2,0,0,1,711,808.92c-7.85,0-15.37,6.89-15,15S702.6,839,711,838.92Z"/><path class="cls-4" d="M711,838.92a389.39,389.39,0,0,0,62.11-5.31l-14.59-25.07c-7,6-14.51,12-20.49,16.5q-11.13,8.34-22.76,16a457.6,457.6,0,0,1-49.14,28.14,397.79,397.79,0,0,1-50.67,21,454.1,454.1,0,0,1-55.9,15.14q-6.87,1.4-13.79,2.58-3.67.63-7.35,1.2l-3.29.5c-.4.06-4.79.68-2.6.38-9.67,1.32-19.41,2.25-29.15,2.91a463,463,0,0,1-55.25.45q-12.13-.62-24.23-1.89c-3.89-.4-7.77-.87-11.64-1.37,3,.39-1.88-.26-2.82-.4q-3.39-.49-6.77-1a454.46,454.46,0,0,1-92.24-25.06q-5.26-2.06-10.49-4.23c-2.4-1,3.21,1.41-.7-.3L296.81,878l-6.06-2.7q-10.54-4.8-20.84-10.12a455.62,455.62,0,0,1-40.37-23.58q-9.89-6.48-19.43-13.45-4.25-3.11-8.4-6.29c2.34,1.79-2-1.57-2.65-2.09q-2.58-2-5.11-4.11a460.5,460.5,0,0,1-65.23-65.13q-3.73-4.56-7.35-9.22c1.87,2.4-1.23-1.64-1.64-2.18-1.31-1.74-2.61-3.5-3.9-5.26q-7-9.54-13.46-19.44A455.7,455.7,0,0,1,79.09,674.6Q73.6,664,68.67,653.18c-1.46-3.22-2.88-6.47-4.28-9.72,1.24,2.9-1-2.56-1.3-3.17q-1.26-3.07-2.47-6.18a454.6,454.6,0,0,1-25.19-92.18q-.93-5.76-1.72-11.53c.41,3-.23-1.84-.35-2.83-.28-2.29-.54-4.57-.78-6.86q-1.32-12.44-2-24.92a465.4,465.4,0,0,1,.07-49.13q.69-12.46,2-24.9c.2-1.83.41-3.65.63-5.48.14-1.14.29-2.28.43-3.41.3-2.4-.32,2.29,0-.1q.9-6.45,2-12.87a454,454,0,0,1,25.34-91.4c.73-1.86,1.48-3.71,2.23-5.56.37-.9,2.21-5.26,1-2.55,1.57-3.66,3.17-7.31,4.83-10.93q5-10.83,10.48-21.39a457.91,457.91,0,0,1,23.75-40.26q6.35-9.59,13.15-18.85c1.17-1.58,2.34-3.16,3.53-4.73l1.59-2.09c1.55-2-2.15,2.72.46-.59,2.43-3.09,4.88-6.17,7.38-9.21q14.55-17.68,30.83-33.88A460.77,460.77,0,0,1,195.47,127q2-1.65,4.1-3.28c.53-.42,4.55-3.53,2.14-1.68,3.3-2.52,6.62-5,10-7.45q9.3-6.73,18.94-13A454.86,454.86,0,0,1,271.09,78.1Q281.4,72.8,292,68c1.82-.82,3.64-1.62,5.46-2.42l3.05-1.31c-.54.23-2.59,1.07.09,0,3.7-1.52,7.4-3,11.12-4.45A454.86,454.86,0,0,1,404,35c1.81-.28,3.61-.56,5.42-.82l2.72-.39c4.37-.63-1.89.23.78-.11q6.17-.78,12.33-1.42,12.11-1.23,24.26-1.81a465,465,0,0,1,56.37.69,397.42,397.42,0,0,1,55.27,7.73A455,455,0,0,1,617,54.22a395.71,395.71,0,0,1,50.57,21.17,458.21,458.21,0,0,1,49,28.3q11.25,7.47,22.06,15.59c5.57,4.18,13.15,10.3,19.86,16l14.59-25.07c-84.24-13.8-171.34.9-245.44,43.69-65.86,38-119.74,97-150.91,166.41a371.42,371.42,0,0,0-23.24,235A367.28,367.28,0,0,0,681.65,837.72c9.77.8,19.56,1.18,29.36,1.2,7.84,0,15.36-6.91,15-15s-6.59-15-15-15c-9.8,0-19.59-.4-29.36-1.2q-6.89-.57-13.74-1.41l-2.74-.34c3.45.44-1.06-.16-1.45-.22q-3.72-.54-7.44-1.17A349.13,349.13,0,0,1,602,790.92q-6-2-11.94-4.29-3.1-1.18-6.2-2.43L580.74,783a6.83,6.83,0,0,1-1.31-.55c-8.49-3.73-16.87-7.67-25.07-12a352.47,352.47,0,0,1-45.57-28.75l-2.62-2c-.57-.43-2.88-2.22-.6-.44-1.72-1.35-3.43-2.7-5.13-4.08q-5.61-4.53-11-9.28-9.82-8.64-19-18-9.63-9.81-18.48-20.34-4.21-5-8.23-10.19c1.86,2.39-1.52-2-2-2.7q-2.16-2.89-4.26-5.82a351.86,351.86,0,0,1-28.2-46.73q-2.82-5.61-5.44-11.33c-.92-2-1.83-4-2.71-6.06-.15-.35-1.86-4.41-.57-1.3-.51-1.23-1-2.46-1.51-3.69q-5.26-13-9.46-26.4a349.58,349.58,0,0,1-12.34-54.12l-.39-2.72c.48,3.45-.12-1.08-.17-1.46-.28-2.29-.53-4.57-.77-6.86q-.74-7.25-1.18-14.52-.89-14.37-.59-28.77.29-14.62,1.77-29.2.31-3.09.69-6.17c.13-1.14.28-2.28.42-3.42-.38,3,0,0,.12-.77q1-7.11,2.34-14.17a348.22,348.22,0,0,1,14.35-53.32q2.24-6.29,4.71-12.48c.49-1.23,1-2.46,1.5-3.69.21-.51,1.12-2.66,0-.1q1.56-3.66,3.21-7.28,5.59-12.34,12.14-24.23t13.9-23.12q3.6-5.49,7.39-10.85c1.27-1.78,2.55-3.56,3.85-5.32.65-.88,1.3-1.75,2-2.62.37-.5,3.2-4.18,1.24-1.65a353.15,353.15,0,0,1,36.05-39.7q9.75-9.22,20.18-17.69c1.53-1.24,3.07-2.46,4.61-3.68,3.4-2.71-2.37,1.75,1.11-.86l2.09-1.58q5.77-4.33,11.73-8.42a352.72,352.72,0,0,1,46.69-27.06q6-2.88,12.05-5.52c-.11.05,3.89-1.66,1.87-.81s2-.82,1.89-.78c2.47-1,4.94-2,7.43-2.93q12.5-4.78,25.34-8.59,13.59-4,27.49-7,6.66-1.41,13.38-2.54,3.38-.58,6.75-1.08l2.72-.4c1.78-.25,1.81-.25.09,0l2.05-.26a356.51,356.51,0,0,1,62.83-2.19,321,321,0,0,1,35.1,3.74c6.67,1.09,13.33-.73,16.94-6.9,3.17-5.42,2.66-13.9-2.35-18.17C719.23,62.44,646.42,25.82,568.35,9.8a477.61,477.61,0,0,0-220.08,6.51c-63.6,17.22-122.83,48.08-174,89.46A472,472,0,0,0,32.92,645.18,472.56,472.56,0,0,0,303.71,913a469.69,469.69,0,0,0,204.71,29.53c80.22-6.32,158.41-32.9,225.31-77.76a497.5,497.5,0,0,0,46-35c5-4.27,5.51-12.77,2.35-18.18-3.59-6.14-10.3-8-16.94-6.89A346.2,346.2,0,0,1,711,808.92c-7.85,0-15.37,6.89-15,15S702.6,839,711,838.92Z"/></g></g></svg>