<svg xmlns="http://www.w3.org/2000/svg" viewBox="0 0 1037.11 1177.8"><defs><style>.cls-1{fill:#f4de11;}.cls-2{fill:#fff;}.cls-3{fill:#e8cf15;}.cls-4{fill:#444;}</style></defs><title>sun</title><g id="Layer_2" data-name="Layer 2"><g id="Layer_1-2" data-name="Layer 1"><circle class="cls-1" cx="518.55" cy="588.9" r="344"/><path class="cls-2" d="M555.05,931a346.48,346.48,0,0,1-36.5,1.92c-190,0-344-154-344-344s154-344,344-344a346.48,346.48,0,0,1,36.5,1.92C382.22,265,247.55,411.24,247.55,588.9S382.22,912.76,555.05,931Z"/><path class="cls-3" d="M862.55,588.9c0,177.66-134.67,323.86-307.5,342.08a341.53,341.53,0,0,1-102.5-27.33c120.75-53.38,205-174.23,205-314.75s-84.25-261.37-205-314.75a341.53,341.53,0,0,1,102.5-27.33C727.88,265,862.55,411.24,862.55,588.9Z"/><path class="cls-1" d="M657.55,588.9c0,140.52-84.25,261.37-205,314.75-120.75-53.39-205-174.23-205-314.75s84.25-261.36,205-314.75C573.3,327.53,657.55,448.38,657.55,588.9Z"/><polygon class="cls-1" points="654.04 163.4 357.06 163.4 505.55 14.91 654.04 163.4"/><path class="cls-4" d="M654.05,148.4h-297L367.67,174l50.24-50.24,80-80,18.25-18.26H495l50.24,50.25,80,80L643.44,174a15,15,0,1,0,21.21-21.22l-50.24-50.24-80-80L516.16,4.3A15.22,15.22,0,0,0,495,4.3L444.71,54.54l-80,80-18.26,18.25c-9.18,9.19-2.39,25.61,10.61,25.61h297c7.84,0,15.36-6.9,15-15S662.45,148.4,654.05,148.4Z"/><polygon class="cls-1" points="217.81 258.81 69.31 516.01 14.96 313.16 217.81 258.81"/><path class="cls-4" d="M204.85,251.24l-50.17,86.89-80,138.51-18.36,31.8L83.78,512,65.39,443.39,36.11,334.11l-6.68-24.94L19,327.63l68.63-18.39L196.86,280l24.93-6.69a15,15,0,1,0-8-28.92l-68.63,18.39L35.91,292,11,298.7A15.24,15.24,0,0,0,.5,317.15l18.39,68.63L48.17,495.06,54.85,520c3.33,12.45,21,14.73,27.41,3.59l50.17-86.9,80-138.5,18.36-31.8a15,15,0,0,0-25.91-15.14Z"/><polygon class="cls-1" points="82.31 684.31 230.81 941.51 27.96 887.15 82.31 684.31"/><path class="cls-4" d="M69.36,691.88l50.17,86.9,80,138.5,18.35,31.8,16.94-22-68.63-18.39L56.88,879.37,32,872.69l10.48,18.45,18.38-68.63L90.1,713.23l6.68-24.93c2-7.57-2.54-16.65-10.48-18.45S70,672.21,67.85,680.32L49.46,749,20.18,858.23,13.5,883.17A15.23,15.23,0,0,0,24,901.62L92.6,920l109.28,29.28L226.82,956c12.65,3.39,23.5-10.66,16.94-22L193.59,847l-80-138.5-18.36-31.8a15,15,0,0,0-25.9,15.14Z"/><polygon class="cls-1" points="383.06 1014.4 680.04 1014.4 531.55 1162.89 383.06 1014.4"/><path class="cls-4" d="M383.06,1029.4h297l-10.61-25.61L619.2,1054l-80,80L521,1152.29h21.21L491.84,1102l-79.78-79.79-18.39-18.39A15,15,0,0,0,372.45,1025l50.32,50.31,79.79,79.79L521,1173.5a15.22,15.22,0,0,0,21.21,0l50.24-50.24,80-80L690.65,1025c9.19-9.19,2.4-25.61-10.6-25.61h-297c-7.85,0-15.36,6.9-15,15S374.65,1029.4,383.06,1029.4Z"/><polygon class="cls-1" points="819.3 918.99 967.79 661.79 1022.14 864.64 819.3 918.99"/><path class="cls-4" d="M832.25,926.56l50.17-86.89,80-138.51,18.36-31.8-27.42-3.58,18.39,68.63L1001,843.69l6.68,24.94,10.48-18.46-68.63,18.39L840.25,897.84l-24.94,6.69a15,15,0,0,0,8,28.92l68.63-18.39,109.28-29.28,24.93-6.68a15.23,15.23,0,0,0,10.48-18.45L1018.22,792,988.94,682.74l-6.68-24.93c-3.34-12.45-21-14.73-27.42-3.59l-50.17,86.9-80,138.5-18.36,31.8a15,15,0,0,0,25.9,15.14Z"/><polygon class="cls-1" points="954.79 493.49 806.3 236.29 1009.14 290.64 954.79 493.49"/><path class="cls-4" d="M967.75,485.92,917.58,399l-80-138.5-18.36-31.8-16.94,22L871,269.17l109,29.21,25.12,6.73-10.48-18.45-18.42,68.73-29.2,109-6.73,25.12c-2,7.57,2.54,16.65,10.48,18.45s16.27-2.36,18.45-10.47l18.41-68.73,29.21-109,6.73-25.12a15.23,15.23,0,0,0-10.48-18.45L944.4,257.76l-109-29.2-25.12-6.73c-12.65-3.39-23.51,10.66-16.94,22l50.17,86.9,80,138.5,18.36,31.8a15,15,0,0,0,25.91-15.14Z"/><path class="cls-4" d="M877.55,588.9c-.14-73.65-22.87-146.83-65.65-206.91A363.91,363.91,0,0,0,641,251.37c-70.18-25.74-148.82-28.28-220.67-7.86-69.41,19.73-132.64,60.92-178.43,116.73A359.06,359.06,0,0,0,211.49,775c37.21,61.17,92.95,111.19,158.3,140.64A363.57,363.57,0,0,0,591.2,940.51C662,926.15,728,889.34,777.89,837.14,828,784.74,862,717.17,873,645.44a378.23,378.23,0,0,0,4.52-56.54c0-7.85-6.91-15.36-15-15s-15,6.59-15,15c0,9.32-.37,18.64-1.12,27.94q-.49,6.2-1.21,12.37c-.11.91-.23,1.82-.33,2.74-.53,4.52.46-3.05-.19,1.45-.33,2.26-.66,4.52-1,6.77a339.62,339.62,0,0,1-12.37,51.19c-2.68,8.24-5.71,16.36-9,24.39-.27.68-1.44,3.4-.28.7l-1,2.44q-1.34,3-2.71,6-2.77,6-5.76,11.9A344,344,0,0,1,786,780.67q-3.42,4.8-7,9.48c1.66-2.18.27-.35-.06.07-.81,1-1.62,2.06-2.44,3.08q-2,2.55-4.14,5.07-8.16,9.79-17,19T736.94,835q-4.4,3.91-8.92,7.69-2.5,2.09-5.07,4.14c-.75.6-5.54,4.32-3.14,2.5a350.35,350.35,0,0,1-42.83,28q-11.57,6.39-23.6,11.86-2.42,1.11-4.84,2.16c-.35.16-4.4,1.88-1.3.58l-2.45,1q-6.16,2.52-12.42,4.8a341.08,341.08,0,0,1-50.47,14.12q-6,1.18-12.08,2.17c-2.25.36-4.51.7-6.76,1-3,.43-.71.1-.1,0l-4.09.5c-9.19,1.08-18.43,1.78-27.67,2.11a348.21,348.21,0,0,1-53.64-2.19l-3.42-.42c2.86.36.47.07-.09,0-2.26-.32-4.52-.65-6.77-1q-6.72-1.08-13.4-2.44Q441,909,428.29,905.36t-24.81-8.09q-5.62-2.07-11.16-4.34c.11.05-3.91-1.63-1.89-.77s-2-.86-1.86-.82c-2-.88-4-1.78-6.05-2.71a343.72,343.72,0,0,1-44.91-24.89q-5.21-3.42-10.29-7c-1.6-1.14-3.2-2.29-4.78-3.45-.88-.65-1.76-1.3-2.63-2-.35-.26-3.48-2.64-2.13-1.6,1.72,1.32-1.67-1.31-1.58-1.24l-2.05-1.63q-2.55-2.05-5.07-4.14-5-4.19-9.88-8.57a345.22,345.22,0,0,1-35.28-36.77c-1.25-1.51-2.49-3-3.71-4.57-.53-.66-3.93-5-2.09-2.64q-4-5.21-7.76-10.55-7.59-10.73-14.33-22-6.42-10.74-12.05-21.94-2.82-5.61-5.44-11.32-1.23-2.72-2.43-5.44c0,.1-1.67-3.89-.81-1.87.67,1.59-.86-2.09-1-2.5a341,341,0,0,1-15.92-49.7q-3.07-12.89-5.13-26-.48-3-.91-6.1c-.37-2.65.42,3.61-.09-.77l-.33-2.74q-.81-6.86-1.33-13.76a350.26,350.26,0,0,1,.11-54.49q.53-6.54,1.3-13.06l.42-3.41c-.07.61-.41,2.88,0-.09.36-2.49.73-5,1.13-7.45q2.15-13.07,5.28-25.94A353.57,353.57,0,0,1,215,461.44c.2-.51,1.13-2.65,0-.09.43-1,.87-2,1.32-3,.8-1.82,1.61-3.64,2.44-5.44q2.76-6,5.76-11.9,6-11.75,12.81-23,6.48-10.65,13.72-20.82c2.28-3.2,4.63-6.36,7-9.48-1.84,2.41,1.9-2.41,2.5-3.15q2.25-2.81,4.56-5.57a346.14,346.14,0,0,1,35-36.14q4.88-4.35,9.92-8.52c1.35-1.11,2.7-2.22,4.06-3.31,1-.82,2.05-1.62,3.08-2.44a7.84,7.84,0,0,1,1.11-.85c6.66-5,13.41-9.8,20.37-14.33a342.74,342.74,0,0,1,45-24.72c2-.92,4-1.8,6-2.69.5-.22,2.65-1.12.08-.05l2.46-1q6.46-2.65,13-5,12.27-4.45,24.87-7.95,12.38-3.43,25-5.94,6.69-1.32,13.42-2.39c1.81-.28,3.61-.54,5.42-.8,4.5-.66-3.07.33,1.46-.19,1.36-.16,2.73-.34,4.1-.49a348.72,348.72,0,0,1,53.68-1.87q13.51.57,26.94,2.19l2.73.34c-3.45-.44,1.06.15,1.45.21q2.72.39,5.41.83,7.06,1.14,14.07,2.57a340.73,340.73,0,0,1,49.74,14.18c4,1.45,7.87,3,11.77,4.59.68.28,3.4,1.44.7.28l2.44,1.06c2.43,1.06,4.84,2.15,7.25,3.26q11.37,5.29,22.34,11.4,11.19,6.24,21.91,13.3,5.21,3.42,10.28,7c1.6,1.14,3.19,2.3,4.77,3.46.88.65,1.76,1.3,2.63,2,.23.18,3.67,2.81,1.12.84a344.06,344.06,0,0,1,37.84,34.15q8.58,9,16.51,18.57,2.09,2.52,4.12,5.08l1.62,2.06c2.61,3.3-1.09-1.45.46.59q4.15,5.47,8.12,11.1a344.7,344.7,0,0,1,25.91,43.47q2.82,5.61,5.42,11.33c.82,1.81,1.62,3.63,2.42,5.45.3.67,1.44,3.4.31.69.51,1.23,1,2.45,1.52,3.69q4.75,11.75,8.63,23.82A342.63,342.63,0,0,1,843.89,539c.35,2.25.69,4.51,1,6.78-.42-3.08.3,2.63.4,3.51q.75,6.53,1.25,13.08c.68,8.83,1,17.69,1,26.55,0,7.85,6.89,15.36,15,15S877.57,597.31,877.55,588.9Z"/></g></g></svg>