<svg xmlns="http://www.w3.org/2000/svg" width="9.364" height="8.323" viewBox="0 0 9.364 8.323"><path d="M9.364.39V2.471a.39.39,0,0,1-.666.276l-.58-.58L4.158,6.125a.39.39,0,0,1-.552,0l-.368-.368a.39.39,0,0,1,0-.552L7.2,1.246l-.58-.58A.39.39,0,0,1,6.893,0h2.08A.39.39,0,0,1,9.364.39ZM6.617,4.4l-.26.26a.39.39,0,0,0-.114.276V7.283H1.04v-5.2H5.332a.39.39,0,0,0,.276-.114l.26-.26a.39.39,0,0,0-.276-.666H.78a.78.78,0,0,0-.78.78V7.543a.78.78,0,0,0,.78.78H6.5a.78.78,0,0,0,.78-.78V4.678A.39.39,0,0,0,6.617,4.4Z" fill="#122e16"/></svg>