<svg xmlns="http://www.w3.org/2000/svg" width="37.201" height="49.604" viewBox="0 0 37.201 49.604"><path d="M36.65,36.668,28.91,27.9h2.967a2.2,2.2,0,0,0,2.013-1.265,2.136,2.136,0,0,0-.318-2.33L26,15.5h2.8a2.2,2.2,0,0,0,2.021-1.319,2.156,2.156,0,0,0-.411-2.333L19.73.468a1.6,1.6,0,0,0-2.259,0L6.787,11.849a2.157,2.157,0,0,0-.411,2.333A2.2,2.2,0,0,0,8.4,15.5h2.8l-7.57,8.807a2.139,2.139,0,0,0-.317,2.329A2.2,2.2,0,0,0,5.323,27.9H8.291L.551,36.668a2.142,2.142,0,0,0-.345,2.35A2.247,2.247,0,0,0,2.242,40.3H15.5v2.369l-2.934,4.689A1.55,1.55,0,0,0,13.952,49.6h9.3a1.55,1.55,0,0,0,1.386-2.244L21.7,42.671V40.3H34.96A2.247,2.247,0,0,0,37,39.018,2.142,2.142,0,0,0,36.65,36.668Z" transform="translate(0 0.001)" fill="#122e16"/></svg>