<svg xmlns="http://www.w3.org/2000/svg" viewBox="0 0 1785.58 350.52"><defs><style>.cls-1{fill:#ddc74a;}.cls-2{fill:#444;}.cls-3{fill:#b29e3d;}.cls-4{fill:#fff;}.cls-5{fill:#a59732;}.cls-6{fill:#7f7328;}</style></defs><g id="Layer_2" data-name="Layer 2"><g id="Layer_1-2" data-name="Layer 1"><path class="cls-1" d="M1768.47,31.41,1467.65,332.23a9.61,9.61,0,0,1-6.81,2.82H164.31a9.64,9.64,0,0,1-8.28-4.71l-51.76-87.07L16.11,95A9.63,9.63,0,0,1,24,80.44L1761.3,15A9.63,9.63,0,0,1,1768.47,31.41Z"/><path class="cls-2" d="M1757.87,20.8l-119.1,119.09L1473.62,305.05c-4.78,4.77-11.74,9.77-15.46,15.45-2.18,3.34.5-3.1,2.53-.45-.15-.2-1.7,0-2,0-9.72-1.24-20.43,0-30.21,0H177.91c-3.64,0-7.54-.4-11.16,0-.48.05-1.81-.28-2.21,0,0,0-.14,0-.18,0h-.05q-2.69,0,4.65,2.68c.17-.62-1.92-3.23-2.25-3.79l-49.53-83.32L67.35,151.81l-30-50.49C35.17,97.67,33.06,92,30,89c-1.85-1.82.5-2.6-1,1.23-.46,1.14-1.62,7.55-4.93,5.22,0,0,.13,0,.17,0,1.05.53,4-.15,5.11-.19l11.8-.45L83.3,93.21,232,87.6l214.15-8.07L700.7,69.94l273.24-10.3,264.38-10,234.61-8.84,177.74-6.7,98.68-3.72c3-.11,6.14,0,9.12-.34,8.26-1.08-7.77-.48-.6-9.28-5.11,6.28-6.15,15.07,0,21.22,5.27,5.27,16.07,6.31,21.21,0C1793,25,1783.65.11,1760.46,0c-2.37,0-4.76.18-7.12.27l-34,1.28L1581.52,6.74,1373,14.6l-254.32,9.59L842.81,34.58,571.46,44.81,330.73,53.88l-185.85,7-106,4C34,65.06,29,65,24,65.44,5.34,67-5.82,85.49,3.16,102.55c1.33,2.53,2.94,4.94,4.39,7.39l27.33,46L138.2,329.7c6.37,10.72,12.72,19.7,26.82,20.35,2.83.13,5.69,0,8.53,0H1367.7c30.43,0,61.08,1.06,91.49,0,15.54-.54,24.32-12.47,34.46-22.6L1565,256.1,1744.56,76.53,1779.08,42C1792.75,28.35,1771.54,7.13,1757.87,20.8Z"/><path class="cls-1" d="M1768.47,31.41,1467.65,332.23a9.61,9.61,0,0,1-6.81,2.82H164.31a9.64,9.64,0,0,1-8.28-4.71l-51.76-87.07L16.11,95A9.63,9.63,0,0,1,24,80.44L1761.3,15A9.63,9.63,0,0,1,1768.47,31.41Z"/><path class="cls-3" d="M1768.47,31.41,1467.65,332.23a9.61,9.61,0,0,1-6.81,2.82h-145a9.61,9.61,0,0,0,6.81-2.82L1623.47,31.41a9.53,9.53,0,0,0,1.71-11.31L1761.3,15A9.63,9.63,0,0,1,1768.47,31.41Z"/><path class="cls-4" d="M83,80.44A9.63,9.63,0,0,0,75.11,95l88.16,148.29L215,330.34a9.64,9.64,0,0,0,8.28,4.71h-59a9.64,9.64,0,0,1-8.28-4.71l-51.76-87.07L16.11,95A9.63,9.63,0,0,1,24,80.44"/><path class="cls-5" d="M1649.23,150.65,1467.65,332.23a9.61,9.61,0,0,1-6.81,2.82H164.31a9.64,9.64,0,0,1-8.28-4.71l-51.76-87.07c15.42-7.57,26.58-21.72,36.93-37.11,20.27-30.14,37.4-65.11,77.17-65.11,69.88,0,69.88,108,139.76,108s69.89-108,139.77-108,69.89,108,139.77,108,69.88-108,139.76-108,69.89,108,139.77,108,69.89-108,139.77-108,69.88,108,139.77,108,69.88-108,139.77-108c49.1,0,63.7,53.33,92.28,85,12.11,13.41,26.71,23,47.49,23,69.89,0,69.89-108,139.77-108C1629.69,141.05,1640.36,144.7,1649.23,150.65Z"/><path class="cls-6" d="M1649.23,150.65,1467.65,332.23a9.61,9.61,0,0,1-6.81,2.82h-145a9.61,9.61,0,0,0,6.81-2.82l106.14-106.14c12.11,13.41,26.71,23,47.49,23,69.89,0,69.89-108,139.77-108C1629.69,141.05,1640.36,144.7,1649.23,150.65Z"/><path class="cls-4" d="M223.31,335.05h-59a9.64,9.64,0,0,1-8.28-4.71l-51.76-87.07c15.42-7.57,26.58-21.72,36.93-37.11l22.07,37.11L215,330.34A9.64,9.64,0,0,0,223.31,335.05Z"/><path class="cls-2" d="M1638.63,140l-125.4,125.4-35.16,35.16c-6.37,6.37-13.59,12.47-19.38,19.38-3.31,3.95.31-2,2.09.07-.13-.16-1.14,0-1.33,0-2.53-.48-5.61,0-8.17,0H171.78c-1.34,0-5.61-.76-6.77,0-2.09,1.38,4.11.49,3.91,2.61.21-2.29-5.08-8.54-6.2-10.43l-28.47-47.9-17-28.63-5.38,20.52c24.07-12.43,38.37-36.42,52.69-58.37,10.19-15.61,22-34.43,41-40a44,44,0,0,1,25.07-.17c4.84,1.35,4,1,8.34,3.39,1.45.8,2.82,1.69,4.22,2.55,3.3,2.06.78.21,3.71,2.78,12.63,11,19.08,21.78,28.44,36.22,19.33,29.84,41.51,59.9,80.35,61.38,39.48,1.5,63.67-28.05,83.22-58.14,4.47-6.87,8.85-13.79,13.6-20.46a101.79,101.79,0,0,1,14.29-16.62c4.07-3.81,11-8.4,14.76-9.76,8.62-3.08,13.44-3.7,22.88-2.65-2.43-.27,3.09.62,3.58.74,1.91.46,3.76,1.06,5.63,1.66.41.14,2.69,1,.42.09.65.27,1.3.58,1.93.9,1.88,1,3.74,2,5.54,3.1.44.28,4.87,3.38,2.71,1.74,1.5,1.14,2.93,2.41,4.32,3.69a100.54,100.54,0,0,1,8.49,8.9,71.2,71.2,0,0,1,5.44,7c2.68,3.72,5.24,7.52,7.75,11.35,4.52,6.86,8.87,13.82,13.52,20.59,9.81,14.31,20.83,28.21,35.81,37.41,16.29,10,36.13,12.64,54.71,8.73,35.85-7.53,54.34-42.05,73-69.93,8.14-12.17,17.28-24.24,29-30.9a44,44,0,0,1,17.88-5.28c2.2-.11,4.41-.11,6.6,0,1.07.05,2.14.13,3.2.24-2.26-.25.27,0,.62.12,2,.37,3.9.82,5.82,1.38.93.28,1.84.6,2.77.9,2.53.83-.36-.26,1.06.38,13.16,6,22.42,17.21,30.42,28.73,10,14.45,18.81,29.69,29.9,43.39,10.69,13.21,24,24.13,40.38,29.45,18.31,6,39.06,3.84,56.13-4.79,15.55-7.86,27.11-21.57,37.07-35.47,4.92-6.87,9.44-14,14-21.08,2.09-3.22,4.2-6.43,6.36-9.61,1.14-1.67,2.3-3.34,3.48-5,.4-.56,3.85-5.18,2.6-3.58a91.65,91.65,0,0,1,16.09-16.6c-1.87,1.43,1.93-1.25,2.71-1.74,1.59-1,3.24-1.91,4.9-2.79.83-.43,1.71-.85,2.57-1.21-2.27,1,0,0,.42-.09,2.1-.69,4.2-1.34,6.36-1.82a47.27,47.27,0,0,1,20.86.53,54.16,54.16,0,0,1,5.54,1.79c-2.52-1,2.39,1.19,2.88,1.46q2.17,1.17,4.25,2.51c.79.51,1.56,1,2.33,1.58,1.3.91-1.15-1,.89.66,13.17,10.9,19.69,22,29.1,36.49,9.07,14,18.21,28.53,30.38,40.08,28.38,26.93,70.52,29,101,4.22,13.07-10.64,22.71-25.13,31.83-39.12,9.33-14.32,16.33-26.43,27.68-37.39a48.6,48.6,0,0,1,6.83-5.74c1.59-1,3.14-2,4.8-3,1-.55,5.63-2.62,3.5-1.8,8.52-3.3,12.9-3.67,22-3a13.1,13.1,0,0,1,3.7.55c1.93.43,3.83.95,5.72,1.53a32.93,32.93,0,0,1,8.67,4.18,28.25,28.25,0,0,1,6.57,4.84,98.31,98.31,0,0,1,9.07,9.3q1.93,2.25,3.75,4.57c-1.27-1.63,1.36,1.86,1.72,2.35,2.54,3.5,5,7.07,7.35,10.68,4.67,7.06,9.16,14.24,13.93,21.24,9.79,14.36,20.75,28.3,35.64,37.67,32.55,20.49,73.16,10.33,97.64-17.36,11.45-12.95,20.31-27.85,29.84-42.19,2.25-3.39,4.53-6.75,6.92-10a82.26,82.26,0,0,1,6.44-8c5.48-6.21,10-10.27,15.28-13.41a42.51,42.51,0,0,1,17.48-5.89c11.17-.77,21.09,1.3,30.52,7.37,16.28,10.49,31.33-15.47,15.14-25.9-19.42-12.52-45.54-15.38-67.12-6.82-17.46,6.93-30.26,19.76-41.4,34.51-10,13.23-18.13,27.75-27.88,41.15a76.59,76.59,0,0,1-6,7.48,96,96,0,0,1-8.6,8.75c-3.63,3.21-11,7.72-15.24,9-7.11,2.18-15.3,2.82-20.69,1.94-9-1.45-12-3-19.58-8-.35-.23-2.3-1.66-.37-.18-.74-.57-1.48-1.18-2.19-1.8-1.43-1.26-2.84-2.53-4.2-3.86a113.21,113.21,0,0,1-8.31-9.21c-1.35-1.66-3-3.84-5.3-7.17-2.64-3.76-5.18-7.6-7.69-11.45-19.42-29.79-39.89-61.5-78.49-65.55-39.56-4.15-65.61,23.69-85.49,53.91-4.52,6.86-8.88,13.82-13.52,20.59-5,7.3-7.39,10.74-13.82,17.34-6.16,6.33-8.72,8.43-16.8,12.35-2.67,1.29-1,.4-.36.17-.9.35-1.81.69-2.73,1-1.89.58-3.79,1.1-5.72,1.52a13.62,13.62,0,0,1-3.7.56,70,70,0,0,1-7.39.13,42.87,42.87,0,0,1-18.7-5.31c-1.64-.93-3.19-2-4.76-3-.35-.23-2.3-1.66-.37-.18-.56-.43-1.11-.88-1.64-1.34a101.87,101.87,0,0,1-8.76-8.5c-5.59-6.16-8.32-10.17-13.48-17.87-4.71-7-9.19-14.23-13.92-21.26-9.88-14.7-20.8-28.93-35.74-38.81-16-10.57-35.58-13.54-54.26-10.28-36.26,6.32-55.41,40.41-74,68.43-8.34,12.59-17.56,25.22-29.07,32.11a44.85,44.85,0,0,1-39,3.05C889,226.3,878.22,214,870.46,202.84,860.54,188.61,851.86,173.6,841,160s-24.44-25.15-41.3-30.61c-18.34-5.94-39-3.84-56.14,4.79-15.54,7.85-27.11,21.57-37.06,35.47-4.92,6.86-9.44,14-14,21.08-2.23,3.43-4.47,6.86-6.79,10.24-1,1.46-2,2.92-3.05,4.36-.4.56-3.84,5.18-2.6,3.57-4.42,5.69-11.26,13-15.69,16.29a43.58,43.58,0,0,1-18.09,8.13,46.35,46.35,0,0,1-20.83-.89c-1.63-.46-3.26-1-4.84-1.6,2.21.86-2-1-2.88-1.45-1.66-.89-3.24-1.9-4.83-2.9-3.31-2.07-.78-.19-3.72-2.77-12.62-11-19.09-21.79-28.44-36.22-9.17-14.16-18.48-28.92-31-40.41-29.08-26.67-71.53-27.54-101.54-1.89-12.84,11-22.33,25.66-31.45,39.71-9.5,14.62-16.23,26.31-28.52,37.4-3.64,3.28-2.55,2.46-6.5,5-1.59,1-3.24,1.9-4.91,2.78-3.43,1.82-.59.66-4.36,1.77-1.9.56-3.78,1.1-5.72,1.52-1,.22-2,.41-3,.55.36-.05,1.9-.22.1-.07a64.88,64.88,0,0,1-6.54.25c-.79,0-6.85-.46-4.78-.18a51.06,51.06,0,0,1-11.45-3c2.36.92-2.31-1.15-2.88-1.45-1.87-1-3.62-2.16-5.42-3.29a47.65,47.65,0,0,1-6.82-5.75,109.25,109.25,0,0,1-8.35-9.12c-1.92-2.31-3.13-4-5.77-7.75-2.5-3.55-4.89-7.17-7.27-10.81-4.62-7.07-9.12-14.24-14-21.16-9.88-14.07-21.2-27.88-36.51-36.32-18-9.94-40.91-12.18-60.3-5-23.09,8.56-38.39,27.37-51.67,47.26-12.78,19.13-24.15,41.9-45.4,52.88-7.16,3.7-9.36,13.83-5.38,20.52l46.52,78.26c6.4,10.75,12.44,20.26,26.77,20.95,2,.09,3.95,0,5.91,0H1438.27c7.22,0,14.48.23,21.69,0,16.52-.54,28.5-17.42,39.32-28.24l149-149,11.6-11.59C1673.51,147.59,1652.3,126.37,1638.63,140Z"/><path class="cls-2" d="M1757.87,20.8l-119.1,119.09L1473.62,305.05c-4.78,4.77-11.74,9.77-15.46,15.45-2.18,3.34.5-3.1,2.53-.45-.15-.2-1.7,0-2,0-9.72-1.24-20.43,0-30.21,0H177.91c-3.64,0-7.54-.4-11.16,0-.48.05-1.81-.28-2.21,0,0,0-.14,0-.18,0h-.05q-2.69,0,4.65,2.68c.17-.62-1.92-3.23-2.25-3.79l-49.53-83.32L67.35,151.81l-30-50.49C35.17,97.67,33.06,92,30,89c-1.85-1.82.5-2.6-1,1.23-.46,1.14-1.62,7.55-4.93,5.22,0,0,.13,0,.17,0,1.05.53,4-.15,5.11-.19l11.8-.45L83.3,93.21,232,87.6l214.15-8.07L700.7,69.94l273.24-10.3,264.38-10,234.61-8.84,177.74-6.7,98.68-3.72c3-.11,6.14,0,9.12-.34,8.26-1.08-7.77-.48-.6-9.28-5.11,6.28-6.15,15.07,0,21.22,5.27,5.27,16.07,6.31,21.21,0C1793,25,1783.65.11,1760.46,0c-2.37,0-4.76.18-7.12.27l-34,1.28L1581.52,6.74,1373,14.6l-254.32,9.59L842.81,34.58,571.46,44.81,330.73,53.88l-185.85,7-106,4C34,65.06,29,65,24,65.44,5.34,67-5.82,85.49,3.16,102.55c1.33,2.53,2.94,4.94,4.39,7.39l27.33,46L138.2,329.7c6.37,10.72,12.72,19.7,26.82,20.35,2.83.13,5.69,0,8.53,0H1367.7c30.43,0,61.08,1.06,91.49,0,15.54-.54,24.32-12.47,34.46-22.6L1565,256.1,1744.56,76.53,1779.08,42C1792.75,28.35,1771.54,7.13,1757.87,20.8Z"/></g></g></svg>