<svg xmlns="http://www.w3.org/2000/svg" viewBox="0 0 1671.9 1207.43"><defs><style>.cls-1,.cls-7{fill:#444;}.cls-2{fill:#e4f4e6;}.cls-3{fill:#c0ccc1;}.cls-4{fill:#ff0;}.cls-5{fill:#f45d7d;}.cls-6{fill:#fff;}.cls-10,.cls-7{stroke:#444;stroke-miterlimit:10;}.cls-7{stroke-width:3px;}.cls-8{fill:#bf4b6a;}.cls-9{fill:#f7bcc9;}.cls-10{fill:none;stroke-linecap:round;stroke-width:18px;}</style></defs><g id="Layer_2" data-name="Layer 2"><g id="Layer_1-2" data-name="Layer 1"><path class="cls-1" d="M315.4,680.46c1.65-1.64,3.33-3.26,5-4.84,1.81.67,3.61,1.35,5.39,2.06Z"/><path class="cls-2" d="M588,607.56l-15,4-20.57,5.5A247.19,247.19,0,0,0,345,655.38q-9.19,6.63-17.74,14.07-3.47,3-6.82,6.17A241.7,241.7,0,0,0,76.14,722.08q-6.24,5.58-12.09,11.57-7.59,7.79-14.47,16.23L32.26,684.42l-11.83-113,25.36-91.65,15.35-55.46,5.28-19.1,5.76-9.62,64.33-107.54,19.91-33.28,30.66-20.23,96.79-63.86,143.21-30.21-6,42.48-12.42,88.25,1.1,5.54,30.44,153.44,88.32,145.32,4.31,7.09,7.06,3.19Z"/><path class="cls-1" d="M585.38,597.92l-35.58,9.51h5.31c-65.65-17.12-136.68-7.91-195.33,26.4a263,263,0,0,0-46.43,34.72l9.73-2.57c-76-27.73-163.5-16.7-229.76,29.84a255.56,255.56,0,0,0-50.81,47l16.72,4.42-14.9-56.3c-.74-2.8-1.17-6-2.3-8.71-.72-1.7.3,3.54.2,1.86,0-.76-.16-1.52-.24-2.28l-2.52-24.06L32,586.38l-1.12-10.67c-.11-1.11,0-5.87-.62-3s0,.61.17,0c.4-1.17.67-2.4,1-3.59l3.28-11.86q15.18-54.87,30.37-109.75Q68,437,70.94,426.45l4.2-15.22a21.29,21.29,0,0,0,.78-2.81c.21-1.82-1.77,2.84-.51,1.27,1.74-2.16,3-5,4.41-7.36l22.57-37.73L160.19,268l4.87-8.13-3.59,3.59,104.55-69c7.22-4.77,14.85-9.21,21.79-14.38,2.7-2-3.32.49-.05,0,2.67-.39,5.34-1.13,8-1.69l73.59-15.52,60.41-12.74-12.3-12.3q-7.81,55.5-15.62,111C400.89,255.4,400,262,399,268.54c-.72,5.28,1.16,11.19,2.22,16.48l11.87,59.89L427,415c1.12,5.6,1.93,11.37,3.36,16.91.79,3.06,2.51,5.52,4.14,8.2l69.18,113.83c6.51,10.7,12.82,21.56,19.54,32.14,4.15,6.54,12.91,9,19.82,12.09L575.8,613,583,616.2c4.91,2.22,10.76,1.41,13.68-3.59,2.51-4.29,1.36-11.44-3.59-13.68q-27.58-12.48-55.18-25l3.59,3.59q-38.43-63.21-76.84-126.43l-14.4-23.7a13,13,0,0,0-1.2-2c-1-1.17.61,3.26.74,1.67.17-2.21-1-5.22-1.46-7.37l-16.49-83.08q-6.75-34.06-13.51-68.13v5.31l13.89-98.68,4.51-32.05c1.07-7.63-4.22-14-12.3-12.3l-83.76,17.67-48.93,10.32c-3.37.71-6.9,1.2-10.21,2.15-2.87.83-5.25,2.76-7.72,4.39l-85.06,56.12-26.11,17.22c-5.18,3.42-12,6.65-15.43,12-4.48,7-8.57,14.33-12.85,21.49L92.9,341.5l-25.75,43c-1.41,2.36-2.83,4.72-4.24,7.09-2.1,3.51-4.81,7.06-6.14,11-1.16,3.41-1.93,7-2.89,10.47q-9.6,34.71-19.21,69.4l-14.1,51-6.9,24.93c-1.06,3.82-2.59,7.78-3.06,11.73-.4,3.44.43,7.12.79,10.55l2.43,23.21,6.08,58c.93,8.91,1,18.58,3.27,27.29l13.15,49.69,3.61,13.65c1.79,6.76,11.84,10.36,16.72,4.41,47.63-58.09,120-90.27,195.13-85.73a233.91,233.91,0,0,1,66,14c3.36,1.22,7.26-.27,9.73-2.58a236.19,236.19,0,0,1,178.89-63.22,227.65,227.65,0,0,1,35.33,5.26c4.52,1,9.12,2.89,13.76,1.89,2.22-.48,4.41-1.18,6.6-1.77l28.61-7.64C603.12,613.89,597.85,594.59,585.38,597.92Z"/><path class="cls-3" d="M411,192.64c-1.35,1.3-2.76,2.54-4.09,3.86s-2.73,2.58-4.11,3.84-2.72,2.58-4.08,3.87c-2.75,2.56-5.35,5.26-8,7.9l-3.88,4.07-1.94,2L383,220.3c-5.09,5.52-9.93,11.26-14.67,17.08s-9.19,11.87-13.54,18a359.32,359.32,0,0,0-61.25,259c.51,3.8,1.22,7.57,1.84,11.37l1.08,5.66.55,2.83.61,2.82,1.23,5.64,1.35,5.62.68,2.81.74,2.8,1.5,5.59,1.63,5.56.81,2.79.87,2.77,1.76,5.53,1.89,5.5.95,2.75c.32.92.68,1.82,1,2.73l2.05,5.45c.69,1.81,1.34,3.65,2.07,5.45l2.26,5.38,2.25,5.39c.75,1.8,1.61,3.54,2.41,5.32l2.45,5.32c.41.88.8,1.78,1.24,2.65l1.32,2.61,2.63,5.24c.89,1.74,1.73,3.52,2.7,5.21l5.67,10.31q2.85,5,5.86,9.86-9.19,6.63-17.74,14.07-4.26-5.18-8.31-10.54c-2.49-3.36-4.92-6.78-7.39-10.19-1.25-1.68-2.37-3.46-3.55-5.2l-3.49-5.25-1.74-2.64c-.58-.88-1.11-1.79-1.66-2.68l-3.28-5.4c-1.08-1.81-2.23-3.59-3.25-5.42l-3.08-5.53-3.06-5.55c-1-1.85-1.92-3.76-2.88-5.64l-2.86-5.66c-.47-.94-1-1.88-1.41-2.84L279.94,594l-2.65-5.77-2.52-5.83-1.26-2.92-1.19-3L270,570.65a371.71,371.71,0,0,1-15-48.82c-2-8.31-3.54-16.72-4.95-25.17-.65-4.23-1.3-8.47-1.79-12.72s-1-8.52-1.39-12.79c-.21-2.14-.34-4.28-.51-6.42s-.32-4.28-.4-6.43l-.31-6.43-.17-6.45-.07-3.22V439c0-2.15,0-4.3,0-6.45.12-4.3.18-8.61.44-12.9a378,378,0,0,1,6.09-51.35c.84-4.23,1.67-8.47,2.66-12.68s2-8.4,3-12.6c2.23-8.35,4.61-16.67,7.43-24.86a378,378,0,0,1,78.37-133.85l2.18-2.42,2.24-2.37,4.48-4.74c2.48-2.47,4.92-5,7.43-7.44a701.69,701.69,0,0,0-89.55,53.24l-5.68,4.08q-2.84,2-5.64,4.1c-1.87,1.39-3.76,2.74-5.61,4.15s-3.67,2.86-5.53,4.24-3.67,2.85-5.51,4.28-3.67,2.84-5.44,4.34l-5.42,4.37c-1.8,1.47-3.55,3-5.33,4.48l-2.66,2.24-2.63,2.28-5.26,4.56c-3.42,3.14-6.9,6.2-10.23,9.44-6.74,6.38-13.25,13-19.6,19.77A454.07,454.07,0,0,0,78.74,487.3a481.31,481.31,0,0,0-11.11,55.77l-.89,7.09c-.15,1.19-.31,2.37-.44,3.56l-.37,3.56-.75,7.14-.58,7.16-.29,3.58-.17,3.59-.39,7.19-.2,3.6c-.08,1.2-.14,2.41-.15,3.61l-.12,7.21-.15,7.23c0,2.41.06,4.81.09,7.23.09,4.82.06,9.67.36,14.49l.32,7.26c.11,2.42.18,4.86.42,7.27.42,4.83.76,9.68,1.23,14.53s1.19,9.66,1.7,14.53,1.41,9.67,2.1,14.53q2.4,14.51,5.58,29l.77,3.63.39,1.82,0,.21q-6.24,5.58-12.09,11.57-2.22-6-4.27-12.15a455.72,455.72,0,0,1-15.55-59,469.37,469.37,0,0,1-7.45-60.59A459.31,459.31,0,0,1,61.14,424.32q5-14.54,11-28.72,6.46-15.27,14.08-30.05a460.57,460.57,0,0,1,31.42-52.33c3-4.14,5.86-8.33,9-12.37l2.28-3.06,1.15-1.53,1.17-1.5,4.72-6,.55-.69c1.4-1.76,2.86-3.47,4.28-5.22l2.43-2.94c.81-1,1.66-1.94,2.49-2.9l5-5.78,5.13-5.66q14.86-16.25,31.25-31l96.79-63.86,143.21-30.21-6,42.48c-.65.62-1.29,1.23-1.92,1.86-1.34,1.33-2.7,2.63-4.07,3.92S412.41,191.36,411,192.64Z"/><path class="cls-3" d="M440.22,430.19l88.32,145.32-.14-.13-4.66-4.51c-.77-.76-1.56-1.5-2.32-2.27l-2.28-2.31c-1.51-1.54-3-3.07-4.54-4.64-3-3.16-6-6.28-8.8-9.53-1.43-1.63-2.91-3.21-4.3-4.87l-4.2-5c-5.5-6.69-10.87-13.48-15.92-20.52l-1.9-2.63c-.63-.88-1.24-1.78-1.85-2.67l-3.69-5.35-3.56-5.43c-.59-.91-1.19-1.81-1.77-2.72l-1.71-2.76a381.43,381.43,0,0,1-57.76-196.78c0-8.63.09-17.27.59-25.89,0-.27,0-.53,0-.8Z"/><path class="cls-3" d="M588,607.56l-15,4a382.49,382.49,0,0,1-33.11-25.78Z"/><path class="cls-1" d="M585.38,597.92l-35.58,9.51h5.31c-65.65-17.12-136.68-7.91-195.33,26.4a263,263,0,0,0-46.43,34.72l9.73-2.57c-76-27.73-163.5-16.7-229.76,29.84a255.56,255.56,0,0,0-50.81,47l16.72,4.42-14.9-56.3c-.74-2.8-1.17-6-2.3-8.71-.72-1.7.3,3.54.2,1.86,0-.76-.16-1.52-.24-2.28l-2.52-24.06L32,586.38l-1.12-10.67c-.11-1.11,0-5.87-.62-3s0,.61.17,0c.4-1.17.67-2.4,1-3.59l3.28-11.86q15.18-54.87,30.37-109.75Q68,437,70.94,426.45l4.2-15.22a21.29,21.29,0,0,0,.78-2.81c.21-1.82-1.77,2.84-.51,1.27,1.74-2.16,3-5,4.41-7.36l22.57-37.73L160.19,268l4.87-8.13-3.59,3.59,104.55-69c7.22-4.77,14.85-9.21,21.79-14.38,2.7-2-3.32.49-.05,0,2.67-.39,5.34-1.13,8-1.69l73.59-15.52,60.41-12.74-12.3-12.3q-7.81,55.5-15.62,111C400.89,255.4,400,262,399,268.54c-.72,5.28,1.16,11.19,2.22,16.48l11.87,59.89L427,415c1.12,5.6,1.93,11.37,3.36,16.91.79,3.06,2.51,5.52,4.14,8.2l69.18,113.83c6.51,10.7,12.82,21.56,19.54,32.14,4.15,6.54,12.91,9,19.82,12.09L575.8,613,583,616.2c4.91,2.22,10.76,1.41,13.68-3.59,2.51-4.29,1.36-11.44-3.59-13.68q-27.58-12.48-55.18-25l3.59,3.59q-38.43-63.21-76.84-126.43l-14.4-23.7a13,13,0,0,0-1.2-2c-1-1.17.61,3.26.74,1.67.17-2.21-1-5.22-1.46-7.37l-16.49-83.08q-6.75-34.06-13.51-68.13v5.31l13.89-98.68,4.51-32.05c1.07-7.63-4.22-14-12.3-12.3l-83.76,17.67-48.93,10.32c-3.37.71-6.9,1.2-10.21,2.15-2.87.83-5.25,2.76-7.72,4.39l-85.06,56.12-26.11,17.22c-5.18,3.42-12,6.65-15.43,12-4.48,7-8.57,14.33-12.85,21.49L92.9,341.5l-25.75,43c-1.41,2.36-2.83,4.72-4.24,7.09-2.1,3.51-4.81,7.06-6.14,11-1.16,3.41-1.93,7-2.89,10.47q-9.6,34.71-19.21,69.4l-14.1,51-6.9,24.93c-1.06,3.82-2.59,7.78-3.06,11.73-.4,3.44.43,7.12.79,10.55l2.43,23.21,6.08,58c.93,8.91,1,18.58,3.27,27.29l13.15,49.69,3.61,13.65c1.79,6.76,11.84,10.36,16.72,4.41,47.63-58.09,120-90.27,195.13-85.73a233.91,233.91,0,0,1,66,14c3.36,1.22,7.26-.27,9.73-2.58a236.19,236.19,0,0,1,178.89-63.22,227.65,227.65,0,0,1,35.33,5.26c4.52,1,9.12,2.89,13.76,1.89,2.22-.48,4.41-1.18,6.6-1.77l28.61-7.64C603.12,613.89,597.85,594.59,585.38,597.92Z"/><path class="cls-4" d="M325.82,677.68l-10.42,2.78c1.65-1.64,3.33-3.26,5-4.84C322.24,676.29,324,677,325.82,677.68Z"/><path class="cls-4" d="M325.82,677.68l-10.42,2.78c1.65-1.64,3.33-3.26,5-4.84C322.24,676.29,324,677,325.82,677.68Z"/><path class="cls-5" d="M791.18,680.93a349.11,349.11,0,0,1-43.41,1.45,365.88,365.88,0,0,1-155.69-40,379.61,379.61,0,0,1-84.92-58.64l-4.76-4.4-4.66-4.51c-.77-.76-1.56-1.5-2.32-2.27l-2.28-2.31c-1.51-1.54-3.05-3.07-4.54-4.64-3-3.16-6-6.28-8.8-9.53-1.43-1.63-2.91-3.21-4.3-4.87l-4.2-5c-5.5-6.69-10.87-13.48-15.92-20.52l-1.9-2.63c-.63-.88-1.24-1.78-1.85-2.67l-3.69-5.35-3.56-5.43c-.59-.91-1.19-1.81-1.77-2.72l-1.71-2.76a381.43,381.43,0,0,1-57.76-196.78c0-8.63.09-17.27.59-25.89s1.24-17.21,2.36-25.76l.4-3.21.46-3.2,1-6.39c.75-4.25,1.4-8.51,2.29-12.72,1.63-8.46,3.66-16.83,5.87-25.15l1.73-6.21c.57-2.07,1.23-4.12,1.85-6.18,1.21-4.12,2.6-8.19,4.1-12.22.45-1.17.93-2.34,1.42-3.5-2.61,2.69-5.3,5.24-7.92,7.86-1.34,1.34-2.73,2.62-4.07,3.95s-2.7,2.63-4.07,3.92-2.7,2.62-4.08,3.9-2.76,2.54-4.09,3.86-2.73,2.58-4.11,3.84l-.74.69c-1.12,1.05-2.23,2.12-3.34,3.18-2.75,2.56-5.35,5.26-8,7.9l-3.88,4.07-1.94,2L357,224.3c-5.09,5.52-9.93,11.26-14.67,17.08s-9.19,11.87-13.54,18a359.32,359.32,0,0,0-61.25,259c.51,3.8,1.22,7.57,1.84,11.37l1.08,5.66.55,2.83.61,2.82,1.23,5.64,1.35,5.62.68,2.81.74,2.8,1.5,5.59,1.63,5.56.81,2.79.87,2.77,1.76,5.53,1.89,5.5.95,2.75c.32.92.68,1.82,1,2.73l2.05,5.45c.69,1.81,1.34,3.65,2.07,5.45l2.26,5.38,2.25,5.39c.75,1.8,1.61,3.54,2.41,5.32l2.45,5.32c.41.88.8,1.78,1.24,2.65l1.32,2.61,2.63,5.24c.89,1.74,1.73,3.52,2.7,5.21l5.67,10.31A372.23,372.23,0,0,0,339.18,689a389,389,0,0,0,31,36.36,439.47,439.47,0,0,0,35.54,32.91l-.36.55a314.31,314.31,0,0,1-41.68-26,336.42,336.42,0,0,1-26.48-21.61q-5.73-5.17-11.26-10.61a358.2,358.2,0,0,1-33-37.65c-2.49-3.36-4.92-6.78-7.39-10.19-1.25-1.68-2.37-3.46-3.55-5.2l-3.49-5.25-1.74-2.64c-.58-.88-1.11-1.79-1.66-2.68l-3.28-5.4c-1.08-1.81-2.23-3.59-3.25-5.42l-3.08-5.53-3.06-5.55c-1-1.85-1.92-3.76-2.88-5.64l-2.86-5.66c-.47-.94-1-1.88-1.41-2.84L253.94,598l-2.65-5.77-2.52-5.83-1.26-2.92-1.19-3L244,574.65a371.71,371.71,0,0,1-15-48.82c-2-8.31-3.54-16.72-4.95-25.17-.65-4.23-1.3-8.47-1.79-12.72s-1-8.52-1.39-12.79c-.21-2.14-.34-4.28-.51-6.42s-.32-4.28-.4-6.43l-.31-6.43-.17-6.45-.07-3.22V443c0-2.15,0-4.3,0-6.45.12-4.3.18-8.61.44-12.9a378,378,0,0,1,6.09-51.35c.84-4.23,1.67-8.47,2.66-12.68s2-8.4,3-12.6c2.23-8.35,4.61-16.67,7.43-24.86a378,378,0,0,1,78.37-133.85l2.18-2.42,2.24-2.37,4.48-4.74c2.48-2.47,4.92-5,7.43-7.44q-21,10.51-40.92,22.11-25.16,14.64-48.63,31.13l-5.68,4.08q-2.83,2-5.64,4.1c-1.87,1.39-3.76,2.74-5.61,4.15s-3.67,2.86-5.53,4.24-3.67,2.85-5.51,4.28-3.67,2.84-5.44,4.34l-5.42,4.37c-1.8,1.47-3.55,3-5.33,4.48l-2.66,2.24-2.63,2.28-5.26,4.56c-3.42,3.14-6.9,6.2-10.23,9.44-6.74,6.38-13.25,13-19.6,19.77A454.07,454.07,0,0,0,52.74,491.3a481.31,481.31,0,0,0-11.11,55.77l-.89,7.09c-.15,1.19-.31,2.37-.44,3.56l-.37,3.56-.75,7.14-.58,7.16-.29,3.58-.17,3.59-.39,7.19-.2,3.6c-.08,1.2-.14,2.41-.15,3.61l-.12,7.21-.15,7.23c0,2.41.06,4.81.09,7.23.09,4.82.06,9.67.36,14.49l.32,7.26c.11,2.42.18,4.86.42,7.27.42,4.83.76,9.68,1.23,14.53s1.19,9.66,1.7,14.53,1.41,9.67,2.1,14.53q2.4,14.51,5.58,29l.77,3.63.39,1.82.45,1.79,1.82,7.21c.61,2.4,1.19,4.82,1.83,7.22s1.36,4.78,2,7.17l2,7.22c.69,2.4,1.5,4.75,2.25,7.14,1.55,4.75,3,9.58,4.71,14.29,3.22,9.54,6.88,19,10.63,28.4,1,2.34,2,4.68,3,7l1.45,3.54c.49,1.18,1,2.38,1.5,3.53q1.59,3.48,3.14,7c1,2.35,2.09,4.7,3.11,7.07l-.55.37A462.43,462.43,0,0,1,33.78,725.5q-6.33-18.9-11-38.3-2.51-10.31-4.5-20.73c-.24-1.26-.47-2.52-.7-3.79a469.13,469.13,0,0,1-6.75-56.8,456.78,456.78,0,0,1,80.9-288.66c3-4.14,5.86-8.33,9-12.37l2.28-3.06,1.15-1.53,1.17-1.5,4.72-6c1.57-2,3.22-3.93,4.83-5.91l2.43-2.94c.81-1,1.66-1.94,2.49-2.9l5-5.78,5.13-5.66A458.81,458.81,0,0,1,418,123.14l2.27-.49c1.08-.23,2.17-.43,3.25-.64s2.19-.36,3.29-.53,2.19-.33,3.3-.47,2.2-.29,3.31-.4l.64-.06c2-.19,4-.31,6.09-.42,1.12,0,2.25-.09,3.38-.11s2.29,0,3.44,0,2.3.05,3.46.14,2.21.15,3.33.28h.3v.33l.24.13a75.34,75.34,0,0,1,.49,7.87c0,2,0,4,0,6,0,2.23-.12,4.39-.23,6.52s-.21,4.27-.39,6.35c-.08,1-.18,2.08-.29,3.1s-.17,2.06-.28,3.08-.21,2-.34,3-.24,2-.39,3c-.23,2-.51,4-.81,5.93l-.95,5.82c-.32,1.93-.69,3.84-1.08,5.73s-.72,3.8-1.14,5.67l-1.25,5.6c-.42,1.86-.92,3.69-1.37,5.54-.87,3.7-2,7.31-2.9,11-.46,1.84-1,3.66-1.4,5.5l-1.29,5.53c-1.63,7.39-3.11,14.8-4.22,22.28-.64,3.72-1.08,7.48-1.61,11.21l-.62,5.63-.31,2.81-.24,2.82c-.73,7.51-1.05,15.05-1.29,22.58s-.08,15.07.18,22.6.86,15,1.67,22.52,1.81,14.94,3.14,22.34l.46,2.78.54,2.77c.36,1.85.69,3.7,1.07,5.54.81,3.67,1.55,7.35,2.47,11s1.86,7.28,2.8,10.92c.49,1.81,1,3.61,1.54,5.42l.78,2.71.84,2.69a356.1,356.1,0,0,0,16,42.08c3.18,6.8,6.43,13.57,10,20.17s7.29,13.12,11.27,19.48A356,356,0,0,0,614.8,599.64a368.69,368.69,0,0,0,40.88,19.6,355.07,355.07,0,0,0,43.2,14.25l2.75.75,1.38.38,1.39.32,5.56,1.29,5.56,1.28,5.61,1.08,5.62,1.11c1.87.36,3.76.62,5.64.94,3.77.59,7.54,1.28,11.34,1.69a400.37,400.37,0,0,0,45.9,3.41Z"/><path class="cls-6" d="M27.94,687.16,11.53,664.68a469.13,469.13,0,0,1-6.75-56.8,456.78,456.78,0,0,1,80.9-288.66c3-4.14,5.86-8.33,9-12.37l2.28-3.06,1.15-1.53,1.17-1.5,4.72-6c1.57-2,3.22-3.93,4.83-5.91l2.43-2.94c.81-1,1.66-1.94,2.49-2.9l5-5.78,5.13-5.66A458.81,458.81,0,0,1,412,125.14l2.27-.49c1.08-.23,2.17-.43,3.25-.64s2.19-.36,3.29-.53,2.19-.33,3.3-.47,2.2-.29,3.31-.4l.64-.06c2-.19,4-.31,6.09-.42,1.12,0,2.25-.09,3.38-.11s2.29,0,3.44,0,2.3.05,3.46.14,2.21.15,3.33.28h.3v.33l.24.13a75.34,75.34,0,0,1,.49,7.87c-37.65,6.26-76.55,12.22-107.9,22.35C-30.52,273.25,25.76,643.66,27.94,687.16Z"/><path class="cls-1" d="M791.18,670.93C685.87,680.8,581,641.62,505.3,568.27c-64.41-62.44-104.65-148.48-111.18-238a375.41,375.41,0,0,1-.49-46.72c.41-8,1.06-16.08,2-24.08.16-1.33.33-2.67.5-4,.12-1,.35-5,.05-.55.07-1.18.33-2.36.51-3.53,3.56-24.1,8.74-49.11,18.12-71.71,4-9.59-10.2-16.36-16.72-9.73-15.53,15.81-32.52,30.19-47.48,46.56a367,367,0,0,0-96.82,240,377.05,377.05,0,0,0,39.9,177.7c25.53,50.69,61.45,94.7,105,131.07l-1.56-12.11-.36.55,13.68-3.59C340.66,713.84,288,652.33,257.12,580.72l-.84-2c1.67,3.89.41.94.11.17l-.93-2.31q-2.69-6.71-5.11-13.49a373.94,373.94,0,0,1-12.15-41.75,352.88,352.88,0,0,1-8.59-65.94,370.22,370.22,0,0,1,23.61-143.32c18.94-50.42,49.3-96,87.63-133.75,8.36-8.23-2.22-20.68-12.12-15.7C279.09,187.61,232.1,218,189.9,254.14A463.39,463.39,0,0,0,80.21,392.37C52.73,445.44,36,503.21,29.8,562.59,26.21,596.8,25.89,631.84,30,666a588.18,588.18,0,0,0,13.2,73.34c6.77,27,16.31,53.12,26.86,78.87,2.95,7.18,6.22,14.21,9.31,21.33l3.59-13.68-.55.37,13.68,3.59C58.47,773.21,33.4,708.59,24.16,641.19A455.3,455.3,0,0,1,40.35,444.46a441.45,441.45,0,0,1,40.09-91,455.74,455.74,0,0,1,28.84-43.59c.81-1.08,1.63-2.17,2.43-3.26,1.74-2.38-1.28,1.59.3-.42l.85-1.08c3-3.81,6-7.59,9.1-11.33A449.58,449.58,0,0,1,389.5,137.34c8.53-1.54,17.09-2.85,25.7-3.87,6.13-.72,12.12-2.23,18.26-2.86,7-.7,13.74.1,20.64-.13l-10-10a10.42,10.42,0,0,0,5.21,9.1l-5-8.64c2.22,20.81-1.23,42.45-5.76,62.75-2.22,10-5.18,19.75-7.43,29.71a346.44,346.44,0,0,0-6.49,38.68,361.61,361.61,0,0,0,12.62,142.13C468.44,499.38,547.84,585,648.65,627.09c44.75,18.68,92.58,27.61,141,28.65l-10-10,1.55,35.19c.57,12.82,20.57,12.89,20,0l-1.55-35.19a10.2,10.2,0,0,0-10-10c-40-.86-79.36-7.41-117.11-20.78a350.29,350.29,0,0,1-133.23-85.49c-70.2-72-106-174-95-274.11a338.44,338.44,0,0,1,6.1-36.46c2.4-10.62,5.53-21.07,7.88-31.71a299.06,299.06,0,0,0,5.24-31.76,205.26,205.26,0,0,0,1.34-20.58c.09-7,1.55-18.75-5.7-22.67l4.95,8.63v-.33c-.16-5.26-4.45-10.18-10-10-7.18.24-14.23-.57-21.46.23-6.49.71-14.14,2.35-19.34,3a490.57,490.57,0,0,0-54.37,9.63,471.09,471.09,0,0,0-99.42,36.2A463.91,463.91,0,0,0,115.14,271,474.92,474.92,0,0,0,29.52,414.51a472.22,472.22,0,0,0,35.9,404.1q6.4,10.83,13.38,21.3c2.84,4.28,9,6.75,13.68,3.59l.55-.37c4.89-3.29,5.87-8.44,3.59-13.68C76.71,783.57,60.15,736.59,52.74,687a500.44,500.44,0,0,1-3.88-114.46,428.38,428.38,0,0,1,8.49-57.38,444.21,444.21,0,0,1,30.23-92.32c25.8-56.49,63.21-107.89,110-148.88a652.19,652.19,0,0,1,118-81.79q11.54-6.3,23.28-12.17L326.7,164.24c-75.11,73.95-119.06,177.36-117.29,283.1C210.57,517,230.68,587.46,269,646c33,50.48,77.58,93.44,131.32,121.42A10.25,10.25,0,0,0,414,763.83l.36-.55c2.24-3.41,1.68-9.41-1.56-12.12-58-48.45-102.65-111.36-123.86-182.89-24.85-83.82-19-175.08,19.26-254.1a345.68,345.68,0,0,1,52.12-78.62c16.18-18.27,34.84-34.07,51.93-51.47l-16.72-9.72c-8.91,21.45-14.16,45.35-17.6,68.22a401.55,401.55,0,0,0-4.69,70.13,394,394,0,0,0,40.2,162.71c38.85,79.23,105.21,143.88,185.09,181.27,59.83,28,126.79,40.41,192.65,34.24,5.38-.5,10-4.23,10-10C801.18,675.92,796.59,670.43,791.18,670.93Z"/><path class="cls-1" d="M1356.49,690.46c-1.65-1.64-3.33-3.26-5-4.84-1.81.67-3.61,1.35-5.39,2.06Z"/><path class="cls-2" d="M1083.85,617.56l15,4,20.57,5.5a247.19,247.19,0,0,1,207.47,38.31q9.19,6.63,17.74,14.07,3.46,3,6.82,6.17a241.7,241.7,0,0,1,244.28,46.46q6.24,5.58,12.09,11.57,7.59,7.79,14.47,16.23l17.32-65.46,11.83-113-25.36-91.65-15.35-55.46-5.28-19.1-5.76-9.62-64.33-107.54-19.91-33.28-30.66-20.23L1388,180.69,1244.8,150.48l6,42.48,12.42,88.25-1.1,5.54-30.44,153.44-88.32,145.32L1139,592.6l-7.06,3.19Z"/><path class="cls-1" d="M1081.2,627.21l23.85,6.37c5.23,1.4,11.58,4.17,17,3.14,11.38-2.16,22.4-5.18,34-6.42,43.25-4.65,87.7,2.17,127.09,20.84a240.69,240.69,0,0,1,61.24,41.55c2.47,2.31,6.37,3.8,9.73,2.58,71.53-26.12,152-15.95,214.35,27.82A236.69,236.69,0,0,1,1615.23,767c4.88,5.95,14.93,2.35,16.72-4.41l11.17-42.23c2.63-9.93,5.86-19.73,6.93-30l10.5-100.27c.38-3.67,1.32-7.64.55-11.3s-2-7.4-3.06-11.06l-14.93-53.94q-10.71-38.73-21.43-77.46l-3.93-14.2c-.88-3.17-1.58-6.45-2.64-9.55-1.39-4.07-4.23-7.77-6.42-11.43l-15.16-25.34-49.26-82.35c-6.57-11-12.78-22.31-19.77-33-3.42-5.26-10.52-8.57-15.66-12L1490,236l-75.08-49.53-17.2-11.35c-2.37-1.56-4.62-3.35-7.39-4.14-10.47-3-21.57-4.55-32.21-6.79l-103.36-21.81-7.27-1.53c-8.08-1.7-13.37,4.67-12.3,12.3q7.63,54.23,15.26,108.44l3.14,22.29v-5.31q-14.38,72.42-28.74,144.85l-2.23,11.28a9.86,9.86,0,0,0-.49,2.45c.13,1.59,1.78-2.84.74-1.67-1.46,1.63-2.47,4.06-3.6,5.92l-7.4,12.16-47.72,78.53-33.72,55.48L1134,584q-27.6,12.46-55.18,25c-4.92,2.23-6.11,9.37-3.59,13.68,3,5.06,8.74,5.82,13.68,3.59l48.1-21.76c5.21-2.36,9-4.06,12.09-9.13l3.45-5.68q4.29-7,8.56-14.07l71.36-117.42c2.53-4.16,5.31-8.25,7.62-12.53,1.67-3.1,2-6.65,2.68-10.06l12.31-62.08,13.64-68.72q1.47-7.47,3-14.94c.75-3.81,1.71-7.41,1.17-11.31q-.43-3.15-.89-6.3-8.1-57.6-16.21-115.2l-1.29-9.17-12.3,12.3,127.68,26.93,11.16,2.36c.46.09,4,1.25,4.36.91-.82.73-3.57-2-1.27-.27,1,.75,2.1,1.39,3.14,2.07l11.19,7.38,66.84,44.11,45.17,29.8-3.59-3.59,53.1,88.77L1590.05,409l2.22,3.71a73.22,73.22,0,0,0,4.09,6.82c1.5,2-.61-2.92-.39-1.06a22.7,22.7,0,0,0,.89,3.2q2.88,10.44,5.77,20.89,15,54.28,30,108.58l7.91,28.58c.29,1,.52,2.11.87,3.14.9,2.71-.83-.6,0-1.36-.55.5-.39,3.77-.46,4.47l-6.74,64.31-3.41,32.57-1,9.17c-.07.68-.16,1.36-.21,2-.13,1.81.92-3.68.17-1.7-3.07,8.07-4.54,17.15-6.75,25.48l-8.85,33.46-1.58,6,16.72-4.42c-50.62-61.74-129.52-96.46-209.28-91.59A253,253,0,0,0,1348.81,676l9.73,2.57c-48.75-45.49-113.87-70.91-180.63-69.63a262.9,262.9,0,0,0-61.13,8.51h5.31l-35.58-9.51C1074.06,604.6,1068.75,623.88,1081.2,627.21Z"/><path class="cls-3" d="M1260.85,202.64c1.35,1.3,2.76,2.54,4.09,3.86s2.73,2.58,4.11,3.84,2.72,2.58,4.08,3.87c2.75,2.56,5.35,5.26,8,7.9l3.88,4.07,1.94,2,1.89,2.08c5.09,5.52,9.93,11.26,14.67,17.08s9.19,11.87,13.54,18a359.32,359.32,0,0,1,61.25,259c-.51,3.8-1.22,7.57-1.84,11.37l-1.08,5.66-.55,2.83-.61,2.82-1.23,5.64-1.35,5.62-.68,2.81-.74,2.8-1.5,5.59-1.63,5.56-.81,2.79-.87,2.77-1.76,5.53-1.89,5.5-1,2.75c-.32.92-.68,1.82-1,2.73l-2,5.45c-.69,1.81-1.34,3.65-2.07,5.45l-2.26,5.38-2.25,5.39c-.75,1.8-1.61,3.54-2.41,5.32l-2.45,5.32c-.41.88-.8,1.78-1.24,2.65l-1.32,2.61-2.63,5.24c-.89,1.74-1.73,3.52-2.7,5.21l-5.67,10.31q-2.85,5-5.86,9.86,9.19,6.63,17.74,14.07,4.26-5.18,8.31-10.54c2.49-3.36,4.92-6.78,7.39-10.19,1.25-1.68,2.37-3.46,3.55-5.2l3.49-5.25,1.74-2.64c.58-.88,1.11-1.79,1.66-2.68l3.28-5.4c1.08-1.81,2.23-3.59,3.25-5.42l3.08-5.53,3.06-5.55c1-1.85,1.92-3.76,2.88-5.64l2.86-5.66c.47-.94,1-1.88,1.41-2.84l1.34-2.88,2.65-5.77,2.52-5.83,1.26-2.92,1.19-3,2.36-5.91a371.71,371.71,0,0,0,15-48.82c2-8.31,3.54-16.72,4.95-25.17.65-4.23,1.3-8.47,1.79-12.72s1-8.52,1.39-12.79c.21-2.14.34-4.28.51-6.42s.32-4.28.4-6.43l.31-6.43.17-6.45.07-3.22V449c0-2.15,0-4.3,0-6.45-.12-4.3-.18-8.61-.44-12.9a378,378,0,0,0-6.09-51.35c-.84-4.23-1.67-8.47-2.66-12.68s-2-8.4-3-12.6c-2.23-8.35-4.61-16.67-7.43-24.86a378,378,0,0,0-78.37-133.85l-2.18-2.42-2.24-2.37-4.48-4.74c-2.48-2.47-4.92-5-7.43-7.44a701.69,701.69,0,0,1,89.55,53.24l5.68,4.08q2.84,2,5.64,4.1c1.87,1.39,3.76,2.74,5.61,4.15s3.67,2.86,5.53,4.24,3.67,2.85,5.51,4.28,3.67,2.84,5.44,4.34l5.42,4.37c1.8,1.47,3.55,3,5.33,4.48l2.66,2.24,2.63,2.28,5.26,4.56c3.42,3.14,6.9,6.2,10.23,9.44,6.74,6.38,13.25,13,19.6,19.77A454.07,454.07,0,0,1,1593.14,497.3a481.31,481.31,0,0,1,11.11,55.77l.89,7.09c.15,1.19.31,2.37.44,3.56l.37,3.56.75,7.14.58,7.16.29,3.58.17,3.59.39,7.19.2,3.6c.08,1.2.14,2.41.15,3.61l.12,7.21.15,7.23c0,2.41-.06,4.81-.09,7.23-.09,4.82-.06,9.67-.36,14.49l-.32,7.26c-.11,2.42-.18,4.86-.42,7.27-.42,4.83-.76,9.68-1.23,14.53s-1.19,9.66-1.7,14.53-1.41,9.67-2.1,14.53q-2.4,14.51-5.58,29l-.77,3.63-.39,1.82,0,.21q6.24,5.58,12.09,11.57,2.22-6,4.27-12.15a455.72,455.72,0,0,0,15.55-59,469.37,469.37,0,0,0,7.45-60.59,459.31,459.31,0,0,0-24.36-177.56q-5-14.54-11-28.72-6.46-15.27-14.08-30.05a460.57,460.57,0,0,0-31.42-52.33c-3-4.14-5.86-8.33-9-12.37l-2.28-3.06-1.15-1.53-1.17-1.5-4.72-6-.55-.69c-1.4-1.76-2.86-3.47-4.28-5.22l-2.43-2.94c-.81-1-1.66-1.94-2.49-2.9l-5-5.78-5.13-5.66q-14.86-16.24-31.25-31L1388,180.69,1244.8,150.48l6,42.48c.65.62,1.29,1.23,1.92,1.86,1.34,1.33,2.7,2.63,4.07,3.92S1259.47,201.36,1260.85,202.64Z"/><path class="cls-3" d="M1231.66,440.19l-88.32,145.32.14-.13,4.66-4.51c.77-.76,1.56-1.5,2.32-2.27l2.28-2.31c1.51-1.54,3-3.07,4.54-4.64,3-3.16,6-6.28,8.8-9.53,1.43-1.63,2.91-3.21,4.3-4.87l4.2-5c5.5-6.69,10.87-13.48,15.92-20.52l1.9-2.63c.63-.88,1.24-1.78,1.85-2.67l3.69-5.35,3.56-5.43c.59-.91,1.19-1.81,1.77-2.72l1.71-2.76a381.43,381.43,0,0,0,57.76-196.78c0-8.63-.09-17.27-.59-25.89,0-.27,0-.53-.05-.8Z"/><path class="cls-3" d="M1083.85,617.56l15,4A382.49,382.49,0,0,0,1132,595.79Z"/><path class="cls-1" d="M1081.2,627.21l23.85,6.37c5.23,1.4,11.58,4.17,17,3.14,11.38-2.16,22.4-5.18,34-6.42,43.25-4.65,87.7,2.17,127.09,20.84a240.69,240.69,0,0,1,61.24,41.55c2.47,2.31,6.37,3.8,9.73,2.58,71.53-26.12,152-15.95,214.35,27.82A236.69,236.69,0,0,1,1615.23,767c4.88,5.95,14.93,2.35,16.72-4.41l11.17-42.23c2.63-9.93,5.86-19.73,6.93-30l10.5-100.27c.38-3.67,1.32-7.64.55-11.3s-2-7.4-3.06-11.06l-14.93-53.94q-10.71-38.73-21.43-77.46l-3.93-14.2c-.88-3.17-1.58-6.45-2.64-9.55-1.39-4.07-4.23-7.77-6.42-11.43l-15.16-25.34-49.26-82.35c-6.57-11-12.78-22.31-19.77-33-3.42-5.26-10.52-8.57-15.66-12L1490,236l-75.08-49.53-17.2-11.35c-2.37-1.56-4.62-3.35-7.39-4.14-10.47-3-21.57-4.55-32.21-6.79l-103.36-21.81-7.27-1.53c-8.08-1.7-13.37,4.67-12.3,12.3q7.63,54.23,15.26,108.44l3.14,22.29v-5.31q-14.38,72.42-28.74,144.85l-2.23,11.28a9.86,9.86,0,0,0-.49,2.45c.13,1.59,1.78-2.84.74-1.67-1.46,1.63-2.47,4.06-3.6,5.92l-7.4,12.16-47.72,78.53-33.72,55.48L1134,584q-27.6,12.46-55.18,25c-4.92,2.23-6.11,9.37-3.59,13.68,3,5.06,8.74,5.82,13.68,3.59l48.1-21.76c5.21-2.36,9-4.06,12.09-9.13l3.45-5.68q4.29-7,8.56-14.07l71.36-117.42c2.53-4.16,5.31-8.25,7.62-12.53,1.67-3.1,2-6.65,2.68-10.06l12.31-62.08,13.64-68.72q1.47-7.47,3-14.94c.75-3.81,1.71-7.41,1.17-11.31q-.43-3.15-.89-6.3-8.1-57.6-16.21-115.2l-1.29-9.17-12.3,12.3,127.68,26.93,11.16,2.36c.46.09,4,1.25,4.36.91-.82.73-3.57-2-1.27-.27,1,.75,2.1,1.39,3.14,2.07l11.19,7.38,66.84,44.11,45.17,29.8-3.59-3.59,53.1,88.77L1590.05,409l2.22,3.71a73.22,73.22,0,0,0,4.09,6.82c1.5,2-.61-2.92-.39-1.06a22.7,22.7,0,0,0,.89,3.2q2.88,10.44,5.77,20.89,15,54.28,30,108.58l7.91,28.58c.29,1,.52,2.11.87,3.14.9,2.71-.83-.6,0-1.36-.55.5-.39,3.77-.46,4.47l-6.74,64.31-3.41,32.57-1,9.17c-.07.68-.16,1.36-.21,2-.13,1.81.92-3.68.17-1.7-3.07,8.07-4.54,17.15-6.75,25.48l-8.85,33.46-1.58,6,16.72-4.42c-50.62-61.74-129.52-96.46-209.28-91.59A253,253,0,0,0,1348.81,676l9.73,2.57c-48.75-45.49-113.87-70.91-180.63-69.63a262.9,262.9,0,0,0-61.13,8.51h5.31l-35.58-9.51C1074.06,604.6,1068.75,623.88,1081.2,627.21Z"/><path class="cls-4" d="M1346.07,687.68l10.42,2.78c-1.65-1.64-3.33-3.26-5-4.84C1349.65,686.29,1347.85,687,1346.07,687.68Z"/><path class="cls-4" d="M1346.07,687.68l10.42,2.78c-1.65-1.64-3.33-3.26-5-4.84C1349.65,686.29,1347.85,687,1346.07,687.68Z"/><path class="cls-5" d="M1661.1,615.88a469.37,469.37,0,0,1-7.45,60.59,455.72,455.72,0,0,1-15.55,59,462.43,462.43,0,0,1-53.65,109.36l-.55-.37c1-2.37,2.07-4.72,3.11-7.07s2.08-4.68,3.14-7c.54-1.15,1-2.35,1.5-3.53l1.45-3.54c1-2.36,2-4.7,3-7,3.75-9.45,7.41-18.86,10.63-28.4,1.72-4.71,3.16-9.54,4.71-14.29.75-2.39,1.56-4.74,2.25-7.14l2-7.22c.67-2.39,1.33-4.79,2-7.17s1.22-4.82,1.83-7.22l1.82-7.21.45-1.79.39-1.82.77-3.63q3.18-14.48,5.58-29c.69-4.86,1.45-9.69,2.1-14.53s1.14-9.7,1.7-14.53.81-9.7,1.23-14.53c.24-2.41.31-4.85.42-7.27l.32-7.26c.3-4.82.27-9.67.36-14.49,0-2.42.1-4.82.09-7.23l-.15-7.23-.12-7.21c0-1.2-.07-2.41-.15-3.61l-.2-3.6-.39-7.19-.17-3.59-.29-3.58-.58-7.16-.75-7.14-.37-3.56c-.13-1.19-.29-2.37-.44-3.56l-.89-7.09a481.31,481.31,0,0,0-11.11-55.77A454.07,454.07,0,0,0,1512.2,306.88c-6.35-6.77-12.86-13.39-19.6-19.77-3.33-3.24-6.81-6.3-10.23-9.44l-5.26-4.56-2.63-2.28-2.66-2.24c-1.78-1.49-3.53-3-5.33-4.48l-5.42-4.37c-1.77-1.5-3.63-2.9-5.44-4.34s-3.63-2.91-5.51-4.28-3.68-2.82-5.53-4.24-3.74-2.76-5.61-4.15-3.75-2.75-5.64-4.1l-5.68-4.08a701.69,701.69,0,0,0-89.55-53.24c2.51,2.45,5,5,7.43,7.44l4.48,4.74,2.24,2.37,2.18,2.42a378,378,0,0,1,78.37,133.85c2.82,8.19,5.2,16.51,7.43,24.86,1,4.2,2.14,8.38,3,12.6s1.82,8.45,2.66,12.68a378,378,0,0,1,6.09,51.35c.26,4.29.32,8.6.44,12.9,0,2.15,0,4.3,0,6.45v3.23l-.07,3.22-.17,6.45-.31,6.43c-.08,2.15-.24,4.29-.4,6.43s-.3,4.28-.51,6.42c-.43,4.27-.81,8.54-1.39,12.79s-1.14,8.49-1.79,12.72c-1.41,8.45-3,16.86-4.95,25.17a371.71,371.71,0,0,1-15,48.82l-2.36,5.91-1.19,3-1.26,2.92-2.52,5.83-2.65,5.77-1.34,2.88c-.45,1-.94,1.9-1.41,2.84l-2.86,5.66c-1,1.88-1.87,3.79-2.88,5.64l-3.06,5.55-3.08,5.53c-1,1.83-2.17,3.61-3.25,5.42l-3.28,5.4c-.55.89-1.08,1.8-1.66,2.68l-1.74,2.64-3.49,5.25c-1.18,1.74-2.3,3.52-3.55,5.2-2.47,3.41-4.9,6.83-7.39,10.19a358.2,358.2,0,0,1-33,37.65,346.1,346.1,0,0,1-37.74,32.22,314.31,314.31,0,0,1-41.68,26l-.36-.55a439.47,439.47,0,0,0,35.54-32.91,389,389,0,0,0,31-36.36,372.23,372.23,0,0,0,26.06-39.44l5.67-10.31c1-1.69,1.81-3.47,2.7-5.21l2.63-5.24,1.32-2.61c.44-.87.83-1.77,1.24-2.65l2.45-5.32c.8-1.78,1.66-3.52,2.41-5.32l2.25-5.39,2.26-5.38c.73-1.8,1.38-3.64,2.07-5.45l2-5.45c.34-.91.7-1.81,1-2.73l1-2.75,1.89-5.5,1.76-5.53.87-2.77.81-2.79,1.63-5.56,1.5-5.59.74-2.8.68-2.81,1.35-5.62,1.23-5.64.61-2.82.55-2.83,1.08-5.66c.62-3.8,1.33-7.57,1.84-11.37a358.91,358.91,0,0,0-61.25-259c-4.35-6.13-8.82-12.17-13.54-18s-9.58-11.56-14.67-17.08l-1.89-2.08-1.94-2-3.88-4.07c-2.67-2.64-5.27-5.34-8-7.9-1.36-1.29-2.7-2.6-4.08-3.87s-2.75-2.55-4.11-3.84-2.74-2.56-4.09-3.86-2.7-2.63-4.08-3.9-2.73-2.59-4.07-3.92-2.73-2.61-4.07-3.95c-2.62-2.62-5.31-5.17-7.92-7.86.49,1.16,1,2.33,1.42,3.5,1.5,4,2.89,8.1,4.1,12.22.62,2.06,1.28,4.11,1.85,6.18l1.73,6.21c2.21,8.32,4.24,16.69,5.87,25.15.89,4.21,1.54,8.47,2.29,12.72l1,6.39.46,3.2.4,3.21c1.12,8.55,1.86,17.15,2.36,25.76s.63,17.26.59,25.89A381.43,381.43,0,0,1,1231,514.22l-1.71,2.76c-.58.91-1.18,1.81-1.77,2.72l-3.56,5.43-3.69,5.35c-.61.89-1.22,1.79-1.85,2.67l-1.9,2.63c-5,7-10.42,13.83-15.92,20.52l-4.2,5c-1.39,1.66-2.87,3.24-4.3,4.87-2.85,3.25-5.85,6.37-8.8,9.53-1.49,1.57-3,3.1-4.54,4.64l-2.28,2.31c-.76.77-1.55,1.51-2.32,2.27l-4.66,4.51-4.76,4.4a379.61,379.61,0,0,1-84.92,58.64c-61.34,31.44-131.53,45-199.1,38.51l.85-19.34.7-15.85a400.37,400.37,0,0,0,45.9-3.41c3.8-.41,7.57-1.1,11.34-1.69,1.88-.32,3.77-.58,5.64-.94l5.62-1.11,5.61-1.08,5.56-1.28,5.56-1.29,1.39-.32,1.38-.38,2.75-.75a355.07,355.07,0,0,0,43.2-14.25,368.69,368.69,0,0,0,40.88-19.6,356,356,0,0,0,129.55-123c4-6.36,7.7-12.88,11.27-19.48s6.83-13.37,10-20.17a356.1,356.1,0,0,0,16-42.08l.84-2.69.78-2.71c.51-1.81,1-3.61,1.54-5.42.94-3.64,2-7.26,2.8-10.92s1.66-7.33,2.47-11c.38-1.84.71-3.69,1.07-5.54l.54-2.77.46-2.78c1.33-7.4,2.3-14.87,3.14-22.34s1.29-15,1.67-22.52.39-15.06.18-22.6-.56-15.07-1.29-22.58l-.24-2.82-.31-2.81-.62-5.63c-.53-3.73-1-7.49-1.61-11.21-1.11-7.48-2.59-14.89-4.22-22.28l-1.29-5.53c-.42-1.84-.94-3.66-1.4-5.5-.91-3.68-2-7.29-2.9-11-.45-1.85-1-3.68-1.37-5.54l-1.25-5.6q-.63-2.81-1.14-5.67c-.39-1.89-.76-3.8-1.08-5.73l-1-5.82c-.3-2-.58-3.93-.81-5.93-.15-1-.27-2-.39-3s-.24-2-.34-3-.2-2.05-.28-3.08-.21-2.06-.29-3.1c-.18-2.08-.29-4.2-.39-6.35s-.22-4.29-.23-6.52a115,115,0,0,1,.51-13.91l.24-.13v-.33h.3c1.12-.13,2.23-.22,3.33-.28l.64,0c.94-.06,1.88-.08,2.82-.1,1.15,0,2.3-.06,3.44,0s2.26.06,3.38.11c2.25.12,4.5.26,6.73.48,1.11.11,2.21.25,3.31.4s2.21.3,3.3.47,2.2.33,3.29.53,2.17.41,3.25.64l2.27.49a458.8,458.8,0,0,1,288.21,146.42l5.13,5.66,5,5.78c.83,1,1.68,1.91,2.49,2.9l2.43,2.94c1.61,2,3.26,3.91,4.83,5.91l4.72,6,1.17,1.5,1.15,1.53,2.28,3.06c3.1,4,6,8.23,9,12.37a456.78,456.78,0,0,1,80.9,288.66Z"/><path class="cls-6" d="M1216.94,471.16c-133,214-299,200-342.39,200.43l.7-15.85a400.37,400.37,0,0,0,45.9-3.41c3.8-.41,7.57-1.1,11.34-1.69,1.88-.32,3.77-.58,5.64-.94l5.62-1.11,5.61-1.08,5.56-1.28,5.56-1.29,1.39-.32,1.38-.38,2.75-.75a355.07,355.07,0,0,0,43.2-14.25,368.69,368.69,0,0,0,40.88-19.6,356,356,0,0,0,129.55-123c4-6.36,7.7-12.88,11.27-19.48s6.83-13.37,10-20.17a356.1,356.1,0,0,0,16-42.08l.84-2.69.78-2.71c.51-1.81,1-3.61,1.54-5.42.94-3.64,2-7.26,2.8-10.92s1.66-7.33,2.47-11c.38-1.84.71-3.69,1.07-5.54l.54-2.77.46-2.78c1.33-7.4,2.3-14.87,3.14-22.34s1.29-15,1.67-22.52.39-15.06.18-22.6-.56-15.07-1.29-22.58l-.24-2.82-.31-2.81-.62-5.63c-.53-3.73-1-7.49-1.61-11.21-1.11-7.48-2.59-14.89-4.22-22.28l-1.29-5.53c-.42-1.84-.94-3.66-1.4-5.5-.91-3.68-2-7.29-2.9-11-.45-1.85-1-3.68-1.37-5.54l-1.25-5.6q-.63-2.81-1.14-5.67c-.39-1.89-.76-3.8-1.08-5.73l-1-5.82c-.3-2-.58-3.93-.81-5.93-.15-1-.27-2-.39-3s-.24-2-.34-3-.2-2.05-.28-3.08-.21-2.06-.29-3.1c-.18-2.08-.29-4.2-.39-6.35s-.22-4.29-.23-6.52a115,115,0,0,1,.51-13.91l.24-.13v-.33h.3c1.12-.13,2.23-.22,3.33-.28l.64,0C1239.86,172.24,1309.19,322.74,1216.94,471.16Z"/><path class="cls-1" d="M1651.1,615.88a450,450,0,0,1-48.87,179,471.53,471.53,0,0,1-26.41,44.89l13.68-3.59-.55-.37,3.59,13.68c20.73-47.76,38.48-96.44,46-148.18,5.81-39.83,7.64-79.72,4.39-119.84a475.55,475.55,0,0,0-41-158c-26.42-58.17-65.36-111.59-113.46-153.75a676.42,676.42,0,0,0-122.74-85.3q-11.19-6.09-22.59-11.79c-9.82-4.93-20.55,7.4-12.12,15.7,71.55,70.44,113.72,169.09,111.42,269.91a367.06,367.06,0,0,1-26,128.34c-.42,1.06-.86,2.12-1.28,3.19-.3.76-1,2.33.46-1.05-.34.77-.67,1.54-1,2.31-.91,2.1-1.79,4.21-2.72,6.3-2.39,5.32-4.94,10.56-7.57,15.76a338,338,0,0,1-18.44,32.38c-31.23,47.87-73.54,88.15-124.4,114.63l13.68,3.59-.36-.55-1.56,12.11c60.1-50.25,106.64-116.31,129-191.71,26.25-88.53,19.38-184.4-20.49-267.89a365.64,365.64,0,0,0-53.56-81.46c-16.8-19.43-36.43-36-54.39-54.3-6.52-6.63-20.7.13-16.72,9.73,8.81,21.22,13.94,44.77,17.47,67.36.4,2.59,1,5.26,1.16,7.88-.36-4.62.07.63.21,1.8q.75,6,1.3,11.94a379,379,0,0,1,1.43,44.06,370.27,370.27,0,0,1-39,155.77c-38.45,76.59-102.8,137.78-180.91,173a354.18,354.18,0,0,1-178,29.41l10,10q.78-17.59,1.55-35.19l-10,10c41-.88,81.84-7.37,120.65-20.87a372.69,372.69,0,0,0,139.26-86.64c75.78-75,116-182.74,105.82-289.06-2.2-23-7.13-45.24-12.79-67.6-5.75-22.7-10.09-47.19-7.66-70.63l-5,8.64a10.39,10.39,0,0,0,5.2-9.1l-10,10c5.19.18,10.37-.56,15.6-.25a114.69,114.69,0,0,1,15.89,2.14c11.85,2.37,24,3.26,35.94,5.48a456.49,456.49,0,0,1,77.69,21.76,446.15,446.15,0,0,1,130,76.55,465.78,465.78,0,0,1,46.83,45.72q5.18,5.81,10.11,11.82c2.29,2.77,4.57,5.56,6.79,8.39l2.72,3.46.53.67c1.83,2.33-1.71-2.33.3.42,29.32,40,53.27,82.92,68.88,130.12a453.34,453.34,0,0,1,22,169.12c-.75,12.86,19.25,12.82,20,0,6.32-106.94-24.87-214.73-87.81-301.48-49.7-68.5-117.81-123.17-195.77-156.28a468.08,468.08,0,0,0-87.62-27.7c-14.47-3-31.38-4.77-44.53-7.16-6.18-1.13-12.35-2.26-18.62-2.8s-12.63.23-19,0c-5.52-.18-9.84,4.74-10,10v.33l5-8.63c-7,3.77-5.72,14.25-5.7,21,0,6.41.42,12.81,1,19.19A293.27,293.27,0,0,0,1212.5,192c4.37,21.75,11,42.74,14.06,64.8.45,3.27.61,4.79,1.06,8.88.4,3.65.72,7.31,1,11a338.2,338.2,0,0,1,.44,43.3,343.08,343.08,0,0,1-12.1,73.26c-28.11,100.71-102.85,183.69-198.8,224.51-43,18.31-89.27,27-135.9,28a10.22,10.22,0,0,0-10,10q-.76,17.6-1.55,35.19c-.25,5.77,4.82,9.52,10,10,108.74,10.2,219.56-30.63,297.84-106.4a395.09,395.09,0,0,0,118.89-249.89,383.1,383.1,0,0,0-2.85-87.91c-3.57-24.33-8.75-49.56-18.22-72.37l-16.72,9.72c15.54,15.82,32.53,30.19,47.49,46.56a347.29,347.29,0,0,1,91,228.75,352,352,0,0,1-13.1,101.71,358.91,358.91,0,0,1-24.25,63.28c-24.78,49.23-59.46,91.46-101.71,126.78-3.22,2.7-3.82,8.67-1.56,12.12l.36.55a10.26,10.26,0,0,0,13.68,3.59c72.61-37.8,128.4-102.32,160.62-177,38.67-89.58,39.92-193.39,5.45-284.47a395.45,395.45,0,0,0-92.45-141.74L1333.07,190C1381,214,1426.6,243,1467.41,277.9a448.14,448.14,0,0,1,106.17,133,441.79,441.79,0,0,1,35,89.57A480.84,480.84,0,0,1,1619,549.37c1.23,7.65,2.17,14.82,3.1,23.64a470.72,470.72,0,0,1,.09,100.27c-5.67,51.36-19.38,100.28-39,148-2.51,6.11-5.32,12.09-8,18.16-2.26,5.21-1.35,10.36,3.59,13.68l.55.37c4.66,3.14,10.84.68,13.68-3.59,35.44-53.35,60.35-114.2,71.41-177.35a501.86,501.86,0,0,0,6.6-56.68C1671.87,603,1651.87,603.07,1651.1,615.88Z"/><rect class="cls-7" x="1157.89" y="512.77" width="33.45" height="33.45" transform="translate(1630.79 1734.48) rotate(-135)"/><rect class="cls-7" x="1194.15" y="525.2" width="33.45" height="33.45" transform="translate(1069.3 1860.96) rotate(-107.98)"/><rect class="cls-7" x="1122.67" y="523.13" width="33.45" height="33.45" transform="translate(1909.25 1538.35) rotate(-152.98)"/><path class="cls-8" d="M1072.9,470.17v722h-485v-722a291,291,0,0,1,12.72-85.54,271.68,271.68,0,0,1,62.66-107.95A244,244,0,0,1,726,229.14a225,225,0,0,1,62.67-22l3.47-.64,2.79-.46c1.45-.24,2.9-.46,4.36-.66l2.19-.3,2.19-.28c1.35-.16,2.69-.31,4-.45,1.6-.16,3.2-.31,4.8-.44l1.55-.12c1.32-.1,2.66-.18,4-.25l1.83-.1c1.51-.07,3-.13,4.55-.17q3-.08,6-.08,8.72,0,17.29.67h0c1.19.09,2.38.19,3.57.31A222.61,222.61,0,0,1,914,219.44a236,236,0,0,1,62.67,37.72,251.68,251.68,0,0,1,25.25,24.21,266.66,266.66,0,0,1,37.42,53.11C1060.65,374.25,1072.9,420.63,1072.9,470.17Z"/><path class="cls-5" d="M1011.92,470.17v722h-414v-722a291,291,0,0,1,12.72-85.54A271.68,271.68,0,0,1,673.3,276.68,244,244,0,0,1,736,229.14a225,225,0,0,1,62.67-22c2.08-.4,4.16-.77,6.26-1.1A222.38,222.38,0,0,1,853,219.44a236,236,0,0,1,62.67,37.72,251.68,251.68,0,0,1,25.25,24.21,266.66,266.66,0,0,1,37.42,53.11C999.67,374.25,1011.92,420.63,1011.92,470.17Z"/><path class="cls-2" d="M890.66,377.55a50.92,50.92,0,0,1-89,49.45Z"/><path class="cls-2" d="M672.23,377.55a50.92,50.92,0,1,0,89,49.45Z"/><path class="cls-6" d="M850.9,205.19q-9.09,1.13-18,2.85a264.6,264.6,0,0,0-69,23.55,267.87,267.87,0,0,0-68.8,49.78l-.2.2a266.17,266.17,0,0,0-78,188.6v722h-29v-722a291,291,0,0,1,12.72-85.54,271.68,271.68,0,0,1,62.66-107.95A244,244,0,0,1,726,229.14a225,225,0,0,1,62.67-22,222.09,222.09,0,0,1,35.76-3.87q4.27.1,8.52.34c1.31.07,2.62.15,3.93.25h0Q843.94,204.33,850.9,205.19Z"/><path class="cls-1" d="M1057.9,470.17v692.71c0,9.33-.36,18.74,0,28.07,0,.4,0,.82,0,1.22l15-15H647.55c-19.5,0-39.34-1.06-58.82,0-.27,0-.55,0-.83,0l15,15V472.64c0-24.34,2.39-46.7,8.31-70.14a257.56,257.56,0,0,1,21.5-57.12,252.12,252.12,0,0,1,33-49.13c27.57-31.76,62.39-56,102.3-68.5a222,222,0,0,1,33.4-7.67l2.89-.4c-3.86.53-1,.13,0,0,2.19-.25,4.37-.49,6.56-.68q7.5-.66,15-.81a203.72,203.72,0,0,1,63.3,8.45c82.91,24.38,142.44,98.29,161.69,181.06a268.86,268.86,0,0,1,7,62.44c0,7.85,6.89,15.37,15,15s15-6.59,15-15c-.28-92.82-42.55-183.57-119-237.72a241.93,241.93,0,0,0-130.78-44.14c-44.33-1.54-88.8,9.95-127.22,32-79,45.3-127.39,130.41-136.48,219.75-2.07,20.35-1.53,40.93-1.53,61.37v690.75a15.22,15.22,0,0,0,15,15h425.36c19.58,0,39.25.58,58.82,0h.82a15.22,15.22,0,0,0,15-15V499.47c0-9.35.21-18.72,0-28.07v-1.23c0-7.84-6.89-15.36-15-15S1057.9,461.76,1057.9,470.17Z"/><circle class="cls-1" cx="725.94" cy="414.92" r="39.04"/><circle class="cls-1" cx="837.86" cy="414.92" r="39.04"/><path class="cls-1" d="M699.77,543.39a65.78,65.78,0,0,1,15.62-42.2h0a80.17,80.17,0,0,1,27.86-21.25,92.63,92.63,0,0,1,75.72-.71,81.74,81.74,0,0,1,25.25,17.35C856.57,509.15,864,525.5,864,543.39c0,5.75-3.44,10.66-9.33,14.75-10.87,7.54-30.09,12.25-51.38,14.11a248.33,248.33,0,0,1-46.6-.36c-21.86-2.29-41.07-7.65-50.59-16.08C702.07,552.23,699.77,548.09,699.77,543.39Z"/><path class="cls-8" d="M1047.4,684.67h65v-86.5c0-16.26,6.8-30.69,17.57-42.43s26.91-16.87,42.43-17.57c14.95-.67,32,7.17,42.43,17.57a61.92,61.92,0,0,1,17.57,42.43v146.5c0,32.51-27.57,60-60,60h-125"/><path class="cls-1" d="M1047.4,699.67h65a15.22,15.22,0,0,0,15-15V598.18c.06-5.39.1-5.95,1.43-10.89a52,52,0,0,1,10.69-19.76,37.74,37.74,0,0,1,18.35-11.8c2-.61,4-1.13,6.09-1.56,1-.21,2.06-.4,3.1-.57-2.4.4.87-.1,1.45-.16a60.29,60.29,0,0,1,6.15-.3c1,0,2,.07,3,.14s1,.08-.14-.07c.78.12,1.55.26,2.32.43a57.7,57.7,0,0,1,6.16,1.65c1,.33,2,.68,3,1.07,2.71,1.06-2.85-1.58,1.61.74,1.91,1,3.81,2,5.64,3.08.91.56,1.77,1.16,2.67,1.73,2.33,1.47-.3-.51,1.91,1.4,1.53,1.32,3,2.68,4.39,4.14.71.75,1.39,1.53,2.06,2.31.16.19,1.64,2.23.53.67a59.46,59.46,0,0,1,3.38,5.3c.52.91,1,1.85,1.5,2.79,0,0,1.83,4.2,1,2.21a60.27,60.27,0,0,1,3.34,12.15c-.4-2.42.06.83.1,1.43.07,1,.11,2.06.13,3.09,0,.31,0,.61,0,.91,0,4,0,8,0,12V730.07c0,4.68,0,9.36,0,14v.57c0,1.87-.12,3.73-.27,5.6.22-2.75.1-.47,0,.13-.26,1.35-.51,2.7-.84,4-.43,1.77-1,3.52-1.55,5.23-.29.86-.61,1.71-1,2.55,1.07-2.64-.1.1-.42.74-.79,1.62-1.66,3.19-2.6,4.73-.47.77-1,1.52-1.45,2.27-.27.39-2.59,3.5-1.61,2.28s-.71.79-1,1.08c-.6.67-1.2,1.33-1.82,2-1.41,1.47-2.93,2.77-4.4,4.16-.35.34-2.2,1.8-.11.19-.7.55-1.45,1.06-2.18,1.57a61.36,61.36,0,0,1-5.76,3.5c-.83.45-5.12,2.38-2.54,1.34-1.68.68-3.4,1.27-5.14,1.78s-3.52.95-5.31,1.3c-.89.18-1.8.35-2.71.47,3.3-.44-1.24,0-1.54,0-4.23.21-8.49.07-12.72.07H1047.4c-7.84,0-15.36,6.9-15,15s6.59,15,15,15h108.73c5.3,0,10.6,0,15.9,0a74.51,74.51,0,0,0,43.51-14.13c15.2-11.21,26.92-27.67,30.38-46.49a114.49,114.49,0,0,0,1.48-20.89V615.37c0-5.44,0-10.88,0-16.32-.06-15.4-4.64-31.15-13.61-43.77a76.57,76.57,0,0,0-55.31-31.94c-20.91-1.84-44.74,6.36-59.11,21.79-13.56,14.55-21.76,33.2-22,53.18-.06,6.32,0,12.64,0,19v67.39l15-15h-65c-7.84,0-15.36,6.9-15,15s6.59,15,15,15Z"/><circle class="cls-9" cx="703.4" cy="395.67" r="18.5"/><circle class="cls-9" cx="815.08" cy="395.67" r="18.5"/><path class="cls-10" d="M761.83,386.31l-.53-.74A81.11,81.11,0,0,0,700.8,352h0"/><path class="cls-10" d="M794.83,387.31l.53-.74A81.13,81.13,0,0,1,855.86,353h0"/><path class="cls-5" d="M628.08,447.63c-31-15.17-62.13-31-88.39-53.44-8.86-7.57-17.53-16.58-19.71-28a138.85,138.85,0,0,0,38.35,91.5,160.48,160.48,0,0,1-41.22-19.74A147.86,147.86,0,0,0,561.53,496a45.43,45.43,0,0,1-26-6.68c18.85,35.21,55.65,40.52,96.91,26.24"/><path class="cls-1" d="M633.13,439c-20.6-10.08-41.15-20.39-60.45-32.83a235.71,235.71,0,0,1-26.52-19.57c-7.36-6.35-14.4-13.29-16.53-23.08-2.4-11-20-8.6-19.65,2.65a150.7,150.7,0,0,0,41.28,98.57L561,448a156.24,156.24,0,0,1-38.83-18.74c-3.67-2.42-9.11-1.44-12.12,1.57-3.4,3.39-3.35,8-1.56,12.12a156.41,156.41,0,0,0,46,60.12L561.53,486a37.45,37.45,0,0,1-20.95-5.32c-8.8-5.21-18.4,5.06-13.68,13.69,9.72,17.75,25.57,31.25,45.42,36.12,20.81,5.12,42.8,1.53,62.78-5.29,12.12-4.12,6.92-23.45-5.31-19.28-16.16,5.51-34.31,9.34-50.93,5.58-15.46-3.5-27-13.13-34.69-27.23L530.49,498a57.09,57.09,0,0,0,31,8c7.82-.25,14.28-11.34,7.07-17.07a144.15,144.15,0,0,1-42.86-56.08l-13.68,13.68a175.87,175.87,0,0,0,43.61,20.75c9.84,3.15,16.34-9.76,9.73-16.71A129.45,129.45,0,0,1,530,366.16l-19.64,2.66c5.09,23.35,29.24,39.26,47.78,51.67,20.57,13.77,42.72,24.91,64.91,35.77,4.85,2.38,10.82,1.32,13.69-3.58,2.57-4.4,1.28-11.3-3.59-13.69Z"/><path class="cls-5" d="M913.81,442.63c31-15.17,62.13-31,88.39-53.44,8.86-7.57,17.53-16.58,19.71-28a138.89,138.89,0,0,1-38.35,91.5,160.48,160.48,0,0,0,41.22-19.74A147.86,147.86,0,0,1,980.36,491a45.37,45.37,0,0,0,26-6.68c-18.84,35.21-55.64,40.52-96.91,26.24"/><path class="cls-1" d="M918.86,451.26c22.18-10.86,44.34-22,64.91-35.77,18.55-12.41,42.69-28.32,47.78-51.67l-19.64-2.66a129.45,129.45,0,0,1-35.42,84.43c-6.61,7-.12,19.86,9.73,16.71a175.87,175.87,0,0,0,43.61-20.75l-13.68-13.68A144.15,144.15,0,0,1,973.29,484c-7.21,5.74-.81,16.82,7.07,17.07a57.09,57.09,0,0,0,31-8l-13.68-13.68C990,493.38,978.49,503,963,506.52c-16.62,3.76-34.77-.08-50.93-5.58-12.21-4.16-17.45,15.15-5.31,19.28,20,6.81,42,10.43,62.78,5.29,19.85-4.9,35.7-18.35,45.42-36.12,4.72-8.63-4.87-18.9-13.68-13.69A37.43,37.43,0,0,1,980.36,481l7.07,17.07a156.51,156.51,0,0,0,46-60.12c1.8-4.16,1.85-8.71-1.56-12.12-3-3-8.44-4-12.12-1.57A156.24,156.24,0,0,1,980.9,443l9.73,16.71a150.7,150.7,0,0,0,41.28-98.57c.37-11.13-17.23-13.77-19.65-2.65-2.07,9.53-8.79,16.33-15.93,22.56a230.54,230.54,0,0,1-27.13,20.09c-19.29,12.44-39.84,22.75-60.44,32.83-4.85,2.38-6.17,9.27-3.59,13.69,2.9,4.94,8.82,6,13.69,3.58Z"/><path class="cls-2" d="M945.42,778.16v401q0,6.58-.6,13H665q-.6-6.42-.6-13v-401a140.5,140.5,0,1,1,281,0Z"/><path class="cls-1" d="M930.42,778.16v355.33c0,15.15.05,30.31,0,45.46q0,6.63-.6,13.22l15-15H665l15,15c-.94-10.88-.6-21.91-.6-32.83V798c0-9.84-.34-19.8.34-29.62.19-2.76.45-5.51.81-8.25-.42,3.18.58-3.22.75-4.12a137.3,137.3,0,0,1,3.52-14.43q1.15-3.84,2.53-7.61c.31-.84.62-1.67.94-2.5.14-.35,1.83-4.42.5-1.33a138.21,138.21,0,0,1,6.44-13,143.33,143.33,0,0,1,7.7-12.22c.76-1.07,1.54-2.12,2.31-3.18.32-.44,1.77-2.22,0-.08,1.64-2,3.31-4,5.05-6a139.28,139.28,0,0,1,10.07-10.26q2.4-2.22,4.91-4.32c1-.84,2-1.66,3-2.48-2.44,2,.59-.43,1.13-.83a140.63,140.63,0,0,1,25-14.6c.35-.16,4.4-1.85,1.28-.59,1.24-.5,2.47-1,3.72-1.46,2.08-.78,4.19-1.51,6.3-2.2a139.21,139.21,0,0,1,14.33-3.78c2.67-.56,5.35-1,8-1.44-3.17.49,3.29-.35,4.22-.43a142.47,142.47,0,0,1,15.87-.52q4.92.12,9.83.57c3,.28,4.3.45,5.66.7a166.55,166.55,0,0,1,17.1,3.9c41.1,12.14,74,45.88,85.25,87.44.84,3.08,1.56,6.18,2.19,9.31.2,1,.4,2.1.58,3.15,0-.09.82,5.11.43,2.4a133.62,133.62,0,0,1,1.14,18c.05,7.85,6.87,15.37,15,15s15.05-6.59,15-15a157.49,157.49,0,0,0-68.73-129c-39.28-26.86-91.43-33.81-136.43-18.35C715.5,644.45,681.44,674.1,664,712.56c-10.42,23-14.56,46.94-14.56,72v294.77c0,33-.06,66.07,0,99.11q0,6.88.6,13.74c.7,8.08,6.31,15,15,15h279.8c8.63,0,14.3-6.9,15-15,1.42-16.36.6-33.08.6-49.48V828.58c0-16.53.52-33.16,0-49.68v-.74c0-7.84-6.89-15.36-15-15S930.42,769.75,930.42,778.16Z"/><path class="cls-1" d="M683.44,735.66H932.58c7.85,0,15.36-6.9,15-15s-6.59-15-15-15H683.44c-7.84,0-15.36,6.9-15,15s6.6,15,15,15Z"/><path class="cls-1" d="M667.42,815.66H933.05c7.85,0,15.37-6.9,15-15s-6.59-15-15-15H667.42c-7.85,0-15.37,6.9-15,15s6.59,15,15,15Z"/><path class="cls-1" d="M667.89,895.66H933.53c7.84,0,15.36-6.9,15-15s-6.59-15-15-15H667.89c-7.85,0-15.36,6.9-15,15s6.59,15,15,15Z"/><path class="cls-1" d="M668.36,975.66H934c7.85,0,15.36-6.9,15-15s-6.59-15-15-15H668.36c-7.84,0-15.36,6.9-15,15s6.59,15,15,15Z"/><path class="cls-1" d="M668.84,1055.66H934.47c7.85,0,15.36-6.9,15-15s-6.59-15-15-15H668.84c-7.85,0-15.37,6.9-15,15s6.59,15,15,15Z"/><path class="cls-1" d="M669.31,1135.66H934.94c7.85,0,15.37-6.9,15-15s-6.59-15-15-15H669.31c-7.85,0-15.36,6.9-15,15s6.59,15,15,15Z"/><path class="cls-2" d="M719.62,228.09a44.35,44.35,0,0,0-11.45-5.41q-4.39-2.27-8.73-4.89c-5.51-3.33-11-7-16.32-11a161.3,161.3,0,0,1-14.35-11.94,92.21,92.21,0,0,1-11.12-12.5,50.21,50.21,0,0,1-6.93-12.85l-.32-.83-.23-.82-.48-1.67c-.17-.57-.23-1.16-.36-1.75s-.27-1.17-.34-1.8a48.67,48.67,0,0,1-.34-8.18,110.26,110.26,0,0,1,3.06-19.91c1.65-7.29,3.71-15.09,5.43-23.4.23-1,.44-2.08.62-3.16l.59-3.18q.52-3.25,1-6.54l.34-3.35c.11-1.1.23-2.21.28-3.41.17-2.35.2-4.67.16-7a87,87,0,0,0-4.72-26.44,84.37,84.37,0,0,0-12-23,68.06,68.06,0,0,0-18.35-17.22A52.24,52.24,0,0,0,602.33,10l-.2.82a48.12,48.12,0,0,1,18.22,12.79A57.3,57.3,0,0,1,631.19,42a66.54,66.54,0,0,1,4,20.29A62.26,62.26,0,0,1,633,81.86a95.66,95.66,0,0,1-7.82,18.28c-3.33,6.27-7.19,12.71-11.13,19.8A157.54,157.54,0,0,0,602.89,144a99.26,99.26,0,0,0-4,14.66c-.26,1.29-.41,2.64-.61,4s-.4,2.67-.49,4l-.26,4.12-.11,2.06,0,2a103.9,103.9,0,0,0,5.14,31.63,149.18,149.18,0,0,0,12.11,27.41,220.76,220.76,0,0,0,15.4,23.48q8,10.72,17.21,20.89c4.61,5.11,9.53,10,14.7,14.82a43.86,43.86,0,1,0,57.6-65Z"/><path class="cls-1" d="M724.67,219.45c-4-2.55-8.31-4.09-12.62-6a100.82,100.82,0,0,1-12.8-7.54,159.48,159.48,0,0,1-24-18.68c-6.07-5.85-12.14-12.66-15-20.74-2.12-6-1.85-12.53-.92-18.76,2.59-17.34,8.47-34,10.25-51.48a98,98,0,0,0-11.87-57.47C646,17.86,626.35,2.71,602.33,0c-4.17-.47-8.71,3.42-9.64,7.34l-.2.82c-1.37,5.76,1.83,10.16,7,12.3,14.43,6,22.89,21.06,25.2,35.91,2.81,18.09-4.73,33-13.42,48.28-8.83,15.47-17.58,31.2-21.45,48.76a99.77,99.77,0,0,0-1.6,33.23c4.37,36.68,25.66,68.86,49.61,96,11.75,13.3,24.73,28.34,42.25,33.64a54,54,0,0,0,46.6-7.85,54.61,54.61,0,0,0,22.59-42.95c.34-18.71-9.38-35.59-24.58-46-4.45-3.06-11.1-.83-13.68,3.59-2.9,5-.88,10.61,3.58,13.68,20.39,14,18.83,45.24-2.49,57.4a34.27,34.27,0,0,1-37.41-2.61c-6.4-4.91-12.22-11.63-17.73-17.51s-11-12.28-16-18.79c-18.22-23.53-34.29-52-33.45-82.68.79-28.86,19.28-50.57,30.56-75.78,15.78-35.3,4.13-80-33.23-95.53l7,12.3.19-.82L602.33,20C621,22.11,635,37.41,642.78,53.45a74.51,74.51,0,0,1,7.1,26.5,88.17,88.17,0,0,1-.22,15c-.08.83-.16,1.66-.25,2.49,0,.34-.17,1.49,0-.16-.17,1.37-.39,2.73-.61,4.09-2.92,17.75-9.5,35-10.19,53.12-.67,17.75,8.38,32.69,20.53,45,8.08,8.2,17.45,15.27,27,21.69,4.55,3.06,9.21,6,14,8.6s9.79,4,14.37,6.95C725.47,243.64,735.51,226.34,724.67,219.45Z"/><path class="cls-2" d="M845.29,233.13a43.15,43.15,0,0,1,11.13-5.25q4.26-2.2,8.47-4.75c5.35-3.23,10.67-6.82,15.85-10.66a156.67,156.67,0,0,0,13.94-11.6,89.08,89.08,0,0,0,10.8-12.15,48.65,48.65,0,0,0,6.73-12.47l.31-.8.22-.8.47-1.63c.16-.54.22-1.12.35-1.7s.26-1.13.33-1.75a45.83,45.83,0,0,0,.32-7.93,106.72,106.72,0,0,0-3-19.34c-1.6-7.08-3.61-14.66-5.28-22.73-.22-1-.42-2-.6-3.06l-.57-3.09c-.35-2.11-.65-4.23-.94-6.35l-.34-3.25c-.11-1.08-.21-2.15-.27-3.32-.16-2.28-.19-4.54-.15-6.78A84.56,84.56,0,0,1,907.68,68a81.8,81.8,0,0,1,11.61-22.29A66.17,66.17,0,0,1,937.11,29a50.79,50.79,0,0,1,22.09-7.65l.19.8A46.72,46.72,0,0,0,941.7,34.59a55.73,55.73,0,0,0-10.53,17.8,64.55,64.55,0,0,0-3.89,19.71,60.77,60.77,0,0,0,2.09,19,93.08,93.08,0,0,0,7.6,17.75c3.23,6.09,7,12.35,10.81,19.23a152.65,152.65,0,0,1,10.88,23.38,96.38,96.38,0,0,1,3.86,14.24c.25,1.25.4,2.56.6,3.85s.38,2.59.47,3.91l.25,4,.1,2v2a100.55,100.55,0,0,1-5,30.71,144.47,144.47,0,0,1-11.75,26.62,214.16,214.16,0,0,1-15,22.8c-5.2,6.95-10.74,13.71-16.71,20.29-4.48,5-9.26,9.74-14.28,14.39a42.07,42.07,0,0,1-8.76,7.78,42.59,42.59,0,1,1-47.18-70.93Z"/><path class="cls-1" d="M850.34,241.76c4.12-2.6,8.53-3.94,12.83-6.14a142.91,142.91,0,0,0,13.17-7.9,187.67,187.67,0,0,0,24.77-19.18c12.4-11.57,22.62-26.13,23.14-43.56.54-18-6.48-35.63-9.61-53.13-.25-1.42-.47-2.84-.69-4.26,0-.22-.36-2.86-.13-.86-.06-.59-.13-1.18-.18-1.77a100.46,100.46,0,0,1-.54-11.24,75.34,75.34,0,0,1,5.71-27C925.69,50,940.23,33.48,959.2,31.37L949.56,24l.19.8,7-12.3C942,18.67,930.35,29.4,923.81,44.17c-6.71,15.17-8.59,32.66-4.3,48.79,7.65,28.71,31.9,50.83,34.13,81.32,2,27.8-9.81,53.4-25.36,75.76a241,241,0,0,1-31.4,36.62c-5.22,5-9.69,10-16.65,12.53a32.54,32.54,0,0,1-19.42,1c-26.5-6.84-33.25-42.77-10.47-58.45,4.44-3.06,6.46-8.78,3.59-13.68-2.58-4.4-9.21-6.67-13.68-3.59-26.47,18.22-31.89,55.05-10.42,79.41a52.66,52.66,0,0,0,39.91,17.31,53.73,53.73,0,0,0,25-6.79c7.59-4.24,13.52-10.79,19.63-16.84C939,273.14,962,242.12,970.56,208a104.2,104.2,0,0,0,2.9-35.78c-1.76-17-8.1-32.8-16.28-47.73-8.77-16-20.24-31.52-19.95-50.55.25-16.78,8.49-35.29,24.82-42.08,5.13-2.13,8.37-6.48,7-12.3l-.19-.8c-.91-3.86-5.45-7.8-9.64-7.34-40.75,4.53-66.14,45.29-66.11,84,0,16,4.34,31.64,7.94,47.08,2,8.35,4.35,17.56,2.89,26.18-1,6.1-4.36,11.64-8.16,16.4-6.9,8.66-15.74,15.83-24.77,22.16-4.69,3.29-9.53,6.42-14.52,9.26-5.28,3-11.07,4.75-16.22,8C829.4,231.35,839.42,248.66,850.34,241.76Z"/></g></g></svg>