<svg xmlns="http://www.w3.org/2000/svg" viewBox="0 0 909.99 848.34"><defs><style>.cls-1{font-size:12px;font-family:MyriadPro-Regular, Myriad Pro;}.cls-2{fill:#fff;}.cls-3{fill:#c7b299;}.cls-4{fill:#444;}.cls-5{fill:#998977;}.cls-6{fill:#ccc;}.cls-7{fill:#e6e6e6;}.cls-8{fill:none;stroke:#444;stroke-linecap:round;stroke-miterlimit:10;stroke-width:18px;}</style></defs><g id="Layer_2" data-name="Layer 2"><g id="Layer_1-2" data-name="Layer 1"><text class="cls-1" transform="translate(754.96 726.48)"> </text><path class="cls-2" d="M304.28,257.49c.06-1.51,0-3.33-.08-5.18s-.23-3.81-.43-5.78c-.37-3.94-.92-8-1.59-12a189.53,189.53,0,0,0-5.49-23.64c-4.6-15.23-11-29-18.9-39.68a83.82,83.82,0,0,0-6.28-7.59,74.34,74.34,0,0,0-7-6.53,65.54,65.54,0,0,0-16.9-10c-12.75-5.23-29.2-7-47.07-5.17a187.28,187.28,0,0,0-27.51,5l-7,1.91-9.1,2.68-2.3.66c-.78.21-1.58.38-2.37.57l-4.75,1.1c-1.59.35-3.13.76-4.76,1l-4.86.81a136.3,136.3,0,0,1-39.92.82l-2.52-.33-1.25-.18-1.26-.25-5-1.05-2.48-.55-2.48-.72L78,151.9c-1.62-.49-3.22-1.2-4.81-1.79l-2.38-.94c-.79-.32-1.58-.62-2.35-1l-4.59-2.27c-.76-.39-1.53-.73-2.26-1.17l-2.2-1.31-4.33-2.65-4.11-3-2-1.49c-.66-.52-1.29-1.09-1.92-1.63l-3.77-3.3c-1.21-1.15-2.35-2.36-3.5-3.55L38.08,126c-.56-.59-1.06-1.26-1.59-1.88l-3.11-3.8c-1-1.3-1.88-2.66-2.81-4l-1.36-2c-.46-.66-.83-1.38-1.25-2.07l-2.39-4.16c-.75-1.4-1.4-2.86-2.09-4.28l-1-2.14c-.34-.7-.59-1.46-.88-2.18l-1.68-4.38c-.51-1.47-.92-3-1.38-4.45-1-2.93-1.49-6-2.17-8.94a95.32,95.32,0,0,1-1.57-18l0-2.22V60.47l.08-1.11.34-4.4c.07-1.47.36-2.92.56-4.36s.4-2.89.69-4.31A97.47,97.47,0,0,1,28.78,14.73l3.45,1.55a90.85,90.85,0,0,0-3,14.73,87.3,87.3,0,0,0-.45,16.13c.07,1.26.27,2.53.4,3.78s.23,2.49.5,3.72l.7,3.68.17.91.24.9.47,1.8a77.2,77.2,0,0,0,5,13.66c1.16,2.11,2.11,4.26,3.44,6.22.64,1,1.21,2,1.87,3l2.07,2.8c.35.45.65.94,1,1.37l1.13,1.29c.76.86,1.46,1.74,2.24,2.56l2.4,2.35c.4.39.77.8,1.2,1.15l1.28,1.06c.86.7,1.67,1.43,2.53,2.09l2.67,1.86c.45.31.86.65,1.33.91l1.4.8c.18.1.36.2.53.31l0,0,3.11,3.8c.53.62,1,1.29,1.59,1.88l1.72,1.78c1.15,1.19,2.29,2.4,3.5,3.55l3.77,3.3c.63.54,1.26,1.11,1.92,1.63l2,1.49,4.11,3,4.33,2.65,2.2,1.31c.73.44,1.5.78,2.26,1.17l4.59,2.27c.77.39,1.56.69,2.35,1l2.38.94c1.59.59,3.19,1.3,4.81,1.79l4.9,1.47,2.48.72,2.48.55,5,1.05,1.26.25,1.25.18,2.52.33a136.3,136.3,0,0,0,39.92-.82l4.86-.81c1.63-.27,3.17-.68,4.76-1l4.75-1.1c.79-.19,1.59-.36,2.37-.57l2.3-.66,9.1-2.68,7-1.91a187.28,187.28,0,0,1,27.51-5c17.87-1.83,34.32-.06,47.07,5.17a65.54,65.54,0,0,1,16.9,10,74.34,74.34,0,0,1,7,6.53,83.82,83.82,0,0,1,6.28,7.59c7.94,10.72,14.3,24.45,18.9,39.68a189.53,189.53,0,0,1,5.49,23.64c.67,4,1.22,8.07,1.59,12,.2,2,.34,3.91.43,5.78s.14,3.67.08,5.18l105.78-21.18,0,.09.56,1.59c1,2.88,2,5.83,2.91,9Z"/><path class="cls-3" d="M332.28,240.49c.06-1.51,0-3.33-.08-5.18s-.23-3.81-.43-5.78c-.37-3.94-.92-8-1.59-12a189.53,189.53,0,0,0-5.49-23.64c-4.6-15.23-11-29-18.9-39.68a83.82,83.82,0,0,0-6.28-7.59,74.34,74.34,0,0,0-7-6.53,65.54,65.54,0,0,0-16.9-10c-12.75-5.23-29.2-7-47.07-5.17a187.28,187.28,0,0,0-27.51,5l-7,1.91-9.1,2.68-2.3.66c-.78.21-1.58.38-2.37.57l-4.75,1.1c-1.59.35-3.13.76-4.76,1l-4.86.81a136.3,136.3,0,0,1-39.92.82l-2.52-.33-1.25-.18-1.26-.25-5-1.05-2.48-.55-2.48-.72L106,134.9c-1.62-.49-3.22-1.2-4.81-1.79l-2.38-.94c-.79-.32-1.58-.62-2.35-1l-4.59-2.27c-.76-.39-1.53-.73-2.26-1.17l-2.2-1.31-4.33-2.65-4.11-3-2-1.49c-.66-.52-1.29-1.09-1.92-1.63l-3.77-3.3c-1.21-1.15-2.35-2.36-3.5-3.55L66.08,109c-.56-.59-1.06-1.26-1.59-1.88l-3.11-3.8,0,0c.74.43,1.47.88,2.22,1.28l2.86,1.34c.47.22.93.46,1.41.66l1.47.53,2.89,1.08,3,.8a59.12,59.12,0,0,0,24.17,1.12,87.63,87.63,0,0,0,24-7.4l2.93-1.36c1-.44,1.94-1,2.91-1.55l2.88-1.57c.48-.26,1-.5,1.44-.78l1.43-.9,2.84-1.77,1.41-.88.7-.43.87-.51,7.8-4.56a257.7,257.7,0,0,1,33.65-16l4.5-1.7c1.51-.56,3.06-1.06,4.6-1.59,3.05-1.08,6.22-2,9.39-2.93,1.58-.49,3.2-.9,4.82-1.31l4.88-1.22,5-1.06,2.51-.52,2.54-.43,5.12-.84,5.22-.65c1.73-.23,3.5-.38,5.27-.52s3.54-.31,5.34-.38a171.14,171.14,0,0,1,21.91.32,160,160,0,0,1,44.36,10.16,170.74,170.74,0,0,1,20.94,9.73,185.2,185.2,0,0,1,19.24,12.27,211.55,211.55,0,0,1,32.73,29.64,266.62,266.62,0,0,1,25.62,33.55,314.08,314.08,0,0,1,20,35.8c2.92,6.15,5.66,12.39,8.22,18.82,1.27,3.19,2.49,6.43,3.68,9.77Z"/><path class="cls-3" d="M216.89,136.22S205,89.37,248.23,60.52"/><path class="cls-4" d="M231.35,132.24c-.15-.63-.27-1.27-.39-1.91s-.18-1.45-.35-2.14c1.39,5.72.26,2,.1.26q-.35-3.87-.31-7.77,0-2.52.21-5c0-.75.14-1.5.2-2.24.27-3.48-.41,1.78-.06.25.82-3.68,1.39-7.34,2.53-11,.33-1,.71-2.07,1.06-3.11.57-1.68.72-1.82,0-.09a67.88,67.88,0,0,1,3.14-6.34c1.13-2,2.38-3.9,3.67-5.79.37-.53.74-1.06,1.13-1.57-.88,1.13-1,1.28-.31.45s1.45-1.73,2.21-2.57a78,78,0,0,1,6.09-6c.33-.29,3.5-2.9,1.68-1.48,1.25-1,2.57-1.86,3.89-2.75,6.68-4.56,9.67-13.19,5.38-20.52-3.88-6.63-13.8-10-20.52-5.39C220.91,61,205.93,80.77,202,104.72c-1.92,11.61-2.42,24,.46,35.49,2,7.86,10.77,12.59,18.45,10.48a15.23,15.23,0,0,0,10.47-18.45Z"/><path class="cls-4" d="M17.77,12.3c-10.49,37.18-.18,79.59,32.75,102,14.17,9.62,32,13,48.84,10.87,17.29-2.19,32.72-9.27,47.41-18.25,24-14.69,49.2-26,77.27-30.69l3-.49c.68-.11,1.37-.21,2.05-.34,2-.4-5.38.66-2.66.35,4.11-.47,8.2-1,12.33-1.27a154,154,0,0,1,34.89,1.45c24,4.18,44.66,13.25,64.54,27.28,20.66,14.59,38.93,35,53.12,56.32,15.42,23.14,27.85,48.1,35.82,74.52l10.48-18.46L317.36,239.61,300.29,243l19,14.46c.41-24-6.23-49.09-15.72-71-8.48-19.6-21.82-38.12-40.8-48.7-33.85-18.88-74.15-11.24-109.4-.93a134.7,134.7,0,0,1-37.17,5.68,125.46,125.46,0,0,1-16.33-.84c-.92-.11-1.83-.24-2.75-.36-1.81-.22-2.47-1.19,1.68.23a23.31,23.31,0,0,0-2.67-.51c-4.25-.88-8.39-1.88-12.54-3.15C80.74,137,78,136,75.21,134.85c-1.19-.49,1.89,1,.15,0-1.21-.69-2.54-1.23-3.78-1.86a79.63,79.63,0,0,1-10.94-6.66l-2.37-1.73c-3.16-2.28,1.74,1.67-.6-.55-2-1.92-4.16-3.65-6.11-5.65-1.73-1.76-3.39-3.54-5-5.45-.77-.94-1.51-1.91-2.31-2.83-1.09-1.24,2.88,4.27.15,0-.51-.79-1.08-1.55-1.61-2.33-1.42-2.12-2.71-4.34-4-6.57-.91-1.67-1.69-3.4-2.54-5.1-2-4,.9,2.65-.34-.67-3.15-8.47-5.57-17.4-6.07-25.39a90.43,90.43,0,0,1-.08-10.15c.06-1.08.19-2.15.25-3.23,0-.53.08-1.07.12-1.61-.16,2.2,0-.2.14-1.21A82.18,82.18,0,0,1,41.73,22.3L21.21,27.68l3.45,1.56c7.38,3.33,16.13,2.12,20.52-5.38,3.76-6.43,2-17.17-5.38-20.52L36.35,1.78c-7.44-3.36-16-2.17-20.52,5.38A111,111,0,0,0,10.37,111.1a103.32,103.32,0,0,0,45.4,47.46c27.13,14,56.89,16.29,86.84,11.41,9.35-1.52,18.28-4.15,27.37-6.73,18.48-5.22,35.06-7.82,54.3-6.55a38.8,38.8,0,0,1,6,.9,78.6,78.6,0,0,1,8.41,2.17,26.64,26.64,0,0,1,6,2.39,65,65,0,0,1,7.11,4.08A55.76,55.76,0,0,1,262.54,176a72.81,72.81,0,0,1,8.36,12c6,10.38,9.62,20.11,12.85,32.13,3.53,13.16,5.75,24.05,5.53,37.3-.17,10.32,9.68,16.33,19,14.46l120.21-24.06,17.06-3.42c7.82-1.56,12.7-11.11,10.48-18.45C427.6,131.88,347.73,38.54,241.4,44.26c-30.89,1.66-60.49,10.85-88.07,24.64-10,5-19.32,11.16-29.12,16.56-15.11,8.32-31.5,13.51-48,8.28-1.11-.35-2.17-.85-3.27-1.22-2.06-.69.91.37,1.08.46-.84-.43-1.72-.77-2.56-1.2a70.2,70.2,0,0,1-8.17-5.1c3.53,2.44-.8-.79-1.65-1.58s-1.92-1.81-2.83-2.75c-.54-.56-4.78-5.64-2.23-2.36-.68-.88-1.35-1.78-2-2.69-11.83-17-13.34-37.64-7.88-57,2.13-7.54-2.61-16.66-10.47-18.45S20.05,4.22,17.77,12.3Z"/><path class="cls-5" d="M893.66,92c-.65,3-1.16,6.07-2.12,9-.45,1.49-.85,3-1.36,4.5L888.52,110c-.3.73-.54,1.49-.88,2.21l-1,2.17c-.68,1.44-1.33,2.91-2.08,4.34l-2.39,4.22c-.42.7-.79,1.43-1.25,2.1l-1.37,2c-.93,1.35-1.83,2.74-2.82,4.06L873.6,135c-.53.63-1,1.31-1.61,1.91l-1.72,1.82c-1.16,1.21-2.31,2.44-3.53,3.62l-3.8,3.36c-.64.56-1.28,1.13-1.94,1.67l-2,1.53-4.15,3.05-4.38,2.71L848.2,156c-.74.44-1.52.79-2.28,1.2l-4.66,2.32c-.77.41-1.57.71-2.37,1l-2.41,1c-1.62.62-3.23,1.34-4.88,1.85l-5,1.52-2.51.75-2.51.57-5.08,1.09-1.28.27-1.27.18-2.55.36a138.5,138.5,0,0,1-40.49-.59l-4.93-.79c-1.66-.27-3.21-.67-4.83-1l-4.81-1.08c-.8-.19-1.62-.36-2.41-.56l-2.33-.66-9.21-2.65-7-1.81a184,184,0,0,0-27.3-4.56c-17.66-1.57-33.71.48-45.85,5.82a61.44,61.44,0,0,0-15.92,10,71.56,71.56,0,0,0-6.51,6.41A85.14,85.14,0,0,0,634,184c-7.35,10.47-13.26,23.89-17.5,38.83a188.25,188.25,0,0,0-5,23.22c-.58,3.94-1,7.91-1.35,11.76-.16,1.93-.26,3.82-.31,5.63s-.06,3.56,0,5L462.86,239c1.16-3.86,2.35-7.36,3.59-10.79s2.5-6.75,3.82-10q1.37-3.39,2.82-6.7l94.66,18.95c-.1-1.43-.09-3.19,0-5s.16-3.7.31-5.63c.3-3.85.77-7.82,1.36-11.76a188.23,188.23,0,0,1,5-23.22c4.24-14.94,10.15-28.36,17.5-38.83a85.14,85.14,0,0,1,5.81-7.43,71.56,71.56,0,0,1,6.51-6.41,61.61,61.61,0,0,1,15.92-10c12.14-5.34,28.19-7.39,45.85-5.82a183.83,183.83,0,0,1,27.3,4.56l7,1.81,9.21,2.65,2.33.66c.79.2,1.61.37,2.41.56l4.82,1.08c1.61.34,3.17.74,4.82,1l4.93.79a138.5,138.5,0,0,0,40.49.59l2.55-.36,1.27-.18,1.28-.27,5.08-1.09,2.52-.57,2.51-.75,5-1.52c1.65-.51,3.27-1.23,4.88-1.85l2.41-1c.8-.33,1.6-.63,2.38-1l4.65-2.32c.76-.41,1.54-.76,2.29-1.2l.33-.2c1.18.26,2.37.49,3.55.68a57.89,57.89,0,0,0,23.67-.7l2.93-.73,2.85-1,1.46-.5c.47-.19.92-.42,1.39-.63l2.82-1.27c.92-.47,1.81-1,2.73-1.51l1.38-.77c.47-.25.88-.58,1.32-.87l2.65-1.8c.87-.63,1.67-1.34,2.53-2l1.28-1c.43-.34.79-.75,1.19-1.12l2.41-2.29c.77-.8,1.48-1.66,2.24-2.49l1.13-1.27c.39-.42.69-.89,1-1.34L867,94.39c.66-.94,1.25-1.93,1.89-2.9,1.34-1.92,2.31-4,3.48-6.12a75.18,75.18,0,0,0,5.12-13.51l.49-1.78.25-.9.18-.9.73-3.65c.29-1.22.37-2.46.54-3.7s.35-2.5.44-3.76A88.87,88.87,0,0,0,877,26.34l3.7-1.67a97.77,97.77,0,0,1,12.6,31.59c.31,1.43.49,2.88.73,4.33s.52,2.91.6,4.38L895,69.4l.09,1.11,0,1.12,0,2.24A95.17,95.17,0,0,1,893.66,92Z"/><path class="cls-3" d="M806.35,117.79l-.33.2c-.75.44-1.53.79-2.29,1.2l-4.65,2.32c-.78.41-1.58.71-2.38,1l-2.41,1c-1.61.62-3.23,1.34-4.88,1.85l-5,1.52-2.51.75-2.52.57-5.08,1.09-1.28.27-1.27.18-2.55.36a138.5,138.5,0,0,1-40.49-.59l-4.93-.79c-1.65-.27-3.21-.67-4.82-1l-4.82-1.08c-.8-.19-1.62-.36-2.41-.56l-2.33-.66-9.21-2.65-7-1.81a183.83,183.83,0,0,0-27.3-4.56c-17.66-1.57-33.71.48-45.85,5.82a61.61,61.61,0,0,0-15.92,10,71.56,71.56,0,0,0-6.51,6.41,85.14,85.14,0,0,0-5.81,7.43c-7.35,10.47-13.26,23.89-17.5,38.83a188.23,188.23,0,0,0-5,23.22c-.59,3.94-1.06,7.91-1.36,11.76-.15,1.93-.26,3.82-.31,5.63s-.06,3.56,0,5l-94.66-18.95q2.69-6.27,5.64-12.36a319.09,319.09,0,0,1,20.47-36.23,271.65,271.65,0,0,1,26.25-34A215.41,215.41,0,0,1,559,98.89a188.26,188.26,0,0,1,19.7-12.44,174.6,174.6,0,0,1,21.44-9.84,163.29,163.29,0,0,1,45.34-10.17,173.77,173.77,0,0,1,22.33-.21c1.82.08,3.62.27,5.43.42s3.59.31,5.36.55l5.29.69,5.2.89,2.59.45,2.54.54,5,1.1,5,1.28c1.64.42,3.28.85,4.88,1.35,3.21,1,6.41,1.92,9.5,3,1.55.54,3.12,1.06,4.64,1.63l4.54,1.76a257.77,257.77,0,0,1,33.87,16.4l7.83,4.65.49.29.37.23.69.44,1.38.89,2.77,1.78,1.4.91c.46.28.93.52,1.4.79l2.82,1.58c1,.52,1.9,1.12,2.85,1.57l2.86,1.38A88.57,88.57,0,0,0,806.35,117.79Z"/><path class="cls-4" d="M867.71,32.25a79.43,79.43,0,0,1,11.09,28c.37,1.91.72,3.85,1,5.78-.32-2.63,0,1.14.06,1.63.14,1.7.25,3.38.27,5.09a78.49,78.49,0,0,1-4.37,28.8c-.44,1.25-1.07,4.67-2.09,5.55,1.25-1.08,1.28-2.95,0-.32-.79,1.69-1.57,3.37-2.46,5-1.1,2-2.23,4-3.48,6-.94,1.48-2.22,2.88-3,4.43,0,0,2-2.54.9-1.09-.54.68-1.1,1.36-1.65,2a93,93,0,0,1-11.05,11.41c-.32.29-.78.64-1.08.95-1.74,1.87,3-2.2.56-.33l-1.67,1.24c-1.87,1.38-3.72,2.7-5.69,3.92s-3.65,2.31-5.55,3.32c-.86.46-1.75.88-2.63,1.32-.38.19-4,2.05-2.57,1.35s-1.44.59-1.81.74c-1.68.67-3.36,1.34-5.09,1.91-2.26.75-4.57,1.47-6.87,2.09a99.85,99.85,0,0,1-11.38,2.35c-.84.12-3,.3.33,0-1.31.13-2.6.3-3.91.42q-3.89.36-7.79.48a147.73,147.73,0,0,1-19.28-.76,148.64,148.64,0,0,1-16.18-2.89c-8.65-1.94-17.05-4.8-25.7-6.77-22.48-5.11-46.75-7.45-69.28-1.27-25.31,6.95-44.09,26-55.11,49.3a176.19,176.19,0,0,0-12.8,37.56c-2.76,12.59-5.07,26.1-4.49,39l19-14.46L485.26,228.25l-18.42-3.69L477.32,243c14-45.73,40.73-89.48,76.52-121,17.52-15.42,38.74-27.9,61-34.63,22-6.65,43.7-7.82,66.85-4.8,5.05.66-2.91-.5-1-.11,1.38.27,2.78.47,4.16.71q2.94.51,5.85,1.14,9.7,2.1,19.17,5.07C727,94.84,742.33,102.31,758,111.6c9.7,5.77,18.94,11.62,29.47,15.92,20.15,8.23,42.33,9.22,62.33.34,39.52-17.57,52.24-66.54,41.66-105.5l-6.9,16.94,3.7-1.67c7.38-3.34,9.16-14.06,5.38-20.53-4.44-7.59-13.11-8.72-20.52-5.38l-3.7,1.67c-6,2.69-8.5,11-6.89,16.94,4.59,16.89,4,35.22-4.76,50.59A66.72,66.72,0,0,1,853.89,87c-.42.59-2.74,3.19-1.19,1.58s-1.84,2-2.23,2.4c-1,1-2,2-3,2.91-1.21,1.12-2.45,2.14-3.74,3.16,3.39-2.7-.09-.06-.88.45-2.55,1.66-5.35,2.79-8,4.29-1.39.8,3.31-1.09.82-.38-.23.06-.45.16-.67.23-1,.31-1.89.7-2.86,1a37.55,37.55,0,0,1-13.16,1.69c-8.92-.2-18.8-3.38-26.86-7.35s-15.28-9.12-22.94-13.59c-27.41-16-57.44-26.89-88.89-31C629.18,45.81,579.32,63,539.59,95c-43.3,34.87-75,87.25-91.2,140.07-2.25,7.35,2.68,16.89,10.48,18.45l128.67,25.76L606,282.94c9.08,1.81,19.45-4.12,19-14.47-.52-11.64,1-20,3.42-31.06,2.27-10.37,5.78-21.92,9.78-30.38,4.3-9.11,9.45-17.52,16.79-24.39a30.68,30.68,0,0,1,4.26-3.58c1.9-1.27,3.83-2.47,5.85-3.55,1.3-.7,2.63-1.36,4-2,2.85-1.28-3.08.87,1.27-.47,2.42-.74,4.81-1.56,7.28-2.15s4.7-1,7.08-1.39c3-.44-3.53.18,1.83-.18,1.15-.08,2.29-.2,3.44-.26a124.23,124.23,0,0,1,18.2.31A160.92,160.92,0,0,1,734,174.09c8.81,2.28,17.47,5,26.4,6.8,29.62,5.91,61.12,4.59,88.65-8.53a107.77,107.77,0,0,0,47.27-44C915.82,94,914.05,50.65,893.61,17.1a15.28,15.28,0,0,0-20.52-5.38C866.18,15.77,863.47,25.3,867.71,32.25Z"/><path class="cls-6" d="M724.39,443.22v342h-485v-342a291,291,0,0,1,12.72-85.54,271.68,271.68,0,0,1,62.66-108,244,244,0,0,1,62.67-47.54,225,225,0,0,1,62.67-22c2.08-.4,4.16-.77,6.26-1.1a221.68,221.68,0,0,1,35.52-2.85q8.72,0,17.29.67h0c1.19.09,2.38.19,3.57.31a222.61,222.61,0,0,1,62.67,15.29,236,236,0,0,1,62.67,37.72,251.68,251.68,0,0,1,25.25,24.21,266.66,266.66,0,0,1,37.42,53.11C712.14,347.3,724.39,393.68,724.39,443.22Z"/><path class="cls-7" d="M653.39,443.22v342h-414v-342a291,291,0,0,1,12.72-85.54,271.68,271.68,0,0,1,62.66-108,244,244,0,0,1,62.67-47.54,225,225,0,0,1,62.67-22c2.08-.4,4.16-.77,6.26-1.1a222.38,222.38,0,0,1,48.08,13.42,236,236,0,0,1,62.67,37.72,251.68,251.68,0,0,1,25.25,24.21,266.66,266.66,0,0,1,37.42,53.11C641.14,347.3,653.39,393.68,653.39,443.22Z"/><path class="cls-2" d="M502.39,178.24q-9.09,1.13-18,2.85a264.6,264.6,0,0,0-69,23.55,267.87,267.87,0,0,0-68.8,49.78l-.2.2a266.17,266.17,0,0,0-78,188.6v342h-29v-342a291,291,0,0,1,12.72-85.54,271.68,271.68,0,0,1,62.66-108,244,244,0,0,1,62.67-47.54,225,225,0,0,1,62.67-22,222.09,222.09,0,0,1,35.76-3.87q4.28.1,8.52.34c1.31.07,2.62.15,3.93.25h0Q495.43,177.39,502.39,178.24Z"/><path class="cls-4" d="M709.39,443.22V743.09c0,13.75-.84,27.8,0,41.53,0,.2,0,.4,0,.6l15-15H299c-19.5,0-39.34-1.06-58.82,0-.27,0-.55,0-.83,0l15,15V451c0-31.46,3.22-60.73,12.7-90.94,15.08-48.11,43.56-91,83.77-123,41.48-33,96.14-49.68,150.14-45,53.83,4.62,103.79,31.78,140.52,71.62A254.6,254.6,0,0,1,685,329.37c10.3,22.16,17.92,49,21.82,74.73.64,4.28,1.38,11.55,1.81,17.32.53,7.26.77,14.53.79,21.8,0,7.85,6.89,15.37,15,15s15-6.59,15-15c-.17-57.39-16-114.9-47.42-163.12-32.3-49.53-79.9-88.5-136.29-107.12-57.22-18.89-120-14.32-174.54,10.71-50.38,23.12-92,64.1-118.91,112.28-25.13,45-37.78,96.29-37.84,147.76q0,19,0,37.92V785.22a15.22,15.22,0,0,0,15,15H664.75c19.58,0,39.25.58,58.82,0h.82a15.22,15.22,0,0,0,15-15V485.35c0-13.81.47-27.72,0-41.53v-.6c0-7.84-6.9-15.36-15-15S709.39,434.81,709.39,443.22Z"/><circle class="cls-4" cx="377.43" cy="387.97" r="39.04"/><circle class="cls-4" cx="489.35" cy="387.97" r="39.04"/><path class="cls-4" d="M515.52,474.32c0-39.71-164.25-39.71-164.25,0s36.77,71.9,82.12,71.9S515.52,514,515.52,474.32Z"/><path class="cls-6" d="M694.89,490.72h65V304.22c0-16.26,6.8-30.69,17.57-42.43s26.91-16.87,42.43-17.57c15-.67,32,7.17,42.43,17.57a61.92,61.92,0,0,1,17.57,42.43v246.5c0,32.51-27.57,60-60,60h-125"/><path class="cls-4" d="M694.89,505.72h65a15.22,15.22,0,0,0,15-15V311.38c0-2.19,0-4.39,0-6.59a45.25,45.25,0,0,1,4.69-20.1,77.13,77.13,0,0,1,4.87-8c2.67-3.89-1.63,1.62,1.52-1.94,1.06-1.19,2.08-2.4,3.2-3.54a21.4,21.4,0,0,1,5.53-4.54q1.32-.82,2.7-1.59c.51-.29,5.35-2.53,3.5-1.79a61.77,61.77,0,0,1,9-2.76c1.53-.35,3.08-.65,4.63-.91-2.83.47,2.2-.22,2.23-.23a50.38,50.38,0,0,1,9.19,0c-2.91-.29,2.11.45,2.18.46a59.76,59.76,0,0,1,6.15,1.74c18.17,6.17,30.39,23.92,30.59,42.83.51,47,0,94,0,141v83.41q0,10,0,20c0,.54,0,1.08,0,1.62v.25c0,.93-.48,7.47-.07,4.38a53.77,53.77,0,0,1-1.77,8c-.39,1.31-.86,2.58-1.3,3.88-1.35,4,1.39-2.35-.61,1.4-1.27,2.39-2.49,4.77-4,7-.73,1.13-1.5,2.25-2.32,3.31,1.91-2.47-1.61,1.71-2,2.11a65.3,65.3,0,0,1-5.89,5.51c2.43-2-1,.69-1.26.89-1.11.77-2.25,1.49-3.41,2.18s-2.34,1.34-3.54,1.95c-.32.16-4.38,1.93-1.35.71a58,58,0,0,1-9.1,2.81c-1.34.29-2.7.56-4.06.74,3.42-.45-1.16,0-1.54,0-1,.05-1.93.06-2.9.07H694.89c-7.84,0-15.36,6.9-15,15s6.59,15,15,15H808.51c12.06,0,24.07.09,35.6-4.2,24.62-9.17,44.9-30.7,49.42-57.09,1.33-7.74,1.36-15.16,1.36-22.92v-235a79.59,79.59,0,0,0-18.82-51.92c-19.65-23.27-53.44-30.89-81.67-20.76-29.35,10.53-49.17,39.23-49.51,70.38-.06,5.44,0,10.88,0,16.31V490.72l15-15h-65c-7.84,0-15.36,6.9-15,15s6.59,15,15,15Z"/><circle class="cls-6" cx="354.89" cy="368.72" r="18.5"/><circle class="cls-6" cx="466.57" cy="368.72" r="18.5"/><path class="cls-8" d="M395.52,322.12l-.89-.14a81.11,81.11,0,0,0-66.51,19h0"/><path class="cls-8" d="M469.12,322.12l.9-.14a81.08,81.08,0,0,1,66.5,19h0"/><path class="cls-3" d="M459.85,439.24c0-12.69-52.49-12.69-52.49,0s11.75,23,26.24,23S459.85,451.94,459.85,439.24Z"/><path class="cls-4" d="M297.34,173.29a73.92,73.92,0,0,1,5.29-8.39l1.45-2c2.14-3-1.94,2.34-.28.35,1.29-1.54,2.54-3.11,3.88-4.61a100.56,100.56,0,0,1,9.51-9.41c.82-.71,1.69-1.38,2.51-2.09q1.88-1.48-.77.58c.51-.39,1-.78,1.56-1.15,2.2-1.51,4.38-3,6.69-4.37s4.89-2.62,7.4-3.82c1.5-.66,1.29-.58-.63.26.67-.27,1.34-.53,2-.78,1.21-.44,2.43-.85,3.65-1.23a71.33,71.33,0,0,1,8.28-2c.77-.14,1.54-.27,2.31-.38-2,.27-2.18.3-.44.11s3.25-.26,4.89-.31a88.61,88.61,0,0,1,10.3.41c1.76.2,1.78.2.06,0,.92.15,1.83.31,2.75.48,1.89.36,3.76.8,5.63,1.27,7.6,1.89,16.63-2.45,18.45-10.48,1.77-7.77-2.33-16.42-10.47-18.45-23.46-5.86-47.82-3.38-68.9,8.78-14.54,8.39-26.52,20.52-36.09,34.2a71.2,71.2,0,0,0-4.95,7.91c-3.74,7.19-1.85,16.29,5.38,20.53,6.74,3.94,16.77,1.83,20.52-5.39Z"/><path class="cls-4" d="M559.91,124.07c.55,0,1.11.11,1.66.16,3.26.3-3.89-.62-1.65-.24.9.16,1.81.28,2.71.44a107,107,0,0,1,15.77,4c1.61.55,3.19,1.17,4.78,1.76,2.74,1-1.43-.68-.54-.25s1.81.8,2.7,1.22a91.53,91.53,0,0,1,10.19,5.59c1.73,1.1,3.34,2.37,5.05,3.49.7.45-2.24-1.89,0,0,1,.86,2,1.7,3,2.59q2.24,2.06,4.3,4.27c.7.76,1.38,1.53,2,2.32l1,1.2c1.8,2.11-1-1.66-.08-.09,1.34,2.17,2.89,4.19,4.17,6.41.66,1.15,1.3,2.31,1.89,3.49.48.93,2.14,4.77.92,1.73a87.89,87.89,0,0,1,5.11,18.49c1.34,8,11.22,12.46,18.46,10.48,8.47-2.33,11.81-10.44,10.47-18.46-4-23.94-17.06-44.38-36.52-58.66C602.88,105,587.7,98.84,572.57,95.87a100.47,100.47,0,0,0-12.66-1.8c-7.85-.54-15.35,7.28-15,15,.38,8.58,6.59,14.42,15,15Z"/><path class="cls-4" d="M681,83.15c1.14,1.37-3-4.15-1-1.28,1,1.46,2,2.9,2.93,4.41,1.43,2.35,2.68,4.78,3.9,7.24.28.57.49,1.19.79,1.74-1.77-3.28-.5-1.26-.15-.31.64,1.7,1.26,3.39,1.8,5.12a75.32,75.32,0,0,1,2.54,11.08c-.21-1.38-.18-1.77-.07-.15.07,1.1.17,2.2.22,3.31q.15,3.45,0,6.9c-.07,1.2-.17,2.39-.3,3.58.18-1.65.1-.62-.1.42-.49,2.56-1.05,5.08-1.79,7.58a56.43,56.43,0,0,1-6.16,14,15,15,0,0,0,25.9,15.14c12-20.93,16-45.4,9.07-68.72a87.54,87.54,0,0,0-16.32-31.25c-5.2-6.22-15.84-5.37-21.21,0-6.16,6.16-5.21,15,0,21.22Z"/><path class="cls-4" d="M879.1,277.75l4.29,32.94a107.2,107.2,0,0,1-49.5,19.53c-28.4,3.7-54.65-3.51-71.16-16.8l-2.62-20.17c-1.45-11.09,4-21.81,13.65-31.21s25.18-15,40.51-17.46c14.77-2.39,32.39.75,43.64,6.5C869.66,257.09,877.73,267.26,879.1,277.75Z"/><path class="cls-7" d="M400.89,721.22s-65.18,100.56-17,83c7.2-2.62,13.61-20.67,27-14,0,0,.26,36.87,30,48,0,0,28.39-22.74,20.46-60.56,0,0,22.54,16.56,22.17,15.88,0,0,63.2,15.57-10.63-74.32"/><path class="cls-4" d="M392.26,716.18a372.67,372.67,0,0,0-25.17,45c-4.9,10.51-9.89,21.7-10.83,33.4-.9,11.07,5.32,21.08,17.1,21.65,7.09.34,15.08-2.08,20.44-6.71,2.92-2.53,5.21-5.67,8-8.36a21.77,21.77,0,0,1,1.87-1.72c-1.7,1.32,2-1.52.91-.55-.67.62,1.78-.25-.15-.12,1.48-.1.1-.53,1.43.08l-4.95-8.64c.27,24.74,14,48.49,37.34,57.65,3.48,1.36,7.11-.46,9.73-2.58,20.4-16.49,27.94-45.39,23-70.29L456.3,786.29c7.75,5.69,15.64,13.18,24.55,16.91,4,1.68,9.27-1.12,11.29-4.59v0l-11.29,4.59c7.21,1.76,15.76,2.2,22.84-.27,6.9-2.41,12.36-7.59,14.22-14.81,2.4-9.29-1-19-4.86-27.37-8.07-17.8-20.82-33.56-33.1-48.58-3.42-4.18-10.59-3.55-14.14,0-4.14,4.14-3.43,10,0,14.14,9.87,12.07,19.52,24.62,26.92,38.39,1.23,2.28,2.38,4.59,3.42,7-.83-1.89.35,1,.54,1.46.34.94.66,1.88.94,2.83.49,1.64.78,3.31,1.15,5-.8-3.69-.39,1.71-.14,2.2s.08-1.27.23-1.55c0-.07-.16.83-.15.83s-.43,1.42-.43,1.53c0,1,1.19-2.4.25-.71s.15,0,.49-.45a6,6,0,0,1-.81.86c-1.49,1.28,2-.87.73-.51a8.34,8.34,0,0,0-1.13.69c-1.93.94.61-.26.71-.23a9.87,9.87,0,0,0-2.45.73c-.44.13-.94.12-1.35.27-1.16.42,3.08-.14.78-.12-1.77,0-3.5.15-5.27,0-.85,0-1.71-.2-2.57-.23-1.56-.07,3.05.56,1.31.17-.3-.07-.62-.1-.93-.15-.63-.12-1.26-.23-1.89-.38a10.24,10.24,0,0,0-11.29,4.59v0l11.29-4.59c4.75,2-.61-1-1.83-1.87-2.51-1.78-5-3.6-7.51-5.41q-5.22-3.79-10.43-7.62c-7.68-5.64-16.2,3.64-14.69,11.29a52.41,52.41,0,0,1-6.76,37.63c-.67,1.1-1.37,2.19-2.1,3.25-.37.54-2,2.81-1.56,2.19s-1.08,1.3-1.45,1.72c-.65.77-1.33,1.52-2,2.25a40.92,40.92,0,0,1-4,3.8l9.73-2.57a30.45,30.45,0,0,1-13.17-10.05,44.72,44.72,0,0,1-6.45-12.46c-.72-2.18-1.33-4.4-1.83-6.64q-.33-1.48-.6-3c-.21-1.18-.45-3.54-.18-.9-.18-1.77-.41-3.55-.43-5.34,0-3.24-1.81-7.21-4.95-8.63-9.74-4.4-18.78-3-26.82,4-2.41,2.12-4.42,4.6-6.61,6.93-.43.46-3.52,3.53-1.77,2-.12.11-2.17,1.16-.78.53s-1.48.41-1.77.49c-1.11.31-2.25.48-3.36.78,2.07-.56.9-.33-.47-.08-2.54.45,1,.29.08.08-2.26-.55,2.31,1.33-.13-.11,2.15,1.27,1.74,1.43,1.06.71s1.63,2.33.78,1c-1.2-1.91.91,2.45.1.21-.73-2,.27-.32-.05.26.27-.49,0-2.13,0-2.76s.12-1.09.14-1.63c0,.2-.53,2.54-.12.93.25-1,.37-2.05.6-3.05.54-2.38,1.25-4.71,2-7s1.67-4.61,2.57-6.89c.13-.34,1.19-2.84.24-.61.21-.51.43-1,.65-1.52q1-2.31,2.08-4.6c4.62-9.9,9.87-19.52,15.37-29,3.16-5.41,6.39-10.79,9.8-16.05,7-10.84-10.3-20.87-17.27-10.09Z"/><path class="cls-3" d="M456.29,574.7c0-29.55-45.42-29.55-45.42,0s10.17,53.52,22.71,53.52S456.29,604.26,456.29,574.7Z"/></g></g></svg>