<svg xmlns="http://www.w3.org/2000/svg" viewBox="0 0 2759.61 1579.26"><defs><style>.cls-1{fill:#f4b876;}.cls-2{fill:#444;}</style></defs><g id="Layer_2" data-name="Layer 2"><g id="Layer_1-2" data-name="Layer 1"><path class="cls-1" d="M16.34,981.49C-1.61,734.93,159.9,152.83,796.69,374.14s755-202.91,1218.37-341.86C2419.42-89,3544.76,446.49,1793.75,1233.63,316.8,1897.57,48.94,1429.1,16.34,981.49Z"/><path class="cls-2" d="M31.34,981.49C24.72,888.91,40,798.9,68.76,710.76,102,609.09,157.18,511.91,240.17,441.85,337,360.07,463.86,331.33,589.32,342.37,630.08,346,670.41,353.52,710,363.62c47.78,12.18,93.79,29.73,141,43.9,85.12,25.57,173.6,43,262.71,44.32,70.51,1,141.23-8.77,208.47-30.19,61.32-19.53,119.37-48.12,174.53-81C1609.92,273,1713,189.87,1829.08,126.81c61.9-33.64,127.16-62.38,195.06-81.55A379.1,379.1,0,0,1,2066.41,36c3.48-.57,7-1.07,10.47-1.57s-3.61.45-.14,0l2.91-.37c2.28-.27,4.56-.54,6.84-.79q11.48-1.26,23-2a646.53,646.53,0,0,1,100.44,1.81q13.46,1.23,26.84,2.95c1,.12,7,.93,2.77.35q3.39.47,6.78,1,6.81,1,13.6,2.09,27,4.38,53.59,10.55a842.91,842.91,0,0,1,106.37,32q13.3,5,26.42,10.45c.57.23,4.26,1.79.78.32l3.26,1.39c1.81.78,3.61,1.55,5.41,2.34q6.75,3,13.43,6,25.2,11.61,49.45,25.12c15.66,8.76,31,18.14,45.86,28.2q10.71,7.25,21.1,15c1.79,1.33,3.57,2.68,5.35,4,3,2.31-2.51-2,.49.38l1.75,1.36c3.76,3,7.5,6,11.18,9a463,463,0,0,1,37.42,34.67q8.47,8.8,16.42,18.1,4.09,4.8,8,9.73,1.64,2,3.24,4.11c-2.55-3.29,1.93,2.59,2.69,3.61a333.09,333.09,0,0,1,25.91,40.81c3.68,6.88,7,13.91,10.24,21a20.31,20.31,0,0,1,1.27,2.95c.76,1.88,1.52,3.77,2.25,5.66Q2714,332,2716,337.8a275.56,275.56,0,0,1,11.35,46.59c.16,1,.3,2.05.45,3.07.53,3.61-.41-3.51,0,.12.2,1.72.41,3.44.59,5.16q.69,6.51,1.07,13c.48,8.33.59,16.69.32,25-.27,8.78-1,17.51-2,26.24a14,14,0,0,1-.35,2.68c-.34,2.24-.67,4.48-1,6.71q-1.14,6.8-2.57,13.55a358,358,0,0,1-16.34,54.65c-3.88,10.08-6.11,15.28-11.46,26.5-4.57,9.59-9.49,19-14.68,28.28A587.1,587.1,0,0,1,2642.7,649c-74.5,101.66-178.75,186.36-283,258.83-166,115.41-347,208.94-530.38,293.24-198.63,91.3-401.94,174.25-610.67,239.61-148.62,46.53-301.29,85.07-456.49,101.15C703,1548,643.41,1550.74,584,1548.39c-50.83-2-96.45-7.14-145.51-18.17a637.65,637.65,0,0,1-64.07-17.88,474.34,474.34,0,0,1-55-22,490.15,490.15,0,0,1-50.49-27.52q-11.49-7.18-22.56-15-5.21-3.69-10.3-7.53l-2.76-2.09c-3.11-2.37,2.47,1.94-.61-.47-2.1-1.65-4.2-3.31-6.27-5A448.07,448.07,0,0,1,187.36,1397q-8.87-9.1-17.21-18.71-4.32-5-8.51-10.06-1.72-2.12-3.44-4.26c-.82-1-5.44-6.93-3.06-3.84a505.8,505.8,0,0,1-53.54-86.82q-5.49-11.23-10.48-22.71c-.44-1-3.11-7.28-1.49-3.43-.85-2-1.68-4-2.5-6q-2.47-6.06-4.82-12.17-9.23-24-16.55-48.75A830.06,830.06,0,0,1,42.67,1079q-2.1-12.62-3.86-25.27c-.14-1-.94-6.92-.37-2.62-.29-2.21-.58-4.41-.86-6.62-.51-4-1-8.09-1.47-12.14q-2.94-25.35-4.77-50.82c-1.4-19.14-31.41-19.3-30,0,5.22,71.22,15.9,142.51,36.76,210.93,20.81,68.24,52,133.16,96.16,189.37,46,58.42,106.08,104.79,173.43,136,86.95,40.31,182.73,57,278,60.66,133.09,5,266.73-14.37,396.39-43,185.53-40.92,366.27-102.45,542.84-172,215.35-84.85,428.07-180.09,630.1-293.35,142.2-79.71,282.07-169.27,401.41-281.13,75-70.3,144.83-152.52,181.27-249.94,25.14-67.22,30.26-141.71,6.85-210.18-22.29-65.24-66.41-120.67-119-164.39-57.67-47.95-124.49-83.53-194.4-110.11a841.92,841.92,0,0,0-219-51C2147.43-2.81,2080-1.5,2017,16.1c-136.1,38-257.47,112.4-373.16,191.4-106.09,72.44-212.29,149.34-336.56,187.38-157.56,48.23-323,24.7-477.1-25.28-46.25-15-91.84-30.85-139.4-41.4a762,762,0,0,0-123.22-17.38c-68-3.71-137.34,3.62-201.86,26C254.33,375.44,165.38,456.41,105.4,556.75,50.51,648.57,18.33,753.59,5.4,859.44c-4.94,40.42-7,81.4-4.06,122C2.71,1000.63,32.72,1000.78,31.34,981.49Z"/></g></g></svg>