<svg xmlns="http://www.w3.org/2000/svg" viewBox="0 0 732 786.36"><defs><style>.cls-1{fill:#cc9d72;}.cls-2{fill:#ffc58c;}.cls-3{fill:#898989;}.cls-4{fill:#666;}.cls-5{fill:#fff;}.cls-6{fill:#444;}.cls-7{fill:#fce8d6;}.cls-8{fill:none;stroke:#444;stroke-linecap:round;stroke-miterlimit:10;stroke-width:18px;}.cls-9{fill:#d6c425;}.cls-10{fill:#b2a120;}</style></defs><g id="Layer_2" data-name="Layer 2"><g id="Layer_1-2" data-name="Layer 1"><path class="cls-1" d="M539.06,315.4V771.09H15.34V315.4A314.2,314.2,0,0,1,29.08,223c13.74-44.8,37.22-84.67,67.66-116.57a263.51,263.51,0,0,1,67.67-51.33,243.1,243.1,0,0,1,67.67-23.78q3.38-.64,6.76-1.19a239.52,239.52,0,0,1,38.36-3.07q9.41,0,18.67.72h0c1.29.1,2.57.2,3.86.33a240.89,240.89,0,0,1,67.67,16.51A255.08,255.08,0,0,1,435.1,85.39a271,271,0,0,1,27.27,26.14,288.07,288.07,0,0,1,40.41,57.35C525.83,211.82,539.06,261.9,539.06,315.4Z"/><path class="cls-2" d="M462.39,315.4V771.09h-447V315.4A314.2,314.2,0,0,1,29.08,223c13.74-44.8,37.22-84.67,67.66-116.57a263.51,263.51,0,0,1,67.67-51.33,243.1,243.1,0,0,1,67.67-23.78q3.38-.64,6.76-1.19a240.7,240.7,0,0,1,51.92,14.49,254.92,254.92,0,0,1,67.67,40.74,269.92,269.92,0,0,1,27.27,26.14,288.07,288.07,0,0,1,40.41,57.35C449.16,211.82,462.39,261.9,462.39,315.4Z"/><path class="cls-3" d="M539.06,402V771.09H15.34V402H94.87c5.11,67.68,61.64,91,130.63,91S351,469.64,356.13,402Z"/><rect class="cls-4" x="462.39" y="397.46" width="76.67" height="373.63"/><rect class="cls-5" x="15.34" y="399.46" width="24.66" height="371.63"/><path class="cls-6" d="M529.06,402V756c0,4.75-.44,9.73,0,14.46,0,.21,0,.43,0,.65l10-10H36.66c-6.73,0-13.71-.54-20.42,0-.29,0-.6,0-.9,0l10,10v-354c0-4.74.44-9.72,0-14.46,0-.21,0-.43,0-.64l-10,10H94.87l-10-10c2,25.13,10.9,49.31,29.61,66.85,17.77,16.64,41.27,25.81,64.92,30.16a261.61,261.61,0,0,0,81.8,1.62c24.41-3.3,48.72-10.69,68.4-26,22.95-17.81,34.22-44.19,36.53-72.67l-10,10H539.06c12.87,0,12.89-20,0-20H356.13c-5.73,0-9.56,4.6-10,10-1.7,21-9.44,39.65-24.57,53.45C306.71,469,286.15,476.1,265.64,479.8c-23.53,4.23-48.77,4.38-72.54,1.23-21.06-2.79-41.76-8.78-58.82-21.54-17.62-13.17-27.53-34.35-29.41-57.53-.44-5.39-4.23-10-10-10H15.34a10.14,10.14,0,0,0-10,10V725.61c0,14.9-.6,29.94,0,44.83,0,.21,0,.43,0,.65a10.15,10.15,0,0,0,10,10H474.8c21.07,0,42.29.71,63.36,0h.9a10.14,10.14,0,0,0,10-10V447.43c0-14.9.6-29.93,0-44.83,0-.21,0-.43,0-.64C549.06,389.09,529.06,389.07,529.06,402Z"/><path class="cls-6" d="M524.06,315.4V715c0,18.34-1.06,37,0,55.35,0,.26,0,.53,0,.79l15-15H36.66c-6.77,0-13.66-.37-20.42,0h-.9l15,15V350.27c0-11.62,0-23.24,0-34.86a298.23,298.23,0,0,1,15.55-95.73A260,260,0,0,1,64,177.63,290,290,0,0,1,89.19,138.1,260.55,260.55,0,0,1,157,76.65c27.78-17.13,59.73-29,91.47-32.84,66.7-8,132.55,13.51,182.19,57.43,49,43.35,79.24,102.2,89.8,166.51a311.42,311.42,0,0,1,3.65,47.65c0,7.84,6.88,15.36,15,15s15-6.59,15-15c-.19-68.78-21.38-137.7-63.15-192.7C447.68,65.76,384.53,24.49,313,14.73a257.56,257.56,0,0,0-107.77,7.7C171,32.53,139.57,49.78,111.87,72.16,59.94,114.12,24,175.06,9,239.84,2,269.91.34,300.33.34,331V771.09a15.22,15.22,0,0,0,15,15H474.8c21.09,0,42.28.6,63.36,0h.9a15.22,15.22,0,0,0,15-15V371.53c0-18.42.57-36.94,0-55.35,0-.26,0-.52,0-.78,0-7.85-6.9-15.37-15-15S524.06,307,524.06,315.4Z"/><path class="cls-4" d="M550,290.46a273.29,273.29,0,0,1-13.78,86L486.88,368a275.71,275.71,0,0,0,0-155.16,270.77,270.77,0,0,0-10.1-28.35A274.38,274.38,0,0,0,249.91,17.67q13-1.2,26.09-1.21a273.71,273.71,0,0,1,274,274Z"/><path class="cls-3" d="M498,290.46A273.91,273.91,0,0,1,486.88,368l-24.49-4.22L420,356.46V193.74L225,111.46l-28.26,10L67,167.46,52,194.13S153.62,26.57,249.91,17.67A274.38,274.38,0,0,1,476.74,184.46a270.77,270.77,0,0,1,10.1,28.35A274.14,274.14,0,0,1,498,290.46Z"/><path class="cls-6" d="M550,290.46a270,270,0,0,1-13.42,83.34l12.3-7-88.75-15.27-27.47-4.73,7.34,9.65V193.74c0-4.88-3.2-7.9-7.34-9.65l-63.21-26.67-104-43.89c-8.8-3.72-17.54-7.87-26.5-11.18-6.13-2.27-13.33,1.86-19.08,3.89l-102,36.16L79.22,156.09c-4.07,1.44-8.34,2.48-10.87,6.34-4.15,6.35-7.52,13.38-11.24,20l-3.74,6.66C47,200.36,63.66,209.94,70.63,199.17c3.1-4.78,6.39-9.46,9.69-14.1q5.59-7.86,11.41-15.57L95,165.21,96,163.85c-.1.13-.94,1.21-.23.3L98,161.33q3.93-5,7.94-10c25.95-32,55.23-63.29,88-87.48,16.5-12.16,35.22-23.5,53.48-30.06a141.87,141.87,0,0,1,14.39-4.36c2.22-.54,4.46-1,6.7-1.45,2.81-.52,4.07-.72,5.6-.88,12.76-1.37,25.78-.63,38.52.6,57.21,5.52,112,30.77,153.86,70.09,46.33,43.56,76.37,103.46,82.28,166.92.79,8.55,1.16,17.12,1.19,25.71,0,12.86,20,12.89,20,0a286.51,286.51,0,0,0-70.89-187.69C458.71,56.71,403,24.22,342.87,12.18c-26.62-5.34-55.37-8.55-82.21-2.93-21.08,4.41-41.1,14-59.25,25.4-37.89,23.81-70.31,56.1-99.19,90Q85,145,69.21,166.46c-5.15,7-10.83,14.07-15.19,21.62-.2.34-.44.67-.65,1l17.26,10.09,15-26.67-6,4.6,138.7-49.16,19.3-6.84h-5.32l65.83,27.78,105,44.29,24.18,10.21L420,193.74V356.46c0,4,3.08,8.91,7.34,9.64l95.91,16.5,20.31,3.5c5.53.95,10.48-1.43,12.3-7A288.28,288.28,0,0,0,570,290.46C570,277.59,550,277.57,550,290.46Z"/><circle class="cls-6" cx="164.4" cy="255.74" r="42.16"/><circle class="cls-6" cx="285.25" cy="255.74" r="42.16"/><path class="cls-6" d="M313.51,349c0-42.89-177.36-42.89-177.36,0s39.7,77.64,88.68,77.64S313.51,391.86,313.51,349Z"/><circle class="cls-7" cx="140.06" cy="234.95" r="19.98"/><circle class="cls-7" cx="260.66" cy="234.95" r="19.98"/><path class="cls-8" d="M183.93,184.63l-1-.15a87.57,87.57,0,0,0-71.82,20.57h0"/><path class="cls-8" d="M263.41,184.63l1-.15a87.57,87.57,0,0,1,71.82,20.57h0"/><polygon class="cls-9" points="539.06 691.96 256.5 691.96 224.5 659.96 188.5 690.08 15 690.08 15 609.46 539 609.46 539.06 691.96"/><polygon class="cls-10" points="539.06 691.96 462.39 691.96 462.39 609.46 539 609.46 539.06 691.96"/><rect class="cls-5" x="15.34" y="609.46" width="24.66" height="80.62"/><path class="cls-6" d="M539.06,677H256.5l10.61,4.39-32-32c-6.1-6.1-15-5.21-21.22,0l-36,30.12,10.61-4.39H15l15,15V609.46l-15,15H517.67c6.77,0,13.66.36,20.43,0,.3,0,.6,0,.9,0l-15-15,.06,82.5c0,7.84,6.9,15.36,15,15s15-6.59,15-15l-.06-82.5a15.22,15.22,0,0,0-15-15H79.3c-21.1,0-42.3-.61-63.4,0H15a15.22,15.22,0,0,0-15,15v80.62a15.22,15.22,0,0,0,15,15H161.58c9.45,0,19.51,1,28.91-.27,5.28-.71,9.09-4.52,13-7.81L216,686.58l19.14-16H213.89l25.9,25.9c4.92,4.92,9.05,10.12,16.73,10.5,1,0,2,0,3,0h279.5c7.85,0,15.36-6.9,15-15S547.47,677,539.06,677Z"/><path class="cls-4" d="M517.2,433.69h70.19V232.3c0-17.55,7.34-33.14,19-45.81s29.06-18.22,45.82-19c16.14-.72,34.58,7.75,45.82,19a66.83,66.83,0,0,1,19,45.81V498.48c0,35.11-29.77,64.79-64.79,64.79h-135"/><path class="cls-2" d="M717,232.31v33.8a112,112,0,0,1-129.58,2.38V232.31c0-17.56,7.34-33.14,19-45.82s29.06-18.22,45.82-19c16.14-.73,34.58,7.74,45.82,19A66.86,66.86,0,0,1,717,232.31Z"/><path class="cls-6" d="M702,232.31v33.8l7.43-13c-34.69,25.25-78.91,26.31-114.44,2.38l7.43,13V244.1c0-11.42-.49-18.75,3.16-28.9a52.18,52.18,0,0,1,4.62-9.1,43.9,43.9,0,0,1,6.8-9,31.05,31.05,0,0,1,8.32-6.9c1.76-1.06,3.56-2,5.41-2.9,2.29-1.12-1.72.62.66-.31,1.19-.47,2.41-.9,3.63-1.29a73.75,73.75,0,0,1,12-2.81c-2.33.34.23,0,.6,0,1-.08,2-.18,3-.24a58.33,58.33,0,0,1,7.48.05c.43,0,2.86.46.55,0,1,.18,2,.38,3,.61a60.89,60.89,0,0,1,6,1.7c1,.33,2,.69,3,1.07-1.82-.71.6.26.8.36a78.74,78.74,0,0,1,7,3.73,45.73,45.73,0,0,1,16.56,17.07A51.68,51.68,0,0,1,702,232.31c.11,7.84,6.82,15.36,15,15s15.11-6.6,15-15c-.56-41.24-32.58-76.24-73.84-79.66-39.45-3.28-77,25.6-84.18,64.44-1.9,10.25-1.56,20.49-1.56,30.85v15.44c0,7.23.76,13.31,7.43,18.06,31.92,22.74,76.87,27.55,113.36,14.11a126.49,126.49,0,0,0,29.4-15.08c5.51-3.89,9.14-7.89,9.39-15,.06-1.63,0-3.26,0-4.88V232.31c0-7.85-6.9-15.37-15-15S702,223.9,702,232.31Z"/><path class="cls-6" d="M517.2,448.69h70.19a15.22,15.22,0,0,0,15-15V240.16c0-2.43,0-4.85,0-7.27a51.75,51.75,0,0,1,5.08-22,53.83,53.83,0,0,1,11.13-15.47,46.24,46.24,0,0,1,3.45-3.12c1.35-1.08.29-.18,0,0,.84-.58,1.69-1.16,2.56-1.7q2-1.22,4-2.28c.69-.36,1.38-.69,2.07-1,2.45-1.17-3.11,1,1.38-.59a82.79,82.79,0,0,1,8.86-2.66c1.75-.41,3.52-.74,5.3-1s.16,0-.17,0c1-.12,2-.21,3.06-.3a53.93,53.93,0,0,1,9.76,0c1.78.18.11,0-.21,0,.77.13,1.52.28,2.28.44,2,.44,4.06,1,6,1.63,10.66,3.43,20.89,10.89,26.81,20.41,4.08,6.55,5.52,10.15,7.2,17.82.18.83.75,4.08.68,3.48-.18-1.42.08,1.14.08,1.14.07,1,.14,2.08.17,3.12,0,.58,0,1.16,0,1.74.17,17.05,0,34.1,0,51.15V498.48c0,.93,0,1.86-.06,2.8s-.66,5.87-.16,2.88a68,68,0,0,1-1.8,8c-.45,1.52-1,3-1.51,4.49s.14-.23.24-.47c-.35.82-.73,1.64-1.13,2.44a66.38,66.38,0,0,1-4.33,7.55c-.41.61-3,4-1.21,1.82q-1.47,1.83-3.06,3.54a79.07,79.07,0,0,1-6.29,6c-2.08,1.81,1.09-.62-1.2.92-1.48,1-3,2-4.49,2.91a61.19,61.19,0,0,1-7.16,3.68c2.67-1.15-1.37.42-2.07.65-1.5.49-3,.93-4.55,1.32s-3.11.68-4.67,1c-1.75.32.34,0,.59-.06-.69.07-1.38.14-2.06.19-1.67.14-3.32.18-5,.2H517.2c-7.84,0-15.36,6.9-15,15s6.59,15,15,15H640.06c13,0,25.82.07,38.2-4.59,26.14-9.86,47.56-32.79,52.3-60.87,1.39-8.2,1.41-16.06,1.41-24.29V234.84a84.35,84.35,0,0,0-20.7-56.1c-21.19-24.21-56.57-32-86.44-21.23-31.09,11.23-52.11,41.77-52.44,74.8-.06,5.93,0,11.86,0,17.79V433.69l15-15H517.2c-7.84,0-15.36,6.9-15,15s6.59,15,15,15Z"/><path class="cls-6" d="M125.56,614.46V683c0,7.84,6.9,15.36,15,15s15-6.59,15-15v-68.5c0-7.85-6.9-15.37-15-15s-15,6.59-15,15Z"/><path class="cls-6" d="M52.56,614.46V683c0,7.84,6.9,15.36,15,15s15-6.59,15-15v-68.5c0-7.85-6.9-15.37-15-15s-15,6.59-15,15Z"/><path class="cls-6" d="M298.56,614.46V683c0,7.84,6.9,15.36,15,15s15-6.59,15-15v-68.5c0-7.85-6.9-15.37-15-15s-15,6.59-15,15Z"/><path class="cls-6" d="M390.56,614.46V683c0,7.84,6.9,15.36,15,15s15-6.59,15-15v-68.5c0-7.85-6.9-15.37-15-15s-15,6.59-15,15Z"/><path class="cls-6" d="M468.56,614.46V683c0,7.84,6.9,15.36,15,15s15-6.59,15-15v-68.5c0-7.85-6.9-15.37-15-15s-15,6.59-15,15Z"/><path class="cls-9" d="M449,148.48v22.63a33.47,33.47,0,0,1-44.64,31.56l-42.36-15L231.16,141.41a33.39,33.39,0,0,0-22.32,0L75.64,192.67A33.47,33.47,0,0,1,31,161.11V138.48A33.46,33.46,0,0,1,48.63,109l.37-.23L204.16,14a33.44,33.44,0,0,1,31.68,0L362,81.73,431.37,119A33.46,33.46,0,0,1,449,148.48Z"/><path class="cls-10" d="M449,148.48v22.63a33.47,33.47,0,0,1-44.64,31.56l-22.36-5v-106L431.37,119A33.46,33.46,0,0,1,449,148.48Z"/><path class="cls-6" d="M439,148.48c0,7.49.12,15,0,22.49a23.77,23.77,0,0,1-19.55,23.34c-7.35,1.33-15-2.19-22.06-4.69l-27.46-9.71-79.12-28-49.21-17.4c-3.14-1.11-6.26-2.36-9.46-3.3a44.64,44.64,0,0,0-28.75,1.62l-98.86,38c-10.47,4-20.86,8.39-31.44,12.1-12.43,4.36-26.71-1.46-30.9-14.4C39.52,160.37,41,150.15,41,141.65c0-10.71,3.67-18.61,13-24.26,2.09-1.26,4.17-2.55,6.25-3.82l39-23.81,98-59.84c10.56-6.46,20.54-14,33.59-7.3,9.54,4.87,18.89,10.15,28.33,15.22l94.72,50.87c23.64,12.7,47.31,25.33,70.91,38.09,8.47,4.58,14,11.76,14.21,21.68.28,12.85,20.28,12.89,20,0a44.41,44.41,0,0,0-22.88-38.29c-5.42-3-10.94-5.87-16.41-8.81L369.89,74.62l-76-40.82L247.15,8.7c-4.31-2.32-8.58-4.79-13.22-6.41A43.5,43.5,0,0,0,198,6C169.29,23,141.06,40.8,112.6,58.19L62.85,88.58c-8.63,5.27-18.3,10.14-26.18,16.54C24.87,114.7,21,128.61,21,143.2c0,10.42-1.23,22.08,2.36,32.05C29.7,192.88,47,205.5,66.05,204.56c6.56-.32,12.08-2.19,18-4.47L189.81,159.4c11.93-4.6,25.77-12.64,38.7-8.35,10.77,3.58,21.42,7.58,32.12,11.36l98.15,34.72,40.89,14.46c28.66,10.14,58.8-9.84,59.33-40.62.13-7.5,0-15,0-22.49C459,135.61,439,135.59,439,148.48Z"/><path class="cls-6" d="M60.82,121.75l11.95-8.43A9,9,0,0,1,87,120.69v39.44a9,9,0,0,1-4.12,7.58l-11.95,7.73A9,9,0,0,1,57,167.86V129.13A9,9,0,0,1,60.82,121.75Z"/><path class="cls-6" d="M113.39,91.08l13.52-9.54A10.2,10.2,0,0,1,143,89.87v44.62a10.21,10.21,0,0,1-4.66,8.56l-13.52,8.75a10.2,10.2,0,0,1-15.75-8.57V99.42A10.2,10.2,0,0,1,113.39,91.08Z"/><path class="cls-6" d="M168.44,61.39l13.88-9.8a10.48,10.48,0,0,1,16.53,8.56V106a10.46,10.46,0,0,1-4.79,8.8l-13.88,9A10.49,10.49,0,0,1,164,115V70A10.46,10.46,0,0,1,168.44,61.39Z"/><path class="cls-6" d="M395.93,125.9l-12.74-9A9.62,9.62,0,0,0,368,124.77v42a9.61,9.61,0,0,0,4.4,8.07l12.74,8.25A9.62,9.62,0,0,0,400,175.05V133.76A9.65,9.65,0,0,0,395.93,125.9Z"/><path class="cls-6" d="M341.5,95.07,327.09,84.9a10.88,10.88,0,0,0-17.16,8.89v47.55a10.92,10.92,0,0,0,5,9.14l14.41,9.32a10.88,10.88,0,0,0,16.79-9.13V104A10.88,10.88,0,0,0,341.5,95.07Z"/><path class="cls-6" d="M276.57,62.16l-14.8-10.45a11.18,11.18,0,0,0-17.62,9.13v48.84a11.19,11.19,0,0,0,5.1,9.39l14.8,9.57a11.18,11.18,0,0,0,17.25-9.38v-48A11.2,11.2,0,0,0,276.57,62.16Z"/><rect class="cls-9" x="209.44" y="533.9" width="31.11" height="31.11" transform="translate(-322.62 320.03) rotate(-45)"/><path class="cls-6" d="M228.54,567.92l-22-22V553l22-22h-7.08l22,22v-7.07l-22,22c-4.55,4.56,2.52,11.63,7.08,7.07l22-22a5.09,5.09,0,0,0,0-7.07l-22-22a5.09,5.09,0,0,0-7.08,0l-22,22a5.09,5.09,0,0,0,0,7.07l22,22C226,579.55,233.09,572.48,228.54,567.92Z"/></g></g></svg>