<svg xmlns="http://www.w3.org/2000/svg" viewBox="0 0 1456.77 892.69"><path d="M2541.08,6.69v886h-2909V6.69h44.34a122.84,122.84,0,0,1,41.27,24.55C-263.39,48-248.85,70-227.71,84.13c24,16.09,57.13,19.1,83.41,6.57,23.78-11.33,39.5-33.49,57.71-51.62C-72.17,24.74-56,13.32-37.59,6.69H39.08A114.39,114.39,0,0,1,71.81,24.58c20.5,16,35.4,37.69,55.43,54.13a87.28,87.28,0,0,0,81.49,15.57c25.37-7.93,42.36-29.44,59.94-48,15.8-16.7,33.56-31.72,55.09-39.57h78.33a103.9,103.9,0,0,1,23.48,11.66C448,33.26,463.67,54.94,483.08,73c21.19,19.72,47.94,29,76.86,24,27.49-4.73,46-23.84,64.2-43.41,18-19.37,36.77-37.67,61.94-46.89h78.28a108,108,0,0,1,14.72,6.42C803,25.74,819.63,47.17,838.21,66.06c20.63,21,43.73,33.48,73.89,32,28.32-1.4,48.73-17.34,67.45-37.13,18.34-19.39,36-39.95,60.91-51,2.67-1.17,5.36-2.23,8.06-3.2h78c2.12.74,4.21,1.56,6.28,2.44,49,20.94,71.2,85,128.3,88.82,30.23,2.06,53.9-9.9,74.74-30.88,18.35-18.47,34.55-39.45,57.56-52.54a107.17,107.17,0,0,1,17.25-7.84h78.43c24.59,9,43.29,26.85,60.91,45.84s35.47,38.07,61.9,43.81c29.12,6.32,57.4-2.5,79-22.33,19.6-18,35.24-39.66,57.37-54.85a104.22,104.22,0,0,1,24.82-12.51h78.09c21.07,7.68,38.67,22.14,54.28,38.53,17.59,18.47,34.34,40.14,59.43,48.57,27.47,9.23,58.34,4.27,81.15-13.57,20.53-16.06,35.35-38.19,55.74-54.47a115.17,115.17,0,0,1,34.41-19.06h73.56a131.55,131.55,0,0,1,51,31.39c18.31,18,33.89,40.22,57.39,52,26,13,59.29,10.55,83.54-5.13,21.38-13.83,36-35.85,54.76-52.72a123.69,123.69,0,0,1,42.38-25.51Z" style="fill:#09b9ff"/><path d="M2541.08,29.5a16.31,16.31,0,0,1-4.5.69c-29.22.45-50.41,13.71-70.19,34.18-18.07,18.7-34.81,39.55-58.45,51.58-27.68,14.08-62.48,16.47-91.72,5.74-26.28-9.64-45.24-28.93-63.89-49-17.93-19.31-36.71-37.54-63.92-41.62-29.71-4.45-56,5.86-77.23,26.22-18.83,18-34.49,39.19-56.66,53.52-26.24,17-59.74,21.28-90,14.09-27.53-6.55-48.81-24.72-67.69-44.87-17.3-18.47-34.29-39-59.51-46.39a87.25,87.25,0,0,0-81.06,16.93c-20.32,17.12-35.6,39.27-57,55.26-24.53,18.34-54.81,25.15-85,21.16-29-3.83-52.53-19.2-72.74-39.73-17.9-18.17-33.91-40.29-58-50.68-26.48-11.41-58.74-7.85-82.28,8.48-21.29,14.77-36,37.2-55.56,53.94-47.38,40.45-114.1,37.24-159.24-4.76-18.81-17.5-33.89-39.87-56.36-53.09-24.87-14.64-58.6-15-83.72-.72-22.29,12.67-37.34,34.4-55.55,51.85-21.49,20.59-46.78,33.73-76.8,35.66-31.1,2-59.71-8.22-83.42-28-19.47-16.27-33.9-38-54.31-53.2C752.77,29.22,720,24.94,692.69,36.16c-24.17,9.94-40.34,32-58,50.1-19.4,19.91-42.06,35.77-70,40.23-30.77,4.9-62.31-1.23-87.61-19.77-21.56-15.8-37-37.78-57.05-55.19a87.06,87.06,0,0,0-79-18.72c-26.51,6.74-43.95,27.1-61.81,46.19-18.83,20.16-39.72,38.5-67.09,45.52-29.62,7.59-62.81,3.8-89.07-12.14-23-14-39-35.61-58.09-54.08C43.78,37.73,18.08,27-11.81,30.9c-27.37,3.59-46.4,21.39-64.42,40.75-18.6,20-37.32,39.55-63.4,49.5-29.16,11.14-63.91,9.15-91.83-4.55-23.85-11.7-40.79-32.41-58.8-51.2-20-20.92-41.35-34.75-71.17-35.21a15.35,15.35,0,0,1-6.49-1.47c-12.51-6-10.33-28.79,6.49-28.53a120.72,120.72,0,0,1,37.85,6.5,122.84,122.84,0,0,1,41.27,24.55C-263.39,48-248.85,70-227.71,84.13c24,16.09,57.13,19.1,83.41,6.57,23.78-11.33,39.5-33.49,57.71-51.62C-72.17,24.74-56,13.32-37.59,6.69A106.87,106.87,0,0,1-13.87,1.11a118,118,0,0,1,53,5.58A114.39,114.39,0,0,1,71.86,24.58c20.5,16,35.4,37.69,55.43,54.13a87.28,87.28,0,0,0,81.49,15.57c25.37-7.93,42.36-29.44,59.94-48,15.8-16.7,33.56-31.72,55.09-39.57a95.69,95.69,0,0,1,12.27-3.59,122,122,0,0,1,66.08,3.57,103.9,103.9,0,0,1,23.48,11.66C448,33.26,463.67,54.94,483.08,73c21.19,19.72,47.94,29,76.86,24,27.49-4.73,46-23.84,64.2-43.41,18-19.37,36.77-37.67,61.94-46.89,1-.36,1.94-.7,2.93-1,24-8,51.33-7.43,75.35,1a108,108,0,0,1,14.72,6.42C803,25.74,819.63,47.17,838.21,66.06c20.63,21,43.73,33.48,73.89,32,28.32-1.4,48.73-17.34,67.45-37.13,18.34-19.39,36-39.95,60.91-51,2.67-1.17,5.36-2.23,8.06-3.2a118.65,118.65,0,0,1,78,0c2.12.74,4.21,1.56,6.28,2.44,49,20.94,71.2,85,128.3,88.82,30.23,2.06,53.9-9.9,74.74-30.88,18.35-18.47,34.55-39.45,57.56-52.54a107.17,107.17,0,0,1,17.25-7.84,119,119,0,0,1,73.93-1.52c1.51.47,3,1,4.47,1.52,24.59,9,43.29,26.85,60.91,45.84s35.47,38.07,61.9,43.81c29.12,6.32,57.4-2.5,79-22.33,19.6-18,35.24-39.66,57.37-54.85a104.42,104.42,0,0,1,24.85-12.51c19.94-7,41.82-8.14,62.73-4.23a96,96,0,0,1,15.36,4.23c21.07,7.68,38.67,22.14,54.28,38.53,17.59,18.47,34.34,40.14,59.43,48.57,27.47,9.23,58.34,4.27,81.15-13.57,20.53-16.06,35.35-38.19,55.74-54.47a115.17,115.17,0,0,1,34.41-19.06c24.05-8.28,49.69-7.88,73.56,0a131.55,131.55,0,0,1,51,31.39c18.31,18,33.89,40.22,57.39,52,26,13,59.29,10.55,83.54-5.13,21.38-13.83,36-35.85,54.76-52.72a123.69,123.69,0,0,1,42.38-25.51,120.41,120.41,0,0,1,37.8-6.5C2554.27-.08,2555.73,25,2541.08,29.5Z" style="fill:#444"/></svg>