<?xml version="1.0" encoding="utf-8"?>
<!-- Generator: Adobe Illustrator 24.2.1, SVG Export Plug-In . SVG Version: 6.00 Build 0)  -->
<svg version="1.1" id="Layer_1" xmlns="http://www.w3.org/2000/svg" xmlns:xlink="http://www.w3.org/1999/xlink" x="0px" y="0px"
	 viewBox="0 0 1456.8 892.7" style="enable-background:new 0 0 1456.8 892.7;" xml:space="preserve">
<style type="text/css">
	.st0{fill:#09B9FF;}
	.st1{fill:#444444;}
</style>
<g id="Layer_2_1_">
	<g id="Layer_1-2">
		<path class="st0" d="M2541.1,6.7v886h-2909V6.7h44.3c15.2,5.4,29.3,13.7,41.3,24.5c18.9,16.8,33.5,38.8,54.6,52.9
			c24,16.1,57.1,19.1,83.4,6.6c23.8-11.3,39.5-33.5,57.7-51.6c14.4-14.3,30.5-25.8,49-32.4h76.7C50.9,10.8,62,16.9,71.8,24.6
			c20.5,16,35.4,37.7,55.4,54.1c22.8,18.6,53.4,24.4,81.5,15.6c25.4-7.9,42.4-29.4,59.9-48c15.8-16.7,33.6-31.7,55.1-39.6h78.3
			c8.3,2.9,16.2,6.8,23.5,11.7C448,33.3,463.7,54.9,483.1,73c21.2,19.7,47.9,29,76.9,24c27.5-4.7,46-23.8,64.2-43.4
			c18-19.4,36.8-37.7,61.9-46.9h78.3c5.1,1.8,10,3.9,14.7,6.4c23.9,12.6,40.6,34,59.1,52.9c20.6,21,43.7,33.5,73.9,32
			c28.3-1.4,48.7-17.3,67.4-37.1c18.3-19.4,36-40,60.9-51c2.7-1.2,5.4-2.2,8.1-3.2h78c2.1,0.7,4.2,1.6,6.3,2.4
			c49,20.9,71.2,85,128.3,88.8c30.2,2.1,53.9-9.9,74.7-30.9c18.3-18.5,34.6-39.5,57.6-52.5c5.5-3.1,11.3-5.7,17.2-7.8h78.4
			c24.6,9,43.3,26.9,60.9,45.8s35.5,38.1,61.9,43.8c29.1,6.3,57.4-2.5,79-22.3c19.6-18,35.2-39.7,57.4-54.8
			c7.7-5.3,16-9.5,24.8-12.5h78.1c21.1,7.7,38.7,22.1,54.3,38.5c17.6,18.5,34.3,40.1,59.4,48.6c27.5,9.2,58.3,4.3,81.1-13.6
			c20.5-16.1,35.4-38.2,55.7-54.5c10.3-8.3,21.9-14.7,34.4-19.1h73.6c19.2,6.4,36.6,17.1,51,31.4c18.3,18,33.9,40.2,57.4,52
			c26,13,59.3,10.6,83.5-5.1c21.4-13.8,36-35.8,54.8-52.7c12.3-11.3,26.7-19.9,42.4-25.5L2541.1,6.7z"/>
		<path class="st1" d="M2541.1,29.5c-1.5,0.4-3,0.7-4.5,0.7c-29.2,0.5-50.4,13.7-70.2,34.2c-18.1,18.7-34.8,39.5-58.4,51.6
			c-27.7,14.1-62.5,16.5-91.7,5.7c-26.3-9.6-45.2-28.9-63.9-49c-17.9-19.3-36.7-37.5-63.9-41.6c-29.7-4.5-56,5.9-77.2,26.2
			c-18.8,18-34.5,39.2-56.7,53.5c-26.2,17-59.7,21.3-89.9,14.1c-27.5-6.6-48.8-24.7-67.7-44.9c-17.3-18.5-34.3-39-59.5-46.4
			c-28.1-8.4-58.6-2-81.1,16.9c-20.3,17.1-35.6,39.3-57,55.3c-24.5,18.3-54.8,25.1-85,21.2c-29-3.8-52.5-19.2-72.7-39.7
			c-17.9-18.2-33.9-40.3-58-50.7c-26.5-11.4-58.7-7.9-82.3,8.5c-21.3,14.8-36,37.2-55.6,53.9c-47.4,40.5-114.1,37.2-159.2-4.8
			c-18.8-17.5-33.9-39.9-56.4-53.1c-24.9-14.6-58.6-15-83.7-0.7c-22.3,12.7-37.3,34.4-55.6,51.8c-21.5,20.6-46.8,33.7-76.8,35.7
			c-31.1,2-59.7-8.2-83.4-28c-19.5-16.3-33.9-38-54.3-53.2c-23.6-17.5-56.3-21.8-83.6-10.6c-24.2,9.9-40.3,31.9-58,50.1
			c-19.4,19.9-42.1,35.8-70,40.2c-30.8,4.9-62.3-1.2-87.6-19.8c-21.6-15.8-37-37.8-57-55.2c-21.6-18.9-51.2-25.9-79-18.7
			c-26.5,6.7-44,27.1-61.8,46.2c-18.8,20.2-39.7,38.5-67.1,45.5c-29.6,7.6-62.8,3.8-89.1-12.1c-23-14-39-35.6-58.1-54.1
			C43.8,37.7,18.1,27-11.8,30.9c-27.4,3.6-46.4,21.4-64.4,40.8c-18.6,20-37.3,39.5-63.4,49.5c-29.2,11.1-63.9,9.2-91.8-4.6
			c-23.8-11.7-40.8-32.4-58.8-51.2c-20-20.9-41.4-34.8-71.2-35.2c-2.2,0-4.5-0.5-6.5-1.5c-12.5-6-10.3-28.8,6.5-28.5
			c12.9,0.1,25.7,2.3,37.9,6.5c15.2,5.4,29.3,13.7,41.3,24.5c18.9,16.8,33.5,38.8,54.6,52.9c24,16.1,57.1,19.1,83.4,6.6
			c23.8-11.3,39.5-33.5,57.7-51.6c14.4-14.3,30.5-25.8,49-32.4c7.7-2.8,15.6-4.6,23.7-5.6c17.9-2.2,36-0.3,53,5.6
			C50.9,10.8,62,16.9,71.9,24.6c20.5,16,35.4,37.7,55.4,54.1c22.8,18.6,53.4,24.4,81.5,15.6c25.4-7.9,42.4-29.4,59.9-48
			c15.8-16.7,33.6-31.7,55.1-39.6c4-1.5,8.1-2.7,12.3-3.6c21.8-4.8,45-3.8,66.1,3.6c8.3,2.9,16.2,6.8,23.5,11.7
			c22.3,14.9,38,36.6,57.4,54.7c21.2,19.7,47.9,29,76.9,24c27.5-4.7,46-23.8,64.2-43.4c18-19.4,36.8-37.7,61.9-46.9
			c1-0.4,1.9-0.7,2.9-1c24-8,51.3-7.4,75.3,1c5.1,1.8,10,3.9,14.7,6.4c23.9,12.6,40.6,34,59.1,52.9c20.6,21,43.7,33.5,73.9,32
			c28.3-1.4,48.7-17.3,67.4-37.1c18.3-19.4,36-40,60.9-51c2.7-1.2,5.4-2.2,8.1-3.2c25.3-8.8,52.7-8.8,78,0c2.1,0.7,4.2,1.6,6.3,2.4
			c49,20.9,71.2,85,128.3,88.8c30.2,2.1,53.9-9.9,74.7-30.9c18.3-18.5,34.6-39.5,57.6-52.5c5.5-3.1,11.3-5.7,17.2-7.8
			c23.9-8.3,49.8-8.9,73.9-1.5c1.5,0.5,3,1,4.5,1.5c24.6,9,43.3,26.9,60.9,45.8s35.5,38.1,61.9,43.8c29.1,6.3,57.4-2.5,79-22.3
			c19.6-18,35.2-39.7,57.4-54.8c7.7-5.3,16-9.5,24.8-12.5c19.9-7,41.8-8.1,62.7-4.2c5.2,1,10.4,2.4,15.4,4.2
			c21.1,7.7,38.7,22.1,54.3,38.5c17.6,18.5,34.3,40.1,59.4,48.6c27.5,9.2,58.3,4.3,81.1-13.6c20.5-16.1,35.4-38.2,55.7-54.5
			c10.3-8.3,21.9-14.7,34.4-19.1c24.1-8.3,49.7-7.9,73.6,0c19.2,6.4,36.6,17.1,51,31.4c18.3,18,33.9,40.2,57.4,52
			c26,13,59.3,10.6,83.5-5.1c21.4-13.8,36-35.8,54.8-52.7c12.3-11.3,26.7-19.9,42.4-25.5c12.2-4.2,24.9-6.4,37.8-6.5
			C2554.3-0.1,2555.7,25,2541.1,29.5z"/>
	</g>
</g>
</svg>
